<svg width="20" height="20" viewBox="0 0 20 20" fill="none" xmlns="http://www.w3.org/2000/svg">
<g clipPath="url(#clip0_625_3288)">
<path d="M6.75657 9.0265L10.4123 5.37082L14.0697 9.02808L16.1967 6.90102L10.4123 1.1167L4.62966 6.89929L6.75665 9.02635L6.75657 9.0265ZM1.00049 10.5285L3.12762 8.40103L5.25461 10.528L3.12747 12.6551L1.00049 10.5285ZM6.75657 12.0307L10.4123 15.6861L14.0696 12.0289L16.1978 14.1549L16.1967 14.156L10.4123 19.9402L4.62966 14.1576L4.62665 14.1546L6.7568 12.0304L6.75657 12.0307ZM15.5699 10.5294L17.697 8.40223L19.824 10.5292L17.697 12.6564L15.5699 10.5294Z" fill="#F3BA2F"/>
<path d="M12.5691 10.527H12.57L10.4117 8.36865L8.81646 9.96343L8.63319 10.1468L8.25521 10.5248L8.2522 10.5278L8.25521 10.5308L10.4117 12.6876L12.5702 10.5293L12.5712 10.5281L12.5693 10.527" fill="#F3BA2F"/>
</g>
<defs>
<clipPath id="clip0_625_3288">
<rect width="20" height="20" fill="white" transform="translate(0 -0.000976562)"/>
</clipPath>
</defs>
</svg>
