<svg width="26" height="24" viewBox="0 0 26 24" fill="none" xmlns="http://www.w3.org/2000/svg">
<path fillRule="evenodd" clipRule="evenodd" d="M7.65332 21.2841L10.9285 22.1533V21.0166L11.1959 20.749H13.0676V22.0867V23.0225H11.0628L8.58858 21.9524L7.65332 21.2841Z" fill="#CDBDB2"/>
<path fillRule="evenodd" clipRule="evenodd" d="M18.3482 21.2841L15.1396 22.1533V21.0166L14.8722 20.749H13.0005V22.0867V23.0225H15.0053L17.4783 21.9524L18.3482 21.2841Z" fill="#CDBDB2"/>
<path fillRule="evenodd" clipRule="evenodd" d="M11.1959 18.8099L10.9285 21.0169L11.2624 20.7493H14.7384L15.1401 21.0169L14.8727 18.8099L14.3379 18.4746L11.6641 18.5424L11.1959 18.8099Z" fill="#393939"/>
<path fillRule="evenodd" clipRule="evenodd" d="M9.39038 3.89404L10.9947 7.63964L11.7303 18.5423H14.3376L15.1398 7.63964L16.6098 3.89404H9.39038Z" fill="#F89C35"/>
<path fillRule="evenodd" clipRule="evenodd" d="M2.3717 12.1209L0.5 17.5384L5.17985 17.2708H8.18765V14.9295L8.05336 10.1138L7.38549 10.6489L2.3717 12.1209Z" fill="#F89D35"/>
<path fillRule="evenodd" clipRule="evenodd" d="M5.91382 12.7227L11.3958 12.8558L10.7933 15.6656L8.18719 14.9962L5.91382 12.7227Z" fill="#D87C30"/>
<path fillRule="evenodd" clipRule="evenodd" d="M5.91382 12.7896L8.18719 14.9299V17.0702L5.91382 12.7896Z" fill="#EA8D3A"/>
<path fillRule="evenodd" clipRule="evenodd" d="M8.1875 14.9966L10.8614 15.666L11.7301 18.5424L11.1287 18.8766L8.1875 17.1369V14.9966Z" fill="#F89D35"/>
<path fillRule="evenodd" clipRule="evenodd" d="M8.18809 17.1367L7.65332 21.2842L11.1959 18.8098L8.18809 17.1367Z" fill="#EB8F35"/>
<path fillRule="evenodd" clipRule="evenodd" d="M11.3961 12.856L11.73 18.5421L10.7271 15.6325L11.3961 12.856Z" fill="#EA8E3A"/>
<path fillRule="evenodd" clipRule="evenodd" d="M5.11182 17.2045L8.18735 17.1367L7.65258 21.2842L5.11182 17.2045Z" fill="#D87C30"/>
<path fillRule="evenodd" clipRule="evenodd" d="M1.97122 23.0905L7.65287 21.2843L5.11211 17.2046L0.5 17.5387L1.97122 23.0905Z" fill="#EB8F35"/>
<path fillRule="evenodd" clipRule="evenodd" d="M10.9942 7.63965L8.11946 10.0475L5.91382 12.723L11.3958 12.9239L10.9942 7.63965Z" fill="#E8821E"/>
<path fillRule="evenodd" clipRule="evenodd" d="M7.65332 21.284L11.1959 18.8096L10.9285 20.9499V22.1533L8.52203 21.6848L7.65332 21.284Z" fill="#DFCEC3"/>
<path fillRule="evenodd" clipRule="evenodd" d="M18.3486 21.284L14.8726 18.8096L15.1399 20.9499V22.1533L17.5464 21.6848L18.3486 21.284Z" fill="#DFCEC3"/>
<path fillRule="evenodd" clipRule="evenodd" d="M9.92492 14.0605L10.6605 15.5992L8.05322 14.9298L9.92492 14.0605Z" fill="#393939"/>
<path fillRule="evenodd" clipRule="evenodd" d="M1.90332 0.75L10.9944 7.63953L9.45787 3.89393L1.90332 0.75Z" fill="#E88F35"/>
<path fillRule="evenodd" clipRule="evenodd" d="M1.90357 0.75L0.700928 4.42901L1.3688 8.44216L0.900576 8.7097L1.56964 9.31137L1.03486 9.77987L1.77047 10.4481L1.30225 10.85L2.37179 12.1878L7.38558 10.6491C9.83602 8.68711 11.0399 7.68352 10.9947 7.63953C10.9495 7.59553 7.92035 5.29823 1.90357 0.75Z" fill="#8E5A30"/>
<path fillRule="evenodd" clipRule="evenodd" d="M23.6283 12.1209L25.5 17.5384L20.8213 17.2708H17.8135V14.9295L17.9466 10.1138L18.6157 10.6489L23.6283 12.1209Z" fill="#F89D35"/>
<path fillRule="evenodd" clipRule="evenodd" d="M20.0862 12.7227L14.6054 12.8558L15.2067 15.6656L17.814 14.9962L20.0862 12.7227Z" fill="#D87C30"/>
<path fillRule="evenodd" clipRule="evenodd" d="M20.0862 12.7896L17.814 14.9299V17.0702L20.0862 12.7896Z" fill="#EA8D3A"/>
<path fillRule="evenodd" clipRule="evenodd" d="M17.814 14.9966L15.1401 15.666L14.2702 18.5424L14.8727 18.8766L17.814 17.1369V14.9966Z" fill="#F89D35"/>
<path fillRule="evenodd" clipRule="evenodd" d="M17.8131 17.1367L18.3479 21.2842L14.8719 18.8763L17.8131 17.1367Z" fill="#EB8F35"/>
<path fillRule="evenodd" clipRule="evenodd" d="M14.6051 12.856L14.27 18.5421L15.2729 15.6325L14.6051 12.856Z" fill="#EA8E3A"/>
<path fillRule="evenodd" clipRule="evenodd" d="M20.8882 17.2045L17.8138 17.1367L18.3486 21.2842L20.8882 17.2045Z" fill="#D87C30"/>
<path fillRule="evenodd" clipRule="evenodd" d="M24.03 23.0905L18.3483 21.2843L20.8879 17.2046L25.5 17.5387L24.03 23.0905Z" fill="#EB8F35"/>
<path fillRule="evenodd" clipRule="evenodd" d="M15.0058 7.63965L17.8805 10.0475L20.0862 12.723L14.6054 12.9239L15.0058 7.63965Z" fill="#E8821E"/>
<path fillRule="evenodd" clipRule="evenodd" d="M16.0751 14.0605L15.3395 15.5992L17.9468 14.9298L16.0751 14.0605Z" fill="#393939"/>
<path fillRule="evenodd" clipRule="evenodd" d="M24.0967 0.75L15.0056 7.63953L16.5433 3.89393L24.0967 0.75Z" fill="#E88F35"/>
<path fillRule="evenodd" clipRule="evenodd" d="M24.0965 0.75L25.3003 4.42901L24.6324 8.44216L25.0995 8.7097L24.4304 9.31137L24.9652 9.77987L24.2296 10.4481L24.6978 10.85L23.6282 12.1878L18.6145 10.6491C16.1628 8.68711 14.9602 7.68352 15.0041 7.63953C15.0481 7.59553 18.0809 5.29823 24.0965 0.75Z" fill="#8E5A30"/>
</svg>
