<svg width="17" height="16" viewBox="0 0 17 16" fill="none" xmlns="http://www.w3.org/2000/svg">
    <path
            d="M8.37775 1.80928C8.51546 1.53025 8.91335 1.53025 9.05106 1.80928L10.8337 5.42136C10.8884 5.53217 10.9941 5.60896 11.1164 5.62673L15.1026 6.20596C15.4105 6.2507 15.5335 6.62912 15.3106 6.84631L12.4262 9.65793C12.3377 9.74417 12.2974 9.86844 12.3182 9.99022L12.9992 13.9603C13.0518 14.267 12.7299 14.5008 12.4544 14.356L8.8891 12.4816C8.77973 12.4241 8.64907 12.4241 8.53971 12.4816L4.97437 14.356C4.69895 14.5008 4.37705 14.267 4.42965 13.9603L5.11057 9.99022C5.13146 9.86844 5.09108 9.74417 5.0026 9.65793L2.11818 6.84631C1.89536 6.62912 2.01831 6.2507 2.32624 6.20596L6.31241 5.62673C6.43469 5.60896 6.5404 5.53217 6.59508 5.42136L8.37775 1.80928Z"
            stroke="#B6B6B6"
            stroke-linejoin="round"
    />
</svg>
