<svg width="24" height="23" viewBox="0 0 24 23" fill="none" xmlns="http://www.w3.org/2000/svg">
<path d="M22.4103 8.65519L15.4678 7.6462L12.3643 1.3544C12.2795 1.18214 12.14 1.04269 11.9678 0.95792C11.5357 0.744639 11.0107 0.922373 10.7947 1.3544L7.69121 7.6462L0.748629 8.65519C0.557223 8.68253 0.382223 8.77276 0.248239 8.90948C0.0862588 9.07597 -0.00299936 9.29995 7.69615e-05 9.53222C0.00315328 9.76448 0.0983124 9.98602 0.264645 10.1482L5.28769 15.0454L4.10097 21.9607C4.07314 22.1215 4.09094 22.287 4.15236 22.4382C4.21377 22.5895 4.31634 22.7205 4.44843 22.8164C4.58052 22.9124 4.73684 22.9694 4.89968 22.981C5.06252 22.9926 5.22536 22.9584 5.36972 22.8821L11.5795 19.6173L17.7893 22.8821C17.9588 22.9724 18.1557 23.0025 18.3443 22.9696C18.8201 22.8876 19.14 22.4364 19.058 21.9607L17.8713 15.0454L22.8943 10.1482C23.0311 10.0142 23.1213 9.83917 23.1486 9.64776C23.2225 9.16925 22.8889 8.72628 22.4103 8.65519ZM15.7576 14.3564L16.7447 20.1067L11.5795 17.3942L6.41425 20.1095L7.40136 14.3591L3.22324 10.2849L8.99824 9.44542L11.5795 4.21456L14.1607 9.44542L19.9357 10.2849L15.7576 14.3564Z" fill="#8A939B"/>
</svg>
