<svg width="24" height="23" viewBox="0 0 24 23" fill="none" xmlns="http://www.w3.org/2000/svg">
<path d="M22.4114 7.78789L15.4685 6.77886L12.3649 0.486753C12.2801 0.314479 12.1406 0.175019 11.9684 0.0902489C11.5363 -0.123043 11.0113 0.0547003 10.7953 0.486753L7.69158 6.77886L0.748666 7.78789C0.55725 7.81524 0.382242 7.90548 0.248251 8.0422C0.0862631 8.2087 -0.00299951 8.43269 7.69653e-05 8.66496C0.00315344 8.89724 0.0983172 9.11879 0.264658 9.28093L5.28795 14.1784L4.10117 21.094C4.07334 21.2549 4.09115 21.4203 4.15256 21.5716C4.21398 21.7229 4.31655 21.8539 4.44864 21.9498C4.58074 22.0458 4.73708 22.1028 4.89992 22.1144C5.06277 22.126 5.22561 22.0918 5.36999 22.0155L11.5801 18.7505L17.7901 22.0155C17.9597 22.1058 18.1566 22.1359 18.3452 22.103C18.821 22.021 19.141 21.5698 19.0589 21.094L17.8722 14.1784L22.8955 9.28093C23.0322 9.14694 23.1224 8.97193 23.1498 8.78052C23.2236 8.30198 22.89 7.85899 22.4114 7.78789Z" fill="#FFE585"/>
</svg>
