<svg width="28" height="28" viewBox="0 0 28 28" fill="none" xmlns="http://www.w3.org/2000/svg">
<g clipPath="url(#clip0_1305_6530)">
<path d="M23.8995 4.10052C21.2552 1.45622 17.7395 0 14 0C10.2605 0 6.74472 1.45622 4.10052 4.10047C1.45622 6.74472 0 10.2605 0 14C0 17.7395 1.45622 21.2552 4.10052 23.8995C6.74472 26.5437 10.2605 27.9999 14 27.9999C17.7396 27.9999 21.2552 26.5437 23.8995 23.8994C26.5437 21.2552 28 17.7395 28 13.9999C28 10.2604 26.5437 6.74472 23.8995 4.10052ZM5.26181 5.26181C6.49288 4.03074 7.93811 3.09176 9.51333 2.47887C9.09377 3.00267 8.70116 3.60473 8.34138 4.28187C7.92351 5.06827 7.56295 5.93195 7.26266 6.85448C6.2224 6.68183 5.25853 6.46953 4.39742 6.22038C4.6673 5.88864 4.95523 5.56839 5.26181 5.26181ZM3.40315 7.63355C4.41033 7.95605 5.56216 8.22801 6.81898 8.44342C6.46898 9.92906 6.26298 11.5277 6.21381 13.1789H1.66994C1.799 11.1974 2.39411 9.30628 3.40315 7.63355ZM3.31373 20.2146C2.35916 18.5795 1.79512 16.743 1.66988 14.8211H6.21693C6.27063 16.4251 6.47254 17.9783 6.81073 19.4251C5.52809 19.633 4.34733 19.898 3.31373 20.2146ZM5.26181 22.7382C4.91291 22.3892 4.58795 22.0228 4.28668 21.6414C5.17934 21.3939 6.17728 21.1843 7.25151 21.0162C7.55393 21.9515 7.91837 22.8266 8.34132 23.6227C8.73343 24.3606 9.16453 25.009 9.62702 25.5644C8.00773 24.9528 6.52247 23.9987 5.26181 22.7382ZM13.1788 26.1469C11.9315 25.7975 10.7516 24.6585 9.79169 22.852C9.45596 22.2203 9.16109 21.5311 8.90848 20.7965C10.2609 20.6476 11.7 20.5597 13.1788 20.539V26.1469ZM13.1788 18.8966C11.5388 18.9189 9.94038 19.0219 8.44342 19.1977C8.11322 17.8327 7.91454 16.3552 7.86002 14.8212H13.1789V18.8966H13.1788ZM13.1788 13.1788H7.8569C7.90672 11.602 8.10857 10.0832 8.44905 8.68345C9.93645 8.86938 11.5316 8.98248 13.1788 9.01485V13.1788ZM13.1788 7.37231C11.6943 7.3424 10.2583 7.2456 8.91548 7.08766C9.16655 6.36076 9.45913 5.67848 9.79169 5.05247C10.7515 3.24603 11.9315 2.107 13.1788 1.7576V7.37231ZM24.6486 7.72078C25.6261 9.37196 26.2032 11.2317 26.3302 13.1788H21.7863C21.7377 11.5467 21.5356 9.96598 21.1929 8.49499C22.458 8.29068 23.6241 8.03075 24.6486 7.72078ZM22.7381 5.26181C23.0678 5.59152 23.3758 5.93715 23.6631 6.29595C22.7841 6.53598 21.8053 6.73969 20.7535 6.90364C20.4501 5.96258 20.084 5.08227 19.6587 4.28187C19.2989 3.60473 18.9063 3.00267 18.4867 2.47887C20.0618 3.09176 21.5071 4.03074 22.7381 5.26181ZM14.8212 14.8212H20.14C20.0851 16.3671 19.8838 17.8558 19.5489 19.2297C18.0617 19.0448 16.4673 18.9327 14.8212 18.9012V14.8212ZM14.8212 13.1788V9.02032C16.4621 8.99877 18.0618 8.89667 19.5602 8.72151C19.8951 10.1107 20.0937 11.6162 20.1431 13.1788H14.8212ZM14.8211 1.7576H14.8211C16.0684 2.107 17.2484 3.24603 18.2083 5.05247C18.5461 5.68832 18.8427 6.38236 19.0964 7.12228C17.7422 7.27059 16.3014 7.35793 14.8211 7.37789V1.7576ZM14.8212 26.1469V20.5437C16.3043 20.5728 17.7391 20.6688 19.0815 20.8257C18.8311 21.5493 18.5395 22.2287 18.2083 22.852C17.2484 24.6585 16.0685 25.7975 14.8212 26.1469ZM22.7381 22.7382C21.4775 23.9988 19.9923 24.9528 18.3729 25.5643C18.8354 25.0089 19.2665 24.3606 19.6586 23.6227C20.0753 22.8384 20.4351 21.9773 20.7349 21.0575C21.7994 21.2332 22.7842 21.4505 23.6615 21.7061C23.3748 22.0641 23.0672 22.409 22.7381 22.7382ZM24.6425 20.2896C23.6234 19.9619 22.455 19.6862 21.1794 19.4687C21.5237 18.0096 21.7289 16.4412 21.7832 14.8212H26.3302C26.2029 16.7723 25.6238 18.6358 24.6425 20.2896Z" fill="white"/>
</g>
<defs>
<clipPath id="clip0_1305_6530">
<rect width="28" height="28" fill="white"/>
</clipPath>
</defs>
</svg>
