<svg width="33" height="16" viewBox="0 0 33 16" fill="none" xmlns="http://www.w3.org/2000/svg">
<path d="M0 15.5C0 7.21573 6.71573 0.5 15 0.5H33C33 8.78427 26.2843 15.5 18 15.5H0Z" fill="url(#paint0_linear_1305_4416)"/>
<path d="M14.3948 12.5L13.8908 10.988H10.5428L10.0388 12.5H8.25084L11.1908 4.1H13.2428L16.1948 12.5H14.3948ZM11.0708 9.44H13.3748L12.2228 6.008L11.0708 9.44ZM20.3465 4.1C21.4985 4.1 22.4585 4.504 23.2265 5.312C24.0025 6.12 24.3905 7.116 24.3905 8.3C24.3905 9.484 24.0025 10.48 23.2265 11.288C22.4585 12.096 21.4985 12.5 20.3465 12.5H17.0105V4.1H20.3465ZM20.3465 10.916C21.0745 10.916 21.6665 10.676 22.1225 10.196C22.5785 9.708 22.8065 9.076 22.8065 8.3C22.8065 7.524 22.5785 6.896 22.1225 6.416C21.6665 5.928 21.0745 5.684 20.3465 5.684H18.6665V10.916H20.3465Z" fill="white"/>
<defs>
<linearGradient id="paint0_linear_1305_4416" x1="-2.16359e-08" y1="5.05509" x2="33" y2="5.05509" gradientUnits="userSpaceOnUse">
<stop stopColor="#00FE7E"/>
<stop offset="1" stopColor="#00C4FE"/>
</linearGradient>
</defs>
</svg>
