<svg width="97" height="97" viewBox="0 0 97 97" fill="none" xmlns="http://www.w3.org/2000/svg">
<path fillRule="evenodd" clipRule="evenodd" d="M96.5 48.5C96.5 75.0097 75.0097 96.5 48.5 96.5C21.9903 96.5 0.5 75.0097 0.5 48.5C0.5 21.9903 21.9903 0.5 48.5 0.5C75.0097 0.5 96.5 21.9903 96.5 48.5ZM60.5 30.5C60.5 37.1274 55.1274 42.5 48.5 42.5C41.8726 42.5 36.5 37.1274 36.5 30.5C36.5 23.8726 41.8726 18.5 48.5 18.5C55.1274 18.5 60.5 23.8726 60.5 30.5ZM48.4996 54.5C36.3943 54.5 25.9637 61.6697 21.2224 71.9943C27.8242 79.6522 37.5959 84.5 48.4999 84.5C59.4037 84.5 69.1752 79.6524 75.777 71.9948C71.0358 61.6699 60.605 54.5 48.4996 54.5Z" fill="url(#paint0_linear_1088_552)"/>
<defs>
<linearGradient id="paint0_linear_1088_552" x1="0.5" y1="29.6526" x2="96.5" y2="29.6526" gradientUnits="userSpaceOnUse">
<stop stopColor="#00FE7E"/>
<stop offset="1" stopColor="#00C4FE"/>
</linearGradient>
</defs>
</svg>
