<svg width="250" height="200" viewBox="0 0 250 200" fill="none" xmlns="http://www.w3.org/2000/svg">
<g clip-path="url(#clip0_382_10552)">
<rect width="250" height="200" fill="white"/>
<path fillRule="evenodd" clipRule="evenodd" d="M63 134H154C154.515 134 155.017 133.944 155.5 133.839C155.983 133.944 156.485 134 157 134H209C212.866 134 216 130.866 216 127C216 123.134 212.866 120 209 120H203C199.134 120 196 116.866 196 113C196 109.134 199.134 106 203 106H222C225.866 106 229 102.866 229 99C229 95.134 225.866 92 222 92H200C203.866 92 207 88.866 207 85C207 81.134 203.866 78 200 78H136C139.866 78 143 74.866 143 71C143 67.134 139.866 64 136 64H79C75.134 64 72 67.134 72 71C72 74.866 75.134 78 79 78H39C35.134 78 32 81.134 32 85C32 88.866 35.134 92 39 92H64C67.866 92 71 95.134 71 99C71 102.866 67.866 106 64 106H24C20.134 106 17 109.134 17 113C17 116.866 20.134 120 24 120H63C59.134 120 56 123.134 56 127C56 130.866 59.134 134 63 134ZM226 134C229.866 134 233 130.866 233 127C233 123.134 229.866 120 226 120C222.134 120 219 123.134 219 127C219 130.866 222.134 134 226 134Z" fill="url(#paint0_linear_382_10552)"/>
<path d="M90.5 141.737H157.521C162.492 141.737 166.521 137.707 166.521 132.737V115.5V97V93.1842V86C166.521 81.0294 162.492 77 157.521 77H90.3425C86.5389 77 83.1461 74.609 81.8668 71.027L81.5 70V132.737C81.5 137.707 85.5294 141.737 90.5 141.737Z" fill="white"/>
<mask id="path-4-inside-1_382_10552" fill="white">
<path fillRule="evenodd" clipRule="evenodd" d="M81.2718 68.7709C81.864 68.6609 82.4505 68.989 82.6667 69.5512L82.9478 70.282C84.0989 73.275 86.9745 75.2499 90.1812 75.2499H157.521C163.182 75.2499 167.771 79.839 167.771 85.4999V93.1841V95.9999C167.771 96.6902 167.212 97.2499 166.521 97.2499C165.831 97.2499 165.271 96.6902 165.271 95.9999V93.1841V85.4999C165.271 81.2197 161.802 77.7499 157.521 77.7499H90.1812C87.3143 77.7499 84.6475 76.5563 82.75 74.5601V128.737C82.75 133.017 86.2198 136.487 90.5 136.487H157.521C161.802 136.487 165.271 133.017 165.271 128.737V116C165.271 115.31 165.831 114.75 166.521 114.75C167.212 114.75 167.771 115.31 167.771 116V128.737C167.771 134.398 163.182 138.987 157.521 138.987H90.5C84.8391 138.987 80.25 134.398 80.25 128.737V69.9999C80.25 69.3975 80.6796 68.8808 81.2718 68.7709Z"/>
</mask>
<path fillRule="evenodd" clipRule="evenodd" d="M81.2718 68.7709C81.864 68.6609 82.4505 68.989 82.6667 69.5512L82.9478 70.282C84.0989 73.275 86.9745 75.2499 90.1812 75.2499H157.521C163.182 75.2499 167.771 79.839 167.771 85.4999V93.1841V95.9999C167.771 96.6902 167.212 97.2499 166.521 97.2499C165.831 97.2499 165.271 96.6902 165.271 95.9999V93.1841V85.4999C165.271 81.2197 161.802 77.7499 157.521 77.7499H90.1812C87.3143 77.7499 84.6475 76.5563 82.75 74.5601V128.737C82.75 133.017 86.2198 136.487 90.5 136.487H157.521C161.802 136.487 165.271 133.017 165.271 128.737V116C165.271 115.31 165.831 114.75 166.521 114.75C167.212 114.75 167.771 115.31 167.771 116V128.737C167.771 134.398 163.182 138.987 157.521 138.987H90.5C84.8391 138.987 80.25 134.398 80.25 128.737V69.9999C80.25 69.3975 80.6796 68.8808 81.2718 68.7709Z" fill="white"/>
<path d="M82.6667 69.5512L80.3333 70.4486L80.3333 70.4486L82.6667 69.5512ZM81.2718 68.7709L80.8154 66.3129L80.8154 66.3129L81.2718 68.7709ZM82.9478 70.282L85.2811 69.3845V69.3845L82.9478 70.282ZM82.75 74.5601L84.562 72.8377L80.25 68.3014V74.5601H82.75ZM85 68.6537C84.3514 66.9671 82.5921 65.983 80.8154 66.3129L81.7282 71.2289C81.136 71.3388 80.5495 71.0108 80.3333 70.4486L85 68.6537ZM85.2811 69.3845L85 68.6537L80.3333 70.4486L80.6144 71.1794L85.2811 69.3845ZM90.1812 72.7499C88.0089 72.7499 86.0609 71.412 85.2811 69.3845L80.6144 71.1794C82.1369 75.1379 85.94 77.7499 90.1812 77.7499V72.7499ZM157.521 72.7499H90.1812V77.7499H157.521V72.7499ZM170.271 85.4999C170.271 78.4583 164.563 72.7499 157.521 72.7499V77.7499C161.802 77.7499 165.271 81.2197 165.271 85.4999H170.271ZM170.271 93.1841V85.4999H165.271V93.1841H170.271ZM170.271 95.9999V93.1841H165.271V95.9999H170.271ZM166.521 99.7499C168.592 99.7499 170.271 98.0709 170.271 95.9999H165.271C165.271 95.3095 165.831 94.7499 166.521 94.7499V99.7499ZM162.771 95.9999C162.771 98.0709 164.45 99.7499 166.521 99.7499V94.7499C167.212 94.7499 167.771 95.3095 167.771 95.9999H162.771ZM162.771 93.1841V95.9999H167.771V93.1841H162.771ZM162.771 85.4999V93.1841H167.771V85.4999H162.771ZM157.521 80.2499C160.421 80.2499 162.771 82.6004 162.771 85.4999H167.771C167.771 79.839 163.182 75.2499 157.521 75.2499V80.2499ZM90.1812 80.2499H157.521V75.2499H90.1812V80.2499ZM80.938 76.2825C83.297 78.7642 86.6142 80.2499 90.1812 80.2499V75.2499C88.0143 75.2499 85.998 74.3484 84.562 72.8377L80.938 76.2825ZM85.25 128.737V74.5601H80.25V128.737H85.25ZM90.5 133.987C87.6005 133.987 85.25 131.636 85.25 128.737H80.25C80.25 134.398 84.8391 138.987 90.5 138.987V133.987ZM157.521 133.987H90.5V138.987H157.521V133.987ZM162.771 128.737C162.771 131.636 160.421 133.987 157.521 133.987V138.987C163.182 138.987 167.771 134.398 167.771 128.737H162.771ZM162.771 116V128.737H167.771V116H162.771ZM166.521 112.25C164.45 112.25 162.771 113.929 162.771 116H167.771C167.771 116.69 167.212 117.25 166.521 117.25V112.25ZM170.271 116C170.271 113.929 168.592 112.25 166.521 112.25V117.25C165.831 117.25 165.271 116.69 165.271 116H170.271ZM170.271 128.737V116H165.271V128.737H170.271ZM157.521 141.487C164.563 141.487 170.271 135.778 170.271 128.737H165.271C165.271 133.017 161.802 136.487 157.521 136.487V141.487ZM90.5 141.487H157.521V136.487H90.5V141.487ZM77.75 128.737C77.75 135.778 83.4584 141.487 90.5 141.487V136.487C86.2198 136.487 82.75 133.017 82.75 128.737H77.75ZM77.75 69.9999V128.737H82.75V69.9999H77.75ZM80.8154 66.3129C79.0387 66.6428 77.75 68.1928 77.75 69.9999H82.75C82.75 70.6022 82.3204 71.1189 81.7282 71.2289L80.8154 66.3129Z" fill="#0DB774" mask="url(#path-4-inside-1_382_10552)"/>
<path d="M81.5 70.75C81.5 67.5744 84.0744 65 87.25 65H148C152.971 65 157 69.0294 157 74V76.5H87.25C84.0744 76.5 81.5 73.9256 81.5 70.75Z" fill="#F3FFFD" stroke="#0DB774" strokeWidth="2.5"/>
<path fillRule="evenodd" clipRule="evenodd" d="M107.955 82H91C88.7909 82 87 83.7909 87 86V129C87 131.209 88.7909 133 91 133H158C160.209 133 162 131.209 162 129V124.188C151.352 123.803 140.343 120.257 130.568 113.375C119.026 105.248 111.283 93.9337 107.955 82Z" fill="#F3FFFD"/>
<path d="M148 108C148 103.029 152.029 99 157 99H168C169.657 99 171 100.343 171 102V114C171 115.657 169.657 117 168 117H157C152.029 117 148 112.971 148 108Z" fill="white"/>
<path d="M149.25 108C149.25 103.72 152.72 100.25 157 100.25H168C168.966 100.25 169.75 101.034 169.75 102V114C169.75 114.966 168.966 115.75 168 115.75H157C152.72 115.75 149.25 112.28 149.25 108Z" stroke="#0DB774" strokeWidth="2.5"/>
<path d="M157 111C158.657 111 160 109.657 160 108C160 106.343 158.657 105 157 105C155.343 105 154 106.343 154 108C154 109.657 155.343 111 157 111Z" stroke="url(#paint1_linear_382_10552)" strokeWidth="2.5"/>
<line x1="90.25" y1="84.75" x2="158.75" y2="84.75" stroke="url(#paint2_linear_382_10552)" strokeWidth="2.5" strokeLinecap="round" stroke-dasharray="5 5"/>
<line x1="90.25" y1="129.75" x2="158.75" y2="129.75" stroke="url(#paint3_linear_382_10552)" strokeWidth="2.5" strokeLinecap="round" stroke-dasharray="5 5"/>
<path d="M137.048 58.3811L92 74.9534L147.535 75.301L142.183 60.7541C141.421 58.6808 139.122 57.6184 137.048 58.3811Z" fill="white"/>
<path fillRule="evenodd" clipRule="evenodd" d="M147.345 75.2998L144.999 71H104.999L94.5352 74.9692L147.345 75.2998Z" fill="#F3FFFD"/>
<path d="M92 74.9534L137.048 58.3811C139.122 57.6184 141.421 58.6808 142.183 60.7541L147.535 75.301" stroke="#0DB774" strokeWidth="2.5" strokeLinecap="round" strokeLinejoin="round"/>
</g>
<path d="M194.178 120.24L176.689 133.229L179.924 125.566L194.178 120.24Z" fill="#E2761B"/>
<path fillRule="evenodd" clipRule="evenodd" d="M194.256 120.198C194.277 120.236 194.266 120.284 194.231 120.31L176.742 133.3C176.71 133.323 176.666 133.323 176.635 133.298C176.604 133.274 176.593 133.231 176.608 133.195L179.843 125.531C179.852 125.509 179.87 125.492 179.893 125.483L194.148 120.157C194.189 120.142 194.235 120.159 194.256 120.198ZM179.99 125.635L176.896 132.966L193.628 120.539L179.99 125.635Z" fill="#E2761B"/>
<path d="M153.805 120.24L171.153 133.352L168.077 125.566L153.805 120.24ZM187.886 150.349L183.228 157.485L193.194 160.227L196.059 150.507L187.886 150.349ZM151.959 150.507L154.806 160.227L164.773 157.485L160.115 150.349L151.959 150.507Z" fill="#E4761B"/>
<path fillRule="evenodd" clipRule="evenodd" d="M153.728 120.197C153.749 120.159 153.794 120.142 153.835 120.157L168.108 125.483C168.131 125.492 168.15 125.51 168.159 125.533L171.235 133.32C171.249 133.356 171.237 133.398 171.206 133.422C171.175 133.446 171.131 133.446 171.1 133.422L153.752 120.31C153.717 120.284 153.707 120.236 153.728 120.197ZM154.338 120.532L170.956 133.093L168.01 125.634L154.338 120.532ZM160.113 150.261C160.143 150.261 160.172 150.276 160.188 150.301L164.846 157.437C164.861 157.461 164.865 157.49 164.855 157.516C164.845 157.543 164.823 157.562 164.796 157.57L154.83 160.312C154.783 160.325 154.736 160.298 154.722 160.252L151.875 150.532C151.867 150.506 151.872 150.477 151.888 150.455C151.904 150.433 151.93 150.42 151.957 150.419L160.113 150.261ZM187.813 150.301C187.829 150.276 187.858 150.261 187.888 150.261L196.061 150.419C196.089 150.42 196.114 150.433 196.13 150.455C196.147 150.477 196.151 150.506 196.144 150.532L193.279 160.252C193.265 160.298 193.217 160.325 193.171 160.312L183.205 157.57C183.178 157.562 183.156 157.543 183.146 157.516C183.136 157.49 183.139 157.461 183.155 157.437L187.813 150.301ZM152.076 150.593L154.866 160.12L164.633 157.432L160.068 150.438L152.076 150.593ZM187.933 150.438L183.368 157.432L193.134 160.12L195.943 150.593L187.933 150.438Z" fill="#E4761B"/>
<path d="M164.209 138.291L161.432 142.492L171.327 142.932L170.976 132.298L164.209 138.291ZM183.772 138.291L176.917 132.175L176.688 142.932L186.567 142.492L183.772 138.291ZM164.771 157.485L170.712 154.585L165.58 150.578L164.771 157.485ZM177.268 154.585L183.227 157.485L182.401 150.578L177.268 154.585Z" fill="#E4761B"/>
<path fillRule="evenodd" clipRule="evenodd" d="M176.882 132.094C176.913 132.08 176.95 132.086 176.975 132.109L183.83 138.226C183.836 138.231 183.841 138.236 183.845 138.243L186.64 142.444C186.657 142.47 186.659 142.504 186.645 142.532C186.631 142.56 186.602 142.579 186.571 142.58L176.692 143.019C176.668 143.02 176.644 143.011 176.627 142.994C176.61 142.977 176.6 142.954 176.601 142.93L176.829 132.173C176.83 132.138 176.85 132.108 176.882 132.094ZM177.001 132.367L176.778 142.84L186.407 142.411L183.705 138.349L177.001 132.367ZM171.011 132.217C171.042 132.23 171.063 132.261 171.064 132.295L171.415 142.929C171.416 142.953 171.407 142.977 171.389 142.994C171.372 143.011 171.348 143.021 171.324 143.019L161.428 142.58C161.396 142.579 161.368 142.56 161.353 142.532C161.339 142.504 161.341 142.47 161.358 142.444L164.135 138.243C164.14 138.236 164.145 138.231 164.151 138.226L170.918 132.232C170.943 132.209 170.979 132.203 171.011 132.217ZM164.276 138.349L161.59 142.411L171.236 142.84L170.894 132.487L164.276 138.349ZM165.546 150.496C165.575 150.484 165.609 150.489 165.634 150.508L170.766 154.516C170.79 154.534 170.803 154.564 170.8 154.594C170.796 154.624 170.778 154.651 170.751 154.664L164.81 157.564C164.781 157.578 164.747 157.576 164.72 157.557C164.694 157.538 164.68 157.507 164.684 157.475L165.492 150.567C165.496 150.536 165.517 150.509 165.546 150.496ZM182.435 150.496C182.464 150.509 182.484 150.536 182.488 150.567L183.314 157.475C183.318 157.507 183.304 157.538 183.278 157.557C183.252 157.576 183.217 157.578 183.189 157.564L177.23 154.664C177.203 154.651 177.184 154.624 177.181 154.594C177.178 154.564 177.19 154.534 177.214 154.516L182.347 150.508C182.372 150.489 182.405 150.484 182.435 150.496ZM165.649 150.743L164.877 157.336L170.547 154.568L165.649 150.743ZM177.433 154.568L183.121 157.336L182.332 150.743L177.433 154.568Z" fill="#E4761B"/>
<path d="M183.227 157.485L177.269 154.585L177.743 158.469L177.691 160.104L183.227 157.485ZM164.771 157.485L170.308 160.104L170.273 158.469L170.712 154.585L164.771 157.485Z" fill="#D7C1B3"/>
<path fillRule="evenodd" clipRule="evenodd" d="M177.218 154.513C177.244 154.495 177.278 154.492 177.307 154.506L183.266 157.406C183.296 157.421 183.315 157.452 183.315 157.486C183.315 157.519 183.295 157.55 183.265 157.565L177.728 160.184C177.7 160.197 177.668 160.194 177.642 160.178C177.617 160.161 177.602 160.132 177.603 160.101L177.655 158.473L177.181 154.596C177.178 154.564 177.191 154.532 177.218 154.513ZM170.763 154.513C170.789 154.532 170.803 154.563 170.8 154.595L170.361 158.473L170.396 160.102C170.397 160.133 170.382 160.161 170.356 160.178C170.33 160.194 170.298 160.197 170.271 160.184L164.734 157.565C164.703 157.55 164.684 157.519 164.684 157.486C164.683 157.452 164.703 157.421 164.733 157.406L170.674 154.506C170.703 154.492 170.737 154.495 170.763 154.513ZM177.375 154.735L177.83 158.459C177.831 158.463 177.831 158.468 177.831 158.472L177.783 159.963L183.024 157.484L177.375 154.735ZM164.974 157.484L170.217 159.964L170.185 158.471C170.185 158.467 170.185 158.463 170.186 158.46L170.607 154.734L164.974 157.484Z" fill="#D7C1B3"/>
<path d="M170.396 148.011L165.439 146.552L168.937 144.953L170.396 148.011ZM177.585 148.011L179.044 144.953L182.559 146.552L177.585 148.011Z" fill="#233447"/>
<path fillRule="evenodd" clipRule="evenodd" d="M168.901 144.873C168.944 144.853 168.996 144.872 169.017 144.915L170.475 147.973C170.49 148.005 170.486 148.042 170.463 148.068C170.441 148.095 170.405 148.105 170.371 148.096L165.415 146.637C165.379 146.626 165.354 146.595 165.352 146.559C165.349 146.522 165.37 146.488 165.403 146.472L168.901 144.873ZM178.965 144.915C178.985 144.872 179.037 144.853 179.08 144.873L182.596 146.472C182.629 146.488 182.65 146.522 182.647 146.559C182.644 146.595 182.619 146.626 182.584 146.637L177.61 148.096C177.577 148.105 177.541 148.095 177.518 148.068C177.496 148.042 177.491 148.005 177.506 147.973L178.965 144.915ZM179.086 145.069L177.749 147.872L182.308 146.535L179.086 145.069ZM165.69 146.534L170.232 147.871L168.895 145.069L165.69 146.534Z" fill="#233447"/>
<path d="M164.771 157.485L165.615 150.349L160.113 150.507L164.771 157.485ZM182.383 150.349L183.227 157.485L187.885 150.507L182.383 150.349ZM186.567 142.492L176.688 142.932L177.602 148.011L179.061 144.953L182.577 146.552L186.567 142.492ZM165.439 146.552L168.954 144.953L170.396 148.011L171.327 142.932L161.432 142.492L165.439 146.552Z" fill="#CD6116"/>
<path fillRule="evenodd" clipRule="evenodd" d="M161.353 142.456C161.368 142.423 161.401 142.403 161.437 142.404L171.333 142.844C171.359 142.845 171.382 142.857 171.398 142.877C171.414 142.897 171.42 142.922 171.416 142.947L170.484 148.027C170.477 148.065 170.447 148.094 170.409 148.098C170.371 148.103 170.334 148.083 170.318 148.049L168.914 145.069L165.477 146.632C165.444 146.648 165.404 146.64 165.378 146.614L161.371 142.554C161.346 142.528 161.339 142.49 161.353 142.456ZM186.649 142.456C186.663 142.489 186.656 142.528 186.631 142.554L182.641 146.614C182.615 146.64 182.576 146.648 182.542 146.632L179.105 145.069L177.684 148.049C177.667 148.084 177.63 148.104 177.593 148.098C177.555 148.093 177.525 148.064 177.518 148.027L176.604 142.947C176.599 142.922 176.606 142.897 176.622 142.877C176.637 142.857 176.661 142.845 176.686 142.844L186.565 142.404C186.601 142.403 186.634 142.423 186.649 142.456ZM161.653 142.59L165.46 146.447L168.92 144.873C168.964 144.853 169.015 144.872 169.036 144.915L170.361 147.726L171.225 143.015L161.653 142.59ZM176.795 143.015L177.642 147.727L178.984 144.915C179.004 144.872 179.056 144.853 179.1 144.873L182.559 146.447L186.349 142.59L176.795 143.015ZM165.682 150.29C165.699 150.309 165.707 150.334 165.704 150.359L164.86 157.496C164.856 157.532 164.829 157.562 164.794 157.571C164.758 157.579 164.72 157.565 164.7 157.534L160.042 150.556C160.024 150.529 160.022 150.495 160.037 150.467C160.052 150.439 160.081 150.42 160.113 150.419L165.614 150.261C165.64 150.26 165.664 150.271 165.682 150.29ZM182.32 150.29C182.338 150.271 182.362 150.26 182.388 150.261L187.889 150.419C187.921 150.42 187.95 150.439 187.965 150.467C187.979 150.495 187.978 150.529 187.96 150.556L183.302 157.534C183.282 157.565 183.244 157.579 183.208 157.571C183.173 157.562 183.146 157.532 183.142 157.496L182.298 150.359C182.295 150.334 182.303 150.309 182.32 150.29ZM160.276 150.591L164.714 157.238L165.518 150.44L160.276 150.591ZM182.484 150.44L183.288 157.238L187.725 150.591L182.484 150.44Z" fill="#CD6116"/>
<path d="M161.432 142.492L165.58 150.578L165.439 146.552L161.432 142.492ZM182.577 146.552L182.401 150.578L186.567 142.492L182.577 146.552ZM171.327 142.932L170.396 148.011L171.556 154.005L171.82 146.113L171.327 142.932ZM176.688 142.932L176.214 146.095L176.425 154.005L177.602 148.011L176.688 142.932Z" fill="#E4751F"/>
<path fillRule="evenodd" clipRule="evenodd" d="M186.618 142.421C186.653 142.446 186.665 142.494 186.645 142.532L182.479 150.618C182.46 150.655 182.418 150.673 182.378 150.662C182.338 150.652 182.311 150.615 182.313 150.574L182.489 146.549C182.49 146.527 182.499 146.506 182.514 146.491L186.504 142.431C186.534 142.4 186.583 142.396 186.618 142.421ZM161.38 142.421C161.415 142.396 161.464 142.4 161.494 142.43L165.502 146.491C165.517 146.506 165.526 146.527 165.527 146.549L165.668 150.574C165.669 150.616 165.642 150.652 165.602 150.663C165.562 150.673 165.52 150.654 165.502 150.618L161.353 142.532C161.334 142.494 161.345 142.446 161.38 142.421ZM161.771 142.961L165.478 150.187L165.353 146.59L161.771 142.961ZM182.663 146.59L182.506 150.181L186.223 142.967L182.663 146.59ZM171.329 142.844C171.372 142.844 171.408 142.876 171.414 142.918L171.906 146.1C171.907 146.105 171.908 146.11 171.907 146.116L171.644 154.008C171.642 154.053 171.607 154.089 171.563 154.093C171.518 154.096 171.478 154.066 171.47 154.022L170.31 148.028C170.307 148.017 170.307 148.006 170.309 147.995L171.241 142.916C171.249 142.874 171.286 142.843 171.329 142.844ZM176.687 142.844C176.73 142.843 176.767 142.874 176.775 142.916L177.689 147.996C177.691 148.007 177.691 148.018 177.689 148.028L176.511 154.022C176.502 154.066 176.462 154.096 176.417 154.093C176.373 154.089 176.338 154.052 176.337 154.007L176.126 146.098C176.126 146.093 176.126 146.087 176.127 146.082L176.601 142.919C176.608 142.876 176.644 142.844 176.687 142.844ZM170.485 148.011L171.494 153.223L171.731 146.118L171.32 143.459L170.485 148.011ZM176.696 143.472L176.302 146.101L176.491 153.21L177.513 148.011L176.696 143.472Z" fill="#E4751F"/>
<path d="M177.603 148.011L176.425 154.005L177.269 154.585L182.401 150.578L182.577 146.552L177.603 148.011ZM165.439 146.552L165.58 150.578L170.713 154.585L171.556 154.005L170.396 148.011L165.439 146.552Z" fill="#F6851B"/>
<path fillRule="evenodd" clipRule="evenodd" d="M182.631 146.483C182.653 146.501 182.666 146.528 182.665 146.556L182.489 150.581C182.488 150.607 182.476 150.631 182.455 150.647L177.323 154.654C177.293 154.678 177.251 154.679 177.219 154.658L176.375 154.078C176.346 154.058 176.332 154.023 176.339 153.988L177.516 147.994C177.523 147.962 177.546 147.936 177.578 147.927L182.552 146.468C182.579 146.46 182.609 146.466 182.631 146.483ZM165.386 146.483C165.408 146.466 165.437 146.46 165.464 146.468L170.421 147.927C170.452 147.936 170.476 147.962 170.482 147.995L171.642 153.988C171.649 154.023 171.635 154.058 171.606 154.078L170.762 154.658C170.731 154.679 170.689 154.678 170.658 154.654L165.526 150.647C165.505 150.631 165.493 150.607 165.492 150.581L165.352 146.556C165.351 146.527 165.363 146.5 165.386 146.483ZM177.679 148.081L176.522 153.965L177.265 154.476L182.315 150.533L182.484 146.671L177.679 148.081ZM165.532 146.671L170.32 148.081L171.459 153.965L170.716 154.476L165.666 150.534L165.532 146.671Z" fill="#F6851B"/>
<path d="M177.691 160.104L177.743 158.47L177.304 158.083H170.677L170.273 158.47L170.308 160.104L164.771 157.485L166.705 159.067L170.625 161.792H177.357L181.294 159.067L183.227 157.485L177.691 160.104Z" fill="#C0AD9E"/>
<path fillRule="evenodd" clipRule="evenodd" d="M164.697 157.438C164.721 157.401 164.769 157.387 164.809 157.406L170.217 159.964L170.185 158.472C170.185 158.447 170.194 158.423 170.212 158.406L170.617 158.019C170.633 158.004 170.655 157.995 170.677 157.995H177.304C177.325 157.995 177.346 158.003 177.362 158.017L177.801 158.404C177.821 158.421 177.832 158.446 177.831 158.472L177.783 159.963L183.19 157.406C183.23 157.387 183.278 157.401 183.302 157.438C183.325 157.476 183.317 157.525 183.283 157.553L181.349 159.135C181.348 159.137 181.346 159.138 181.344 159.14L177.407 161.864C177.392 161.874 177.374 161.88 177.357 161.88H170.625C170.607 161.88 170.589 161.874 170.574 161.864L166.655 159.139C166.653 159.138 166.651 159.137 166.649 159.135L164.716 157.553C164.681 157.525 164.673 157.476 164.697 157.438ZM165.382 157.871L166.758 158.997L170.652 161.704H177.329L181.241 158.997L182.617 157.871L177.728 160.184C177.7 160.197 177.668 160.195 177.642 160.178C177.617 160.161 177.602 160.132 177.603 160.101L177.654 158.508L177.271 158.171H170.713L170.362 158.506L170.396 160.102C170.397 160.133 170.382 160.161 170.356 160.178C170.33 160.195 170.298 160.197 170.271 160.184L165.382 157.871Z" fill="#C0AD9E"/>
<path d="M177.269 154.585L176.425 154.005H171.557L170.713 154.585L170.273 158.47L170.678 158.083H177.304L177.744 158.47L177.269 154.585Z" fill="#161616"/>
<path fillRule="evenodd" clipRule="evenodd" d="M171.507 153.933C171.521 153.923 171.539 153.917 171.557 153.917H176.425C176.443 153.917 176.46 153.923 176.475 153.933L177.319 154.513C177.34 154.527 177.353 154.549 177.356 154.574L177.831 158.459C177.835 158.495 177.817 158.53 177.785 158.547C177.752 158.564 177.713 158.56 177.686 158.536L177.271 158.171H170.713L170.334 158.533C170.307 158.559 170.268 158.565 170.234 158.548C170.201 158.532 170.182 158.497 170.186 158.46L170.626 154.575C170.628 154.55 170.642 154.527 170.663 154.513L171.507 153.933ZM171.584 154.093L170.796 154.635L170.388 158.238L170.617 158.019C170.633 158.004 170.655 157.995 170.678 157.995H177.304C177.326 157.995 177.346 158.003 177.362 158.017L177.628 158.251L177.187 154.635L176.398 154.093H171.584Z" fill="#161616"/>
<path d="M194.917 134.073L196.411 126.901L194.179 120.24L177.27 132.79L183.773 138.291L192.966 140.98L195.005 138.608L194.126 137.975L195.532 136.692L194.442 135.848L195.848 134.776L194.917 134.073ZM151.59 126.901L153.084 134.073L152.135 134.776L153.541 135.848L152.469 136.692L153.875 137.975L152.996 138.608L155.017 140.98L164.21 138.291L170.714 132.79L153.805 120.24L151.59 126.901Z" fill="#763D16"/>
<path fillRule="evenodd" clipRule="evenodd" d="M153.778 120.156C153.805 120.147 153.834 120.152 153.857 120.169L170.766 132.719C170.787 132.735 170.8 132.76 170.801 132.787C170.802 132.814 170.791 132.839 170.77 132.857L164.267 138.358C164.257 138.366 164.247 138.372 164.235 138.376L155.042 141.065C155.009 141.075 154.973 141.064 154.95 141.037L152.929 138.665C152.913 138.646 152.906 138.621 152.909 138.597C152.912 138.573 152.925 138.551 152.945 138.536L153.736 137.967L152.409 136.757C152.39 136.739 152.38 136.714 152.381 136.689C152.382 136.663 152.394 136.639 152.414 136.623L153.397 135.849L152.081 134.846C152.059 134.829 152.047 134.803 152.047 134.775C152.047 134.748 152.06 134.722 152.082 134.705L152.986 134.036L151.504 126.919C151.501 126.904 151.502 126.888 151.506 126.874L153.721 120.212C153.73 120.185 153.751 120.164 153.778 120.156ZM194.205 120.156C194.232 120.164 194.253 120.185 194.262 120.212L196.494 126.873C196.499 126.888 196.5 126.904 196.497 126.919L195.014 134.036L195.901 134.706C195.923 134.722 195.936 134.748 195.936 134.776C195.936 134.803 195.924 134.829 195.902 134.846L194.587 135.849L195.586 136.622C195.606 136.638 195.619 136.662 195.62 136.688C195.621 136.714 195.61 136.739 195.591 136.757L194.265 137.967L195.056 138.536C195.076 138.551 195.089 138.573 195.092 138.597C195.095 138.622 195.087 138.646 195.071 138.665L193.033 141.038C193.01 141.064 192.974 141.075 192.941 141.065L183.748 138.376C183.737 138.372 183.726 138.366 183.716 138.358L177.213 132.857C177.192 132.839 177.181 132.814 177.182 132.787C177.183 132.76 177.196 132.735 177.217 132.719L194.126 120.169C194.149 120.152 194.178 120.147 194.205 120.156ZM177.411 132.794L183.816 138.212L192.936 140.88L194.876 138.623L194.075 138.046C194.053 138.031 194.04 138.006 194.038 137.98C194.037 137.953 194.047 137.928 194.067 137.91L195.396 136.697L194.389 135.918C194.367 135.901 194.354 135.875 194.354 135.848C194.355 135.82 194.367 135.795 194.389 135.778L195.703 134.776L194.864 134.143C194.837 134.122 194.824 134.088 194.831 134.055L196.32 126.907L194.134 120.382L177.411 132.794ZM153.85 120.383L151.681 126.907L153.17 134.055C153.177 134.088 153.164 134.123 153.136 134.143L152.281 134.777L153.594 135.778C153.616 135.795 153.629 135.82 153.629 135.847C153.629 135.875 153.617 135.9 153.595 135.917L152.604 136.697L153.934 137.91C153.954 137.928 153.964 137.953 153.963 137.98C153.961 138.006 153.948 138.031 153.926 138.046L153.125 138.623L155.047 140.88L164.168 138.212L170.572 132.794L153.85 120.383Z" fill="#763D16"/>
<path d="M192.966 140.981L183.773 138.291L186.568 142.492L182.402 150.578L187.886 150.507H196.059L192.966 140.981ZM164.21 138.291L155.017 140.981L151.959 150.507H160.115L165.581 150.578L161.433 142.492L164.21 138.291ZM176.69 142.932L177.27 132.79L179.941 125.566H168.077L170.714 132.79L171.329 142.932L171.54 146.131L171.557 154.005H176.426L176.461 146.131L176.69 142.932Z" fill="#F6851B"/>
<path fillRule="evenodd" clipRule="evenodd" d="M168.005 125.515C168.021 125.492 168.048 125.478 168.077 125.478H179.941C179.97 125.478 179.997 125.492 180.014 125.515C180.03 125.539 180.034 125.569 180.024 125.596L177.357 132.808L176.777 142.937L176.777 142.938L176.549 146.134L176.514 154.005C176.514 154.054 176.474 154.093 176.426 154.093H171.557C171.509 154.093 171.469 154.054 171.469 154.005L171.452 146.134L171.241 142.937L171.241 142.937L170.627 132.808L167.994 125.596C167.985 125.569 167.989 125.539 168.005 125.515ZM168.203 125.654L170.796 132.76C170.799 132.768 170.801 132.776 170.801 132.784L171.416 142.926L171.416 142.926L171.627 146.125C171.627 146.127 171.628 146.129 171.628 146.13L171.645 153.917H176.339L176.373 146.13C176.373 146.128 176.373 146.126 176.374 146.124L176.602 142.927L176.602 142.925L177.182 132.785C177.182 132.776 177.184 132.767 177.187 132.759L179.815 125.654H168.203ZM164.281 138.239C164.303 138.269 164.304 138.309 164.283 138.34L161.535 142.498L165.659 150.537C165.673 150.565 165.672 150.598 165.656 150.624C165.64 150.65 165.611 150.666 165.58 150.665L160.115 150.595H151.959C151.931 150.595 151.905 150.582 151.888 150.559C151.871 150.536 151.867 150.507 151.875 150.48L154.934 140.954C154.943 140.926 154.965 140.904 154.993 140.896L164.185 138.207C164.221 138.197 164.259 138.209 164.281 138.239ZM183.702 138.239C183.724 138.21 183.762 138.197 183.798 138.207L192.991 140.896C193.018 140.904 193.041 140.926 193.049 140.953L196.143 150.48C196.152 150.507 196.147 150.536 196.131 150.559C196.114 150.582 196.088 150.595 196.059 150.595H187.886L182.403 150.665C182.372 150.666 182.344 150.65 182.327 150.624C182.311 150.598 182.31 150.565 182.324 150.537L186.466 142.498L183.7 138.34C183.68 138.309 183.68 138.269 183.702 138.239ZM155.087 141.052L152.079 150.419H160.116L165.436 150.488L161.355 142.532C161.34 142.504 161.342 142.47 161.36 142.444L164.004 138.443L155.087 141.052ZM183.98 138.443L186.641 142.444C186.659 142.47 186.661 142.504 186.646 142.532L182.547 150.488L187.885 150.419L187.886 150.419L195.938 150.419L192.897 141.052L183.98 138.443Z" fill="#F6851B"/>
<path d="M138.885 175.818H141.54L144.344 182.659H144.463L147.267 175.818H149.922V186H147.834V179.373H147.749L145.114 185.95H143.692L141.058 179.348H140.973V186H138.885V175.818ZM155.136 186.149C154.35 186.149 153.674 185.99 153.107 185.672C152.544 185.35 152.11 184.896 151.805 184.31C151.5 183.72 151.347 183.022 151.347 182.217C151.347 181.431 151.5 180.742 151.805 180.148C152.11 179.555 152.539 179.093 153.093 178.761C153.649 178.43 154.302 178.264 155.051 178.264C155.555 178.264 156.024 178.345 156.458 178.508C156.896 178.667 157.277 178.907 157.602 179.229C157.93 179.55 158.185 179.955 158.367 180.442C158.55 180.926 158.641 181.492 158.641 182.142V182.724H152.193V181.411H156.647C156.647 181.106 156.581 180.836 156.448 180.601C156.316 180.366 156.132 180.182 155.896 180.049C155.664 179.913 155.394 179.845 155.086 179.845C154.765 179.845 154.48 179.92 154.231 180.069C153.986 180.215 153.794 180.412 153.654 180.661C153.515 180.906 153.444 181.179 153.441 181.481V182.729C153.441 183.107 153.51 183.433 153.649 183.708C153.792 183.983 153.992 184.195 154.251 184.344C154.509 184.494 154.816 184.568 155.171 184.568C155.406 184.568 155.621 184.535 155.817 184.469C156.012 184.402 156.18 184.303 156.319 184.17C156.458 184.038 156.564 183.875 156.637 183.683L158.596 183.812C158.497 184.283 158.293 184.694 157.985 185.045C157.68 185.393 157.285 185.665 156.801 185.861C156.321 186.053 155.766 186.149 155.136 186.149ZM164.085 178.364V179.955H159.486V178.364H164.085ZM160.53 176.534H162.648V183.653C162.648 183.849 162.678 184.001 162.737 184.111C162.797 184.217 162.88 184.291 162.986 184.335C163.095 184.378 163.221 184.399 163.364 184.399C163.463 184.399 163.563 184.391 163.662 184.374C163.762 184.354 163.838 184.339 163.891 184.33L164.224 185.906C164.118 185.939 163.969 185.977 163.776 186.02C163.584 186.066 163.351 186.094 163.075 186.104C162.565 186.124 162.118 186.056 161.733 185.901C161.352 185.745 161.055 185.503 160.843 185.175C160.631 184.847 160.527 184.432 160.53 183.932V176.534ZM167.642 186.144C167.155 186.144 166.72 186.06 166.339 185.891C165.958 185.718 165.657 185.465 165.434 185.13C165.216 184.792 165.106 184.371 165.106 183.867C165.106 183.443 165.184 183.087 165.34 182.798C165.496 182.51 165.708 182.278 165.976 182.102C166.245 181.927 166.55 181.794 166.891 181.705C167.236 181.615 167.597 181.552 167.975 181.516C168.419 181.469 168.777 181.426 169.049 181.386C169.321 181.343 169.518 181.28 169.64 181.197C169.763 181.115 169.824 180.992 169.824 180.83V180.8C169.824 180.485 169.725 180.241 169.526 180.069C169.331 179.897 169.052 179.81 168.691 179.81C168.31 179.81 168.006 179.895 167.781 180.064C167.556 180.23 167.407 180.438 167.334 180.69L165.375 180.531C165.474 180.067 165.67 179.666 165.961 179.328C166.253 178.987 166.629 178.725 167.09 178.543C167.554 178.357 168.091 178.264 168.701 178.264C169.125 178.264 169.531 178.314 169.919 178.413C170.31 178.513 170.656 178.667 170.958 178.876C171.263 179.085 171.503 179.353 171.679 179.681C171.854 180.006 171.942 180.395 171.942 180.849V186H169.934V184.941H169.874C169.751 185.18 169.587 185.39 169.382 185.572C169.176 185.751 168.93 185.892 168.641 185.995C168.353 186.094 168.02 186.144 167.642 186.144ZM168.248 184.683C168.56 184.683 168.835 184.621 169.074 184.499C169.312 184.373 169.5 184.204 169.635 183.991C169.771 183.779 169.839 183.539 169.839 183.271V182.46C169.773 182.503 169.682 182.543 169.566 182.58C169.453 182.613 169.326 182.644 169.183 182.674C169.041 182.701 168.898 182.725 168.756 182.749C168.613 182.768 168.484 182.787 168.368 182.803C168.119 182.84 167.902 182.898 167.716 182.977C167.531 183.057 167.387 183.165 167.284 183.3C167.181 183.433 167.13 183.599 167.13 183.798C167.13 184.086 167.234 184.306 167.443 184.459C167.655 184.608 167.924 184.683 168.248 184.683ZM173.585 186V178.364H175.604V179.711H175.693C175.852 179.263 176.118 178.911 176.489 178.652C176.86 178.393 177.304 178.264 177.821 178.264C178.345 178.264 178.791 178.395 179.159 178.657C179.526 178.915 179.772 179.267 179.894 179.711H179.974C180.13 179.273 180.411 178.924 180.819 178.662C181.23 178.397 181.716 178.264 182.276 178.264C182.988 178.264 183.567 178.491 184.011 178.945C184.458 179.396 184.682 180.036 184.682 180.864V186H182.569V181.282C182.569 180.858 182.456 180.54 182.231 180.327C182.006 180.115 181.724 180.009 181.386 180.009C181.001 180.009 180.701 180.132 180.486 180.377C180.271 180.619 180.163 180.939 180.163 181.337V186H178.11V181.237C178.11 180.863 178.002 180.564 177.786 180.342C177.574 180.12 177.294 180.009 176.946 180.009C176.711 180.009 176.499 180.069 176.31 180.188C176.124 180.304 175.977 180.468 175.867 180.68C175.758 180.889 175.703 181.134 175.703 181.416V186H173.585ZM188.532 186.144C188.045 186.144 187.611 186.06 187.23 185.891C186.849 185.718 186.547 185.465 186.325 185.13C186.106 184.792 185.997 184.371 185.997 183.867C185.997 183.443 186.075 183.087 186.231 182.798C186.386 182.51 186.599 182.278 186.867 182.102C187.135 181.927 187.44 181.794 187.782 181.705C188.126 181.615 188.488 181.552 188.866 181.516C189.31 181.469 189.668 181.426 189.939 181.386C190.211 181.343 190.408 181.28 190.531 181.197C190.654 181.115 190.715 180.992 190.715 180.83V180.8C190.715 180.485 190.616 180.241 190.417 180.069C190.221 179.897 189.943 179.81 189.581 179.81C189.2 179.81 188.897 179.895 188.672 180.064C188.446 180.23 188.297 180.438 188.224 180.69L186.265 180.531C186.365 180.067 186.56 179.666 186.852 179.328C187.144 178.987 187.52 178.725 187.981 178.543C188.445 178.357 188.982 178.264 189.591 178.264C190.016 178.264 190.422 178.314 190.809 178.413C191.201 178.513 191.547 178.667 191.849 178.876C192.153 179.085 192.394 179.353 192.569 179.681C192.745 180.006 192.833 180.395 192.833 180.849V186H190.824V184.941H190.765C190.642 185.18 190.478 185.39 190.273 185.572C190.067 185.751 189.82 185.892 189.532 185.995C189.243 186.094 188.91 186.144 188.532 186.144ZM189.139 184.683C189.451 184.683 189.726 184.621 189.964 184.499C190.203 184.373 190.39 184.204 190.526 183.991C190.662 183.779 190.73 183.539 190.73 183.271V182.46C190.664 182.503 190.573 182.543 190.456 182.58C190.344 182.613 190.216 182.644 190.074 182.674C189.931 182.701 189.789 182.725 189.646 182.749C189.504 182.768 189.374 182.787 189.258 182.803C189.01 182.84 188.793 182.898 188.607 182.977C188.421 183.057 188.277 183.165 188.175 183.3C188.072 183.433 188.02 183.599 188.02 183.798C188.02 184.086 188.125 184.306 188.334 184.459C188.546 184.608 188.814 184.683 189.139 184.683ZM200.83 180.541L198.891 180.661C198.858 180.495 198.786 180.346 198.677 180.213C198.568 180.077 198.423 179.969 198.244 179.89C198.069 179.807 197.858 179.766 197.613 179.766C197.285 179.766 197.008 179.835 196.783 179.974C196.557 180.11 196.445 180.293 196.445 180.521C196.445 180.704 196.518 180.858 196.664 180.984C196.809 181.11 197.06 181.211 197.414 181.287L198.796 181.565C199.539 181.718 200.092 181.963 200.457 182.301C200.821 182.639 201.004 183.083 201.004 183.634C201.004 184.134 200.856 184.573 200.561 184.951C200.27 185.329 199.869 185.624 199.358 185.836C198.851 186.045 198.266 186.149 197.603 186.149C196.592 186.149 195.787 185.939 195.187 185.518C194.59 185.094 194.241 184.517 194.138 183.788L196.221 183.678C196.284 183.987 196.436 184.222 196.678 184.384C196.92 184.543 197.23 184.623 197.608 184.623C197.979 184.623 198.278 184.552 198.503 184.409C198.732 184.263 198.848 184.076 198.851 183.847C198.848 183.655 198.767 183.498 198.607 183.375C198.448 183.249 198.203 183.153 197.872 183.087L196.549 182.823C195.803 182.674 195.248 182.415 194.884 182.048C194.522 181.68 194.342 181.211 194.342 180.641C194.342 180.15 194.474 179.728 194.74 179.373C195.008 179.018 195.384 178.745 195.868 178.553C196.355 178.36 196.925 178.264 197.578 178.264C198.543 178.264 199.302 178.468 199.855 178.876C200.412 179.283 200.737 179.839 200.83 180.541ZM204.256 183.803L204.261 181.262H204.57L207.016 178.364H209.447L206.161 182.202H205.658L204.256 183.803ZM202.337 186V175.818H204.455V186H202.337ZM207.11 186L204.863 182.674L206.275 181.178L209.591 186H207.11Z" fill="#1C1C1C"/>
<defs>
<linearGradient id="paint0_linear_382_10552" x1="127.001" y1="134.014" x2="126.991" y2="63.9843" gradientUnits="userSpaceOnUse">
<stop stopColor="#F0EEFF" stopOpacity="0"/>
<stop offset="0.5001" stopColor="#E9E8FD" stopOpacity="0.5001"/>
<stop offset="1" stopColor="#DDDCF9"/>
</linearGradient>
<linearGradient id="paint1_linear_382_10552" x1="154.001" y1="108" x2="160" y2="108" gradientUnits="userSpaceOnUse">
<stop stopColor="#00FF7C"/>
<stop offset="1" stopColor="#00C4FF"/>
</linearGradient>
<linearGradient id="paint2_linear_382_10552" x1="89.008" y1="86.5" x2="160" y2="86.5" gradientUnits="userSpaceOnUse">
<stop stopColor="#00FF7C"/>
<stop offset="1" stopColor="#00C4FF"/>
</linearGradient>
<linearGradient id="paint3_linear_382_10552" x1="89.008" y1="131.5" x2="160" y2="131.5" gradientUnits="userSpaceOnUse">
<stop stopColor="#00FF7C"/>
<stop offset="1" stopColor="#00C4FF"/>
</linearGradient>
<clipPath id="clip0_382_10552">
<rect width="250" height="200" fill="white"/>
</clipPath>
</defs>
</svg>
