<svg width="24" height="24" viewBox="0 0 24 24" fill="none" xmlns="http://www.w3.org/2000/svg">
<path d="M6.00156 14.4016L3.60156 14.4016C2.93882 14.4016 2.40156 13.8643 2.40156 13.2016L2.40156 4.40157C2.40156 3.297 3.29699 2.40157 4.40156 2.40157L13.2016 2.40157C13.8643 2.40157 14.4016 2.93882 14.4016 3.60157L14.4016 6.00157M12.0016 21.6016L19.2016 21.6016C20.527 21.6016 21.6016 20.527 21.6016 19.2016L21.6016 12.0016C21.6016 10.6761 20.527 9.60156 19.2016 9.60156L12.0016 9.60156C10.6761 9.60156 9.60156 10.6761 9.60156 12.0016L9.60156 19.2016C9.60156 20.527 10.6761 21.6016 12.0016 21.6016Z" stroke="#B6B6B6" stroke-width="2" stroke-linecap="round"/>
</svg>
