<svg xmlns="http://www.w3.org/2000/svg" width="16" height="16" viewBox="0 0 16 16" fill="none">
<path fill-rule="evenodd" clip-rule="evenodd" d="M1.33203 8.00016C1.33203 4.31826 4.3168 1.3335 7.9987 1.3335C11.6806 1.3335 14.6654 4.31826 14.6654 8.00016C14.6654 11.6821 11.6806 14.6668 7.9987 14.6668C4.3168 14.6668 1.33203 11.6821 1.33203 8.00016ZM7.9987 4.66683C8.36689 4.66683 8.66536 4.96531 8.66536 5.3335V8.00016C8.66536 8.36835 8.36689 8.66683 7.9987 8.66683C7.63051 8.66683 7.33203 8.36835 7.33203 8.00016V5.3335C7.33203 4.96531 7.63051 4.66683 7.9987 4.66683ZM7.33203 10.6668C7.33203 10.2986 7.63051 10.0002 7.9987 10.0002C8.36689 10.0002 8.66536 10.2986 8.66536 10.6668C8.66536 11.035 8.36689 11.3335 7.9987 11.3335C7.63051 11.3335 7.33203 11.035 7.33203 10.6668Z" fill="#FF4747"/>
</svg>