<svg width="602" height="204" viewBox="0 0 602 204" fill="none" xmlns="http://www.w3.org/2000/svg">
<rect x="176" width="250" height="200" fill="white"/>
<path fill-rule="evenodd" clip-rule="evenodd" d="M239 134H330C330.515 134 331.017 133.944 331.5 133.839C331.983 133.944 332.485 134 333 134H385C388.866 134 392 130.866 392 127C392 123.134 388.866 120 385 120H379C375.134 120 372 116.866 372 113C372 109.134 375.134 106 379 106H398C401.866 106 405 102.866 405 99C405 95.134 401.866 92 398 92H376C379.866 92 383 88.866 383 85C383 81.134 379.866 78 376 78H312C315.866 78 319 74.866 319 71C319 67.134 315.866 64 312 64H255C251.134 64 248 67.134 248 71C248 74.866 251.134 78 255 78H215C211.134 78 208 81.134 208 85C208 88.866 211.134 92 215 92H240C243.866 92 247 95.134 247 99C247 102.866 243.866 106 240 106H200C196.134 106 193 109.134 193 113C193 116.866 196.134 120 200 120H239C235.134 120 232 123.134 232 127C232 130.866 235.134 134 239 134ZM402 134C405.866 134 409 130.866 409 127C409 123.134 405.866 120 402 120C398.134 120 395 123.134 395 127C395 130.866 398.134 134 402 134Z" fill="url(#paint0_linear_3522_88302)"/>
<path fill-rule="evenodd" clip-rule="evenodd" d="M268 140C255.85 140 246 130.374 246 118.5C246 106.626 255.85 97 268 97C268.517 97 269.029 97.0174 269.537 97.0517C269.184 95.0878 269 93.0654 269 91C269 72.2223 284.222 57 303 57C317.991 57 330.716 66.702 335.239 80.1695C336.31 80.0575 337.398 80 338.5 80C355.345 80 369 93.4315 369 110C369 125.741 356.675 138.727 341 139.978V140H284.508H268ZM279.996 140H273.031H279.996Z" fill="white"/>
<path d="M279.996 140H273.031M268 140C255.85 140 246 130.374 246 118.5C246 106.626 255.85 97 268 97C268.517 97 269.029 97.0174 269.537 97.0517C269.184 95.0878 269 93.0654 269 91C269 72.2223 284.222 57 303 57C317.991 57 330.716 66.702 335.239 80.1695C336.31 80.0575 337.398 80 338.5 80C355.345 80 369 93.4315 369 110C369 125.741 356.675 138.727 341 139.978V140H284.508H268Z" stroke="#0DB774" stroke-width="2.5" stroke-linecap="round"/>
<path fill-rule="evenodd" clip-rule="evenodd" d="M292.612 64.3426C292.612 96.5657 321.633 123.118 359 126.703C354.317 132.461 347.086 136.368 338.847 136.981V137H271.743C263.601 137 250 133.57 250 118.548C250 103.527 260.574 100.097 271.743 100.097C272.218 100.097 272.689 100.112 273.156 100.141C272.832 98.4556 272.775 96.7184 272.662 94.9474C271.904 82.9842 277.123 67.907 292.63 63C292.618 63.4473 292.612 63.8944 292.612 64.3426ZM303.116 114.758C300.078 114.758 297.614 117.192 297.614 120.195C297.614 123.198 300.078 125.632 303.116 125.632C306.155 125.632 308.618 123.198 308.618 120.195C308.618 117.192 306.155 114.758 303.116 114.758Z" fill="#F3FFFD"/>
<path d="M303.5 126C306.538 126 309 123.538 309 120.5C309 117.462 306.538 115 303.5 115C300.462 115 298 117.462 298 120.5C298 123.538 300.462 126 303.5 126Z" stroke="#0DB774" stroke-width="2.5"/>
<path d="M288 109L295 103.507L288 98.2773" stroke="#0DB774" stroke-width="2.5" stroke-linecap="round" stroke-linejoin="round"/>
<path d="M319 109L312 103.507L319 98.2773" stroke="#0DB774" stroke-width="2.5" stroke-linecap="round" stroke-linejoin="round"/>
<path d="M313 67C319.509 68.7226 324.648 73.8129 326.44 80.2932" stroke="url(#paint1_linear_3522_88302)" stroke-width="2.5" stroke-linecap="round"/>
<path d="M334 50C335.657 50 337 48.6569 337 47C337 45.3431 335.657 44 334 44C332.343 44 331 45.3431 331 47C331 48.6569 332.343 50 334 50Z" stroke="url(#paint2_linear_3522_88302)" stroke-width="2"/>
<path d="M365 66C366.657 66 368 64.6569 368 63C368 61.3431 366.657 60 365 60C363.343 60 362 61.3431 362 63C362 64.6569 363.343 66 365 66Z" fill="url(#paint3_linear_3522_88302)"/>
<path d="M341.757 57.7573L350.116 66.1156M350.243 57.7573L341.884 66.1156L350.243 57.7573Z" stroke="url(#paint4_linear_3522_88302)" stroke-width="2.5" stroke-linecap="round" stroke-linejoin="round"/>
<path d="M247.404 75.5962L253.404 81.5962M253.404 75.5962L247.404 81.5962L253.404 75.5962Z" stroke="url(#paint5_linear_3522_88302)" stroke-width="2.5" stroke-linecap="round" stroke-linejoin="round"/>
<path d="M261 69C262.657 69 264 67.6569 264 66C264 64.3431 262.657 63 261 63C259.343 63 258 64.3431 258 66C258 67.6569 259.343 69 261 69Z" fill="url(#paint6_linear_3522_88302)"/>
<path d="M126.848 190.384L122.24 183.4H124.112L127.658 188.908L131.204 183.4H133.04L128.45 190.384V196H126.848V190.384ZM133.566 188.386C134.442 187.498 135.534 187.054 136.842 187.054C138.15 187.054 139.236 187.498 140.1 188.386C140.976 189.262 141.414 190.342 141.414 191.626C141.414 192.91 140.976 193.996 140.1 194.884C139.236 195.76 138.15 196.198 136.842 196.198C135.534 196.198 134.442 195.76 133.566 194.884C132.702 193.996 132.27 192.91 132.27 191.626C132.27 190.342 132.702 189.262 133.566 188.386ZM138.984 189.394C138.408 188.782 137.694 188.476 136.842 188.476C135.99 188.476 135.276 188.782 134.7 189.394C134.124 190.006 133.836 190.75 133.836 191.626C133.836 192.502 134.124 193.246 134.7 193.858C135.276 194.47 135.99 194.776 136.842 194.776C137.694 194.776 138.408 194.47 138.984 193.858C139.56 193.246 139.848 192.502 139.848 191.626C139.848 190.75 139.56 190.006 138.984 189.394ZM149.563 191.824V187.252H151.111V196H149.563V194.74C148.951 195.712 148.027 196.198 146.791 196.198C145.699 196.198 144.841 195.856 144.217 195.172C143.605 194.488 143.299 193.558 143.299 192.382V187.252H144.847V192.202C144.847 192.994 145.039 193.618 145.423 194.074C145.819 194.53 146.383 194.758 147.115 194.758C147.859 194.758 148.453 194.494 148.897 193.966C149.341 193.426 149.563 192.712 149.563 191.824ZM159.589 191.428V196H158.041V187.252H159.589V188.512C160.201 187.54 161.131 187.054 162.379 187.054C163.483 187.054 164.347 187.396 164.971 188.08C165.595 188.764 165.907 189.694 165.907 190.87V196H164.359V191.05C164.359 190.258 164.155 189.634 163.747 189.178C163.351 188.722 162.787 188.494 162.055 188.494C161.311 188.494 160.711 188.764 160.255 189.304C159.811 189.832 159.589 190.54 159.589 191.428ZM172.313 196.198C171.017 196.198 169.949 195.772 169.109 194.92C168.269 194.056 167.849 192.958 167.849 191.626C167.849 190.318 168.263 189.232 169.091 188.368C169.919 187.492 170.957 187.054 172.205 187.054C173.429 187.054 174.443 187.492 175.247 188.368C176.051 189.232 176.453 190.294 176.453 191.554L176.435 192.112H169.397C169.445 192.88 169.751 193.522 170.315 194.038C170.891 194.554 171.563 194.812 172.331 194.812C172.943 194.812 173.441 194.686 173.825 194.434C174.209 194.182 174.557 193.81 174.869 193.318L176.129 193.966C175.757 194.65 175.241 195.196 174.581 195.604C173.921 196 173.165 196.198 172.313 196.198ZM169.433 190.834H174.887C174.803 190.138 174.503 189.562 173.987 189.106C173.483 188.638 172.877 188.404 172.169 188.404C171.485 188.404 170.873 188.656 170.333 189.16C169.805 189.652 169.505 190.21 169.433 190.834ZM182.363 196.198C181.067 196.198 179.999 195.772 179.159 194.92C178.319 194.056 177.899 192.958 177.899 191.626C177.899 190.318 178.313 189.232 179.141 188.368C179.969 187.492 181.007 187.054 182.255 187.054C183.479 187.054 184.493 187.492 185.297 188.368C186.101 189.232 186.503 190.294 186.503 191.554L186.485 192.112H179.447C179.495 192.88 179.801 193.522 180.365 194.038C180.941 194.554 181.613 194.812 182.381 194.812C182.993 194.812 183.491 194.686 183.875 194.434C184.259 194.182 184.607 193.81 184.919 193.318L186.179 193.966C185.807 194.65 185.291 195.196 184.631 195.604C183.971 196 183.215 196.198 182.363 196.198ZM179.483 190.834H184.937C184.853 190.138 184.553 189.562 184.037 189.106C183.533 188.638 182.927 188.404 182.219 188.404C181.535 188.404 180.923 188.656 180.383 189.16C179.855 189.652 179.555 190.21 179.483 190.834ZM195.437 183.4H196.967V196H195.437V194.614C195.125 195.094 194.687 195.478 194.123 195.766C193.571 196.054 192.977 196.198 192.341 196.198C191.093 196.198 190.049 195.76 189.209 194.884C188.369 194.008 187.949 192.922 187.949 191.626C187.949 190.342 188.369 189.262 189.209 188.386C190.061 187.498 191.105 187.054 192.341 187.054C192.989 187.054 193.583 187.186 194.123 187.45C194.675 187.714 195.113 188.086 195.437 188.566V183.4ZM194.663 193.876C195.239 193.264 195.527 192.514 195.527 191.626C195.527 190.738 195.239 189.994 194.663 189.394C194.087 188.782 193.373 188.476 192.521 188.476C191.669 188.476 190.955 188.782 190.379 189.394C189.803 189.994 189.515 190.738 189.515 191.626C189.515 192.514 189.803 193.264 190.379 193.876C190.955 194.476 191.669 194.776 192.521 194.776C193.373 194.776 194.087 194.476 194.663 193.876ZM204.241 184.624H205.789V187.252H208.237V188.638H205.789V193.264C205.789 193.78 205.903 194.158 206.131 194.398C206.371 194.638 206.743 194.758 207.247 194.758C207.631 194.758 207.961 194.668 208.237 194.488V195.928C207.901 196.108 207.451 196.198 206.887 196.198C206.059 196.198 205.411 195.958 204.943 195.478C204.475 194.998 204.241 194.332 204.241 193.48V188.638H202.891V187.252H204.241V184.624ZM210.696 188.386C211.572 187.498 212.664 187.054 213.972 187.054C215.28 187.054 216.366 187.498 217.23 188.386C218.106 189.262 218.544 190.342 218.544 191.626C218.544 192.91 218.106 193.996 217.23 194.884C216.366 195.76 215.28 196.198 213.972 196.198C212.664 196.198 211.572 195.76 210.696 194.884C209.832 193.996 209.4 192.91 209.4 191.626C209.4 190.342 209.832 189.262 210.696 188.386ZM216.114 189.394C215.538 188.782 214.824 188.476 213.972 188.476C213.12 188.476 212.406 188.782 211.83 189.394C211.254 190.006 210.966 190.75 210.966 191.626C210.966 192.502 211.254 193.246 211.83 193.858C212.406 194.47 213.12 194.776 213.972 194.776C214.824 194.776 215.538 194.47 216.114 193.858C216.69 193.246 216.978 192.502 216.978 191.626C216.978 190.75 216.69 190.006 216.114 189.394ZM226.388 191.428V196H224.84V183.4H226.388V188.512C227 187.54 227.93 187.054 229.178 187.054C230.282 187.054 231.146 187.396 231.77 188.08C232.394 188.764 232.706 189.694 232.706 190.87V196H231.158V191.05C231.158 190.258 230.954 189.634 230.546 189.178C230.15 188.722 229.586 188.494 228.854 188.494C228.11 188.494 227.51 188.764 227.054 189.304C226.61 189.832 226.388 190.54 226.388 191.428ZM242.135 187.252H243.665V196H242.135V194.596C241.823 195.088 241.385 195.478 240.821 195.766C240.269 196.054 239.675 196.198 239.039 196.198C237.791 196.198 236.747 195.76 235.907 194.884C235.067 194.008 234.647 192.922 234.647 191.626C234.647 190.342 235.067 189.262 235.907 188.386C236.759 187.498 237.803 187.054 239.039 187.054C239.687 187.054 240.281 187.192 240.821 187.468C241.373 187.732 241.811 188.104 242.135 188.584V187.252ZM241.361 193.876C241.937 193.264 242.225 192.514 242.225 191.626C242.225 190.738 241.937 189.994 241.361 189.394C240.785 188.782 240.071 188.476 239.219 188.476C238.367 188.476 237.653 188.782 237.077 189.394C236.501 189.994 236.213 190.738 236.213 191.626C236.213 192.514 236.501 193.264 237.077 193.876C237.653 194.476 238.367 194.776 239.219 194.776C240.071 194.776 240.785 194.476 241.361 193.876ZM250.162 196H248.902L245.248 187.252H246.904L249.55 193.876L252.196 187.252H253.816L250.162 196ZM258.966 196.198C257.67 196.198 256.602 195.772 255.762 194.92C254.922 194.056 254.502 192.958 254.502 191.626C254.502 190.318 254.916 189.232 255.744 188.368C256.572 187.492 257.61 187.054 258.858 187.054C260.082 187.054 261.096 187.492 261.9 188.368C262.704 189.232 263.106 190.294 263.106 191.554L263.088 192.112H256.05C256.098 192.88 256.404 193.522 256.968 194.038C257.544 194.554 258.216 194.812 258.984 194.812C259.596 194.812 260.094 194.686 260.478 194.434C260.862 194.182 261.21 193.81 261.522 193.318L262.782 193.966C262.41 194.65 261.894 195.196 261.234 195.604C260.574 196 259.818 196.198 258.966 196.198ZM256.086 190.834H261.54C261.456 190.138 261.156 189.562 260.64 189.106C260.136 188.638 259.53 188.404 258.822 188.404C258.138 188.404 257.526 188.656 256.986 189.16C256.458 189.652 256.158 190.21 256.086 190.834ZM268.552 192.976L270.046 192.436C270.286 193.12 270.652 193.666 271.144 194.074C271.636 194.482 272.23 194.686 272.926 194.686C273.586 194.686 274.144 194.5 274.6 194.128C275.056 193.756 275.284 193.252 275.284 192.616C275.284 191.668 274.66 190.96 273.412 190.492L271.936 189.934C270.016 189.214 269.056 188.086 269.056 186.55C269.056 185.542 269.404 184.732 270.1 184.12C270.808 183.496 271.69 183.184 272.746 183.184C273.634 183.184 274.414 183.436 275.086 183.94C275.758 184.432 276.25 185.122 276.562 186.01L275.104 186.622C274.636 185.338 273.844 184.696 272.728 184.696C272.14 184.696 271.648 184.858 271.252 185.182C270.868 185.506 270.676 185.932 270.676 186.46C270.676 187.312 271.312 187.978 272.584 188.458L274.042 189.016C275.962 189.748 276.922 190.912 276.922 192.508C276.922 193.624 276.532 194.518 275.752 195.19C274.984 195.862 274.024 196.198 272.872 196.198C271.816 196.198 270.91 195.916 270.154 195.352C269.398 194.776 268.864 193.984 268.552 192.976ZM279.082 196V183.4H283.006C284.182 183.4 285.13 183.7 285.85 184.3C286.57 184.9 286.93 185.71 286.93 186.73C286.93 187.966 286.426 188.824 285.418 189.304C286.15 189.544 286.708 189.934 287.092 190.474C287.488 191.014 287.686 191.662 287.686 192.418C287.686 193.534 287.296 194.41 286.516 195.046C285.748 195.682 284.704 196 283.384 196H279.082ZM280.684 194.578H283.366C284.194 194.578 284.848 194.386 285.328 194.002C285.82 193.606 286.066 193.06 286.066 192.364C286.066 191.692 285.814 191.158 285.31 190.762C284.818 190.366 284.158 190.168 283.33 190.168H280.684V194.578ZM280.684 188.782H282.988C283.696 188.782 284.266 188.608 284.698 188.26C285.13 187.9 285.346 187.414 285.346 186.802C285.346 186.178 285.13 185.692 284.698 185.344C284.266 184.996 283.69 184.822 282.97 184.822H280.684V188.782ZM288.207 184.876V183.4H297.171V184.876H293.499V196H291.879V184.876H288.207ZM303.366 184.624H304.914V187.252H307.362V188.638H304.914V193.264C304.914 193.78 305.028 194.158 305.256 194.398C305.496 194.638 305.868 194.758 306.372 194.758C306.756 194.758 307.086 194.668 307.362 194.488V195.928C307.026 196.108 306.576 196.198 306.012 196.198C305.184 196.198 304.536 195.958 304.068 195.478C303.6 194.998 303.366 194.332 303.366 193.48V188.638H302.016V187.252H303.366V184.624ZM309.821 188.386C310.697 187.498 311.789 187.054 313.097 187.054C314.405 187.054 315.491 187.498 316.355 188.386C317.231 189.262 317.669 190.342 317.669 191.626C317.669 192.91 317.231 193.996 316.355 194.884C315.491 195.76 314.405 196.198 313.097 196.198C311.789 196.198 310.697 195.76 309.821 194.884C308.957 193.996 308.525 192.91 308.525 191.626C308.525 190.342 308.957 189.262 309.821 188.386ZM315.239 189.394C314.663 188.782 313.949 188.476 313.097 188.476C312.245 188.476 311.531 188.782 310.955 189.394C310.379 190.006 310.091 190.75 310.091 191.626C310.091 192.502 310.379 193.246 310.955 193.858C311.531 194.47 312.245 194.776 313.097 194.776C313.949 194.776 314.663 194.47 315.239 193.858C315.815 193.246 316.103 192.502 316.103 191.626C316.103 190.75 315.815 190.006 315.239 189.394ZM330.823 187.252H332.353V196H330.823V194.596C330.511 195.088 330.073 195.478 329.509 195.766C328.957 196.054 328.363 196.198 327.727 196.198C326.479 196.198 325.435 195.76 324.595 194.884C323.755 194.008 323.335 192.922 323.335 191.626C323.335 190.342 323.755 189.262 324.595 188.386C325.447 187.498 326.491 187.054 327.727 187.054C328.375 187.054 328.969 187.192 329.509 187.468C330.061 187.732 330.499 188.104 330.823 188.584V187.252ZM330.049 193.876C330.625 193.264 330.913 192.514 330.913 191.626C330.913 190.738 330.625 189.994 330.049 189.394C329.473 188.782 328.759 188.476 327.907 188.476C327.055 188.476 326.341 188.782 325.765 189.394C325.189 189.994 324.901 190.738 324.901 191.626C324.901 192.514 325.189 193.264 325.765 193.876C326.341 194.476 327.055 194.776 327.907 194.776C328.759 194.776 329.473 194.476 330.049 193.876ZM334.422 191.626C334.422 190.33 334.848 189.244 335.7 188.368C336.564 187.492 337.662 187.054 338.994 187.054C339.906 187.054 340.734 187.306 341.478 187.81V189.376C340.71 188.788 339.906 188.494 339.066 188.494C338.178 188.494 337.44 188.794 336.852 189.394C336.276 189.994 335.988 190.738 335.988 191.626C335.988 192.502 336.276 193.246 336.852 193.858C337.44 194.458 338.178 194.758 339.066 194.758C339.81 194.758 340.632 194.47 341.532 193.894V195.46C340.74 195.952 339.9 196.198 339.012 196.198C337.656 196.198 336.552 195.766 335.7 194.902C334.848 194.026 334.422 192.934 334.422 191.626ZM344.074 184.624H345.622V187.252H348.07V188.638H345.622V193.264C345.622 193.78 345.736 194.158 345.964 194.398C346.204 194.638 346.576 194.758 347.08 194.758C347.464 194.758 347.794 194.668 348.07 194.488V195.928C347.734 196.108 347.284 196.198 346.72 196.198C345.892 196.198 345.244 195.958 344.776 195.478C344.308 194.998 344.074 194.332 344.074 193.48V188.638H342.724V187.252H344.074V184.624ZM351.55 183.922C351.754 184.126 351.856 184.372 351.856 184.66C351.856 184.948 351.754 185.194 351.55 185.398C351.346 185.602 351.1 185.704 350.812 185.704C350.524 185.704 350.278 185.602 350.074 185.398C349.87 185.194 349.768 184.948 349.768 184.66C349.768 184.372 349.87 184.126 350.074 183.922C350.278 183.718 350.524 183.616 350.812 183.616C351.1 183.616 351.346 183.718 351.55 183.922ZM350.038 187.252H351.586V196H350.038V187.252ZM358.086 196H356.826L353.172 187.252H354.828L357.474 193.876L360.12 187.252H361.74L358.086 196ZM366.889 196.198C365.593 196.198 364.525 195.772 363.685 194.92C362.845 194.056 362.425 192.958 362.425 191.626C362.425 190.318 362.839 189.232 363.667 188.368C364.495 187.492 365.533 187.054 366.781 187.054C368.005 187.054 369.019 187.492 369.823 188.368C370.627 189.232 371.029 190.294 371.029 191.554L371.011 192.112H363.973C364.021 192.88 364.327 193.522 364.891 194.038C365.467 194.554 366.139 194.812 366.907 194.812C367.519 194.812 368.017 194.686 368.401 194.434C368.785 194.182 369.133 193.81 369.445 193.318L370.705 193.966C370.333 194.65 369.817 195.196 369.157 195.604C368.497 196 367.741 196.198 366.889 196.198ZM364.009 190.834H369.463C369.379 190.138 369.079 189.562 368.563 189.106C368.059 188.638 367.453 188.404 366.745 188.404C366.061 188.404 365.449 188.656 364.909 189.16C364.381 189.652 364.081 190.21 364.009 190.834ZM377.592 184.624H379.14V187.252H381.588V188.638H379.14V193.264C379.14 193.78 379.254 194.158 379.482 194.398C379.722 194.638 380.094 194.758 380.598 194.758C380.982 194.758 381.312 194.668 381.588 194.488V195.928C381.252 196.108 380.802 196.198 380.238 196.198C379.41 196.198 378.762 195.958 378.294 195.478C377.826 194.998 377.592 194.332 377.592 193.48V188.638H376.242V187.252H377.592V184.624ZM385.016 191.428V196H383.468V183.4H385.016V188.512C385.628 187.54 386.558 187.054 387.806 187.054C388.91 187.054 389.774 187.396 390.398 188.08C391.022 188.764 391.334 189.694 391.334 190.87V196H389.786V191.05C389.786 190.258 389.582 189.634 389.174 189.178C388.778 188.722 388.214 188.494 387.482 188.494C386.738 188.494 386.138 188.764 385.682 189.304C385.238 189.832 385.016 190.54 385.016 191.428ZM395.417 183.922C395.621 184.126 395.723 184.372 395.723 184.66C395.723 184.948 395.621 185.194 395.417 185.398C395.213 185.602 394.967 185.704 394.679 185.704C394.391 185.704 394.145 185.602 393.941 185.398C393.737 185.194 393.635 184.948 393.635 184.66C393.635 184.372 393.737 184.126 393.941 183.922C394.145 183.718 394.391 183.616 394.679 183.616C394.967 183.616 395.213 183.718 395.417 183.922ZM393.905 187.252H395.453V196H393.905V187.252ZM397.327 193.822L398.695 193.3C398.827 193.768 399.067 194.146 399.415 194.434C399.775 194.71 400.183 194.848 400.639 194.848C401.035 194.848 401.377 194.74 401.665 194.524C401.953 194.296 402.097 193.996 402.097 193.624C402.097 193.06 401.683 192.64 400.855 192.364L399.883 192.04C398.383 191.536 397.633 190.708 397.633 189.556C397.633 188.824 397.903 188.224 398.443 187.756C398.983 187.288 399.661 187.054 400.477 187.054C401.185 187.054 401.797 187.246 402.313 187.63C402.841 188.002 403.225 188.518 403.465 189.178L402.115 189.718C401.791 188.83 401.233 188.386 400.441 188.386C400.081 188.386 399.775 188.488 399.523 188.692C399.283 188.884 399.163 189.136 399.163 189.448C399.163 189.964 399.589 190.372 400.441 190.672L401.341 190.978C402.865 191.494 403.627 192.346 403.627 193.534C403.627 194.302 403.339 194.938 402.763 195.442C402.187 195.946 401.467 196.198 400.603 196.198C399.799 196.198 399.103 195.982 398.515 195.55C397.927 195.118 397.531 194.542 397.327 193.822ZM411.71 196H410.162V188.638H408.812V187.252H410.162V186.496C410.162 185.416 410.438 184.594 410.99 184.03C411.542 183.466 412.268 183.184 413.168 183.184C413.684 183.184 414.122 183.256 414.482 183.4V184.786C414.182 184.666 413.828 184.606 413.42 184.606C412.28 184.606 411.71 185.224 411.71 186.46V187.252H414.158V188.638H411.71V196ZM421.946 191.824V187.252H423.494V196H421.946V194.74C421.334 195.712 420.41 196.198 419.174 196.198C418.082 196.198 417.224 195.856 416.6 195.172C415.988 194.488 415.682 193.558 415.682 192.382V187.252H417.23V192.202C417.23 192.994 417.422 193.618 417.806 194.074C418.202 194.53 418.766 194.758 419.498 194.758C420.242 194.758 420.836 194.494 421.28 193.966C421.724 193.426 421.946 192.712 421.946 191.824ZM427.741 191.428V196H426.193V187.252H427.741V188.512C428.353 187.54 429.283 187.054 430.531 187.054C431.635 187.054 432.499 187.396 433.123 188.08C433.747 188.764 434.059 189.694 434.059 190.87V196H432.511V191.05C432.511 190.258 432.307 189.634 431.899 189.178C431.503 188.722 430.939 188.494 430.207 188.494C429.463 188.494 428.863 188.764 428.407 189.304C427.963 189.832 427.741 190.54 427.741 191.428ZM436 191.626C436 190.33 436.426 189.244 437.278 188.368C438.142 187.492 439.24 187.054 440.572 187.054C441.484 187.054 442.312 187.306 443.056 187.81V189.376C442.288 188.788 441.484 188.494 440.644 188.494C439.756 188.494 439.018 188.794 438.43 189.394C437.854 189.994 437.566 190.738 437.566 191.626C437.566 192.502 437.854 193.246 438.43 193.858C439.018 194.458 439.756 194.758 440.644 194.758C441.388 194.758 442.21 194.47 443.11 193.894V195.46C442.318 195.952 441.478 196.198 440.59 196.198C439.234 196.198 438.13 195.766 437.278 194.902C436.426 194.026 436 192.934 436 191.626ZM445.651 184.624H447.199V187.252H449.647V188.638H447.199V193.264C447.199 193.78 447.313 194.158 447.541 194.398C447.781 194.638 448.153 194.758 448.657 194.758C449.041 194.758 449.371 194.668 449.647 194.488V195.928C449.311 196.108 448.861 196.198 448.297 196.198C447.469 196.198 446.821 195.958 446.353 195.478C445.885 194.998 445.651 194.332 445.651 193.48V188.638H444.301V187.252H445.651V184.624ZM453.128 183.922C453.332 184.126 453.434 184.372 453.434 184.66C453.434 184.948 453.332 185.194 453.128 185.398C452.924 185.602 452.678 185.704 452.39 185.704C452.102 185.704 451.856 185.602 451.652 185.398C451.448 185.194 451.346 184.948 451.346 184.66C451.346 184.372 451.448 184.126 451.652 183.922C451.856 183.718 452.102 183.616 452.39 183.616C452.678 183.616 452.924 183.718 453.128 183.922ZM451.616 187.252H453.164V196H451.616V187.252ZM456.531 188.386C457.407 187.498 458.499 187.054 459.807 187.054C461.115 187.054 462.201 187.498 463.065 188.386C463.941 189.262 464.379 190.342 464.379 191.626C464.379 192.91 463.941 193.996 463.065 194.884C462.201 195.76 461.115 196.198 459.807 196.198C458.499 196.198 457.407 195.76 456.531 194.884C455.667 193.996 455.235 192.91 455.235 191.626C455.235 190.342 455.667 189.262 456.531 188.386ZM461.949 189.394C461.373 188.782 460.659 188.476 459.807 188.476C458.955 188.476 458.241 188.782 457.665 189.394C457.089 190.006 456.801 190.75 456.801 191.626C456.801 192.502 457.089 193.246 457.665 193.858C458.241 194.47 458.955 194.776 459.807 194.776C460.659 194.776 461.373 194.47 461.949 193.858C462.525 193.246 462.813 192.502 462.813 191.626C462.813 190.75 462.525 190.006 461.949 189.394ZM467.991 191.428V196H466.443V187.252H467.991V188.512C468.603 187.54 469.533 187.054 470.781 187.054C471.885 187.054 472.749 187.396 473.373 188.08C473.997 188.764 474.309 189.694 474.309 190.87V196H472.761V191.05C472.761 190.258 472.557 189.634 472.149 189.178C471.753 188.722 471.189 188.494 470.457 188.494C469.713 188.494 469.113 188.764 468.657 189.304C468.213 189.832 467.991 190.54 467.991 191.428ZM478.806 195.064C478.806 195.376 478.698 195.64 478.482 195.856C478.278 196.06 478.02 196.162 477.708 196.162C477.396 196.162 477.132 196.06 476.916 195.856C476.712 195.64 476.61 195.376 476.61 195.064C476.61 194.764 476.718 194.512 476.934 194.308C477.15 194.092 477.408 193.984 477.708 193.984C478.008 193.984 478.266 194.092 478.482 194.308C478.698 194.512 478.806 194.764 478.806 195.064Z" fill="#898989"/>
<defs>
<linearGradient id="paint0_linear_3522_88302" x1="303.001" y1="134.014" x2="302.991" y2="63.9843" gradientUnits="userSpaceOnUse">
<stop stop-color="#F0EEFF" stop-opacity="0"/>
<stop offset="0.5001" stop-color="#E9E8FD" stop-opacity="0.5001"/>
<stop offset="1" stop-color="#DDDCF9"/>
</linearGradient>
<linearGradient id="paint1_linear_3522_88302" x1="326.439" y1="73.6466" x2="313" y2="73.6466" gradientUnits="userSpaceOnUse">
<stop stop-color="#00FF7C"/>
<stop offset="1" stop-color="#00C4FF"/>
</linearGradient>
<linearGradient id="paint2_linear_3522_88302" x1="331.001" y1="47" x2="337" y2="47" gradientUnits="userSpaceOnUse">
<stop stop-color="#00FF7C"/>
<stop offset="1" stop-color="#00C4FF"/>
</linearGradient>
<linearGradient id="paint3_linear_3522_88302" x1="362.001" y1="63" x2="368" y2="63" gradientUnits="userSpaceOnUse">
<stop stop-color="#00FF7C"/>
<stop offset="1" stop-color="#00C4FF"/>
</linearGradient>
<linearGradient id="paint4_linear_3522_88302" x1="341.758" y1="61.9364" x2="350.243" y2="61.9364" gradientUnits="userSpaceOnUse">
<stop stop-color="#00FF7C"/>
<stop offset="1" stop-color="#00C4FF"/>
</linearGradient>
<linearGradient id="paint5_linear_3522_88302" x1="247.404" y1="78.5962" x2="253.404" y2="78.5962" gradientUnits="userSpaceOnUse">
<stop stop-color="#00FF7C"/>
<stop offset="1" stop-color="#00C4FF"/>
</linearGradient>
<linearGradient id="paint6_linear_3522_88302" x1="258.001" y1="66" x2="264" y2="66" gradientUnits="userSpaceOnUse">
<stop stop-color="#00FF7C"/>
<stop offset="1" stop-color="#00C4FF"/>
</linearGradient>
</defs>
</svg>
