<svg xmlns="http://www.w3.org/2000/svg" width="16" height="16" viewBox="0 0 16 16" fill="none">
<path fill-rule="evenodd" clip-rule="evenodd" d="M1.33203 8.00016C1.33203 4.31826 4.3168 1.3335 7.9987 1.3335C11.6806 1.3335 14.6654 4.31826 14.6654 8.00016C14.6654 11.6821 11.6806 14.6668 7.9987 14.6668C4.3168 14.6668 1.33203 11.6821 1.33203 8.00016ZM10.4701 7.13823C10.7305 6.87788 10.7305 6.45577 10.4701 6.19543C10.2098 5.93508 9.78764 5.93508 9.52729 6.19543L7.33203 8.39069L6.4701 7.52876C6.20975 7.26841 5.78764 7.26841 5.52729 7.52876C5.26694 7.78911 5.26694 8.21122 5.52729 8.47157L6.86063 9.8049C7.12098 10.0653 7.54309 10.0653 7.80344 9.8049L10.4701 7.13823Z" fill="#00AA6C"/>
</svg>