<svg width="24" height="24" viewBox="0 0 24 24" fill="none" xmlns="http://www.w3.org/2000/svg">
<path d="M19.5 4.5H9C8.80109 4.5 8.61032 4.57902 8.46967 4.71967C8.32902 4.86032 8.25 5.05109 8.25 5.25V6.75C8.25 6.94891 8.17098 7.13968 8.03033 7.28033C7.88968 7.42098 7.69891 7.5 7.5 7.5H5.25C5.05109 7.5 4.86032 7.57902 4.71967 7.71967C4.57902 7.86032 4.5 8.05109 4.5 8.25V18.75C4.5 18.9489 4.57902 19.1397 4.71967 19.2803C4.86032 19.421 5.05109 19.5 5.25 19.5H15.75C15.9489 19.5 16.1397 19.421 16.2803 19.2803C16.421 19.1397 16.5 18.9489 16.5 18.75V17.25C16.5 17.0511 16.579 16.8603 16.7197 16.7197C16.8603 16.579 17.0511 16.5 17.25 16.5H19.5C19.6989 16.5 19.8897 16.421 20.0303 16.2803C20.171 16.1397 20.25 15.9489 20.25 15.75V5.25C20.25 5.05109 20.171 4.86032 20.0303 4.71967C19.8897 4.57902 19.6989 4.5 19.5 4.5Z" stroke="url(#paint0_linear_768_7217)" strokeWidth="2" strokeLinecap="round" strokeLinejoin="round"/>
<path d="M19.5 4.5H9C8.58579 4.5 8.25 4.83579 8.25 5.25V15.75C8.25 16.1642 8.58579 16.5 9 16.5H19.5C19.9142 16.5 20.25 16.1642 20.25 15.75V5.25C20.25 4.83579 19.9142 4.5 19.5 4.5Z" stroke="url(#paint1_linear_768_7217)" strokeWidth="2" strokeLinecap="round" strokeLinejoin="round"/>
<defs>
<linearGradient id="paint0_linear_768_7217" x1="4.5" y1="9.05509" x2="20.25" y2="9.05509" gradientUnits="userSpaceOnUse">
<stop stopColor="#00FE7E"/>
<stop offset="1" stopColor="#00C4FE"/>
</linearGradient>
<linearGradient id="paint1_linear_768_7217" x1="8.25" y1="8.14407" x2="20.25" y2="8.14407" gradientUnits="userSpaceOnUse">
<stop stopColor="#00FE7E"/>
<stop offset="1" stopColor="#00C4FE"/>
</linearGradient>
</defs>
</svg>
