<svg width="32" height="32" viewBox="0 0 32 32" fill="none" xmlns="http://www.w3.org/2000/svg">
<path d="M31.7654 1.89672L30.1653 0.296844C29.8533 -0.0154062 29.347 -0.0156562 29.0346 0.296344C29.0345 0.296594 29.0342 0.296594 29.0342 0.296844L19.4341 9.89672C19.2841 10.0468 19.1998 10.2502 19.1997 10.4623V12.0625C19.1997 12.5041 19.5578 12.8623 19.9998 12.8623H21.5999C21.812 12.8623 22.0154 12.778 22.1653 12.6282L31.7654 3.02803C32.0776 2.71578 32.0779 2.20966 31.7659 1.89716L31.7656 1.89703L31.7654 1.89672Z" fill="white"/>
<path d="M21.6001 14.4616H20C18.675 14.4602 17.6013 13.3864 17.5999 12.0617V10.4616C17.5992 10.1463 17.6609 9.83408 17.7816 9.54284C17.9023 9.25161 18.0795 8.98718 18.303 8.76484L23.8061 3.26172H4C1.79175 3.26409 0.0025 5.05341 0 7.26172V21.6616C0.0025 23.8698 1.79175 25.6594 4 25.6616H11.2V29.6616C11.2 30.1035 11.5581 30.4616 12 30.4616C12.1731 30.4616 12.3416 30.4055 12.48 30.3015L18.6675 25.6616H26.3999C28.6081 25.6591 30.3977 23.8696 30.3999 21.6616V6.65547L23.2969 13.7585C23.0746 13.982 22.8101 14.1592 22.5189 14.2799C22.2277 14.4006 21.9154 14.4624 21.6001 14.4616ZM5.60012 8.06172H13.6001C14.0418 8.06172 14.3999 8.41984 14.3999 8.86172C14.3999 9.30341 14.0418 9.66159 13.6001 9.66159H5.60012C5.15825 9.66159 4.80006 9.30366 4.80006 8.86178C4.80006 8.41991 5.15812 8.06172 5.6 8.06172H5.60012ZM5.60012 12.8615H13.6001C14.0418 12.8615 14.3999 13.2197 14.3999 13.6615C14.3999 14.1035 14.0418 14.4616 13.6001 14.4616H5.60012C5.15825 14.4616 4.80006 14.1035 4.80006 13.6616C4.80006 13.2199 5.15825 12.8615 5.60012 12.8615ZM25.5999 18.4616C25.5999 18.9035 25.2417 19.2617 24.8001 19.2617H5.6C5.15812 19.2617 4.8 18.9035 4.8 18.4617C4.8 18.02 5.15812 17.6616 5.6 17.6616H24.8C25.2416 17.6616 25.5998 18.0197 25.5998 18.4616H25.5999Z" fill="white"/>
</svg>
