<svg width="18" height="18" viewBox="0 0 18 18" fill="none" xmlns="http://www.w3.org/2000/svg">
<path d="M9.00008 17.3332C4.39758 17.3332 0.666748 13.6023 0.666748 8.99984C0.666748 4.39734 4.39758 0.666504 9.00008 0.666504C13.6026 0.666504 17.3334 4.39734 17.3334 8.99984C17.3334 13.6023 13.6026 17.3332 9.00008 17.3332ZM9.00008 15.6665C10.7682 15.6665 12.4639 14.9641 13.7141 13.7139C14.9644 12.4636 15.6667 10.7679 15.6667 8.99984C15.6667 7.23173 14.9644 5.53603 13.7141 4.28579C12.4639 3.03555 10.7682 2.33317 9.00008 2.33317C7.23197 2.33317 5.53628 3.03555 4.28604 4.28579C3.03579 5.53603 2.33341 7.23173 2.33341 8.99984C2.33341 10.7679 3.03579 12.4636 4.28604 13.7139C5.53628 14.9641 7.23197 15.6665 9.00008 15.6665ZM8.16675 11.4998H9.83341V13.1665H8.16675V11.4998ZM9.83341 10.129V10.6665H8.16675V9.4165C8.16675 9.19549 8.25454 8.98353 8.41082 8.82725C8.5671 8.67097 8.77907 8.58317 9.00008 8.58317C9.23681 8.58315 9.46867 8.51592 9.66868 8.38928C9.8687 8.26264 10.0286 8.08181 10.1299 7.86782C10.2311 7.65384 10.2696 7.4155 10.2406 7.18054C10.2117 6.94558 10.1167 6.72366 9.96661 6.5406C9.81651 6.35753 9.61751 6.22086 9.39276 6.14648C9.16802 6.07209 8.92678 6.06306 8.6971 6.12042C8.46742 6.17779 8.25876 6.2992 8.09539 6.47052C7.93201 6.64184 7.82065 6.85603 7.77425 7.08817L6.13925 6.76067C6.24061 6.25407 6.47467 5.78348 6.81751 5.39699C7.16036 5.0105 7.59968 4.72199 8.09057 4.56094C8.58146 4.39988 9.10632 4.37207 9.61148 4.48035C10.1166 4.58862 10.584 4.8291 10.9658 5.17719C11.3475 5.52528 11.63 5.96851 11.7843 6.46156C11.9387 6.9546 11.9593 7.47979 11.8441 7.98343C11.729 8.48706 11.4821 8.95108 11.1288 9.32806C10.7756 9.70503 10.3285 9.98143 9.83341 10.129Z" fill="url(#paint0_linear_1748_6790)"/>
<defs>
<linearGradient id="paint0_linear_1748_6790" x1="0.666748" y1="5.72771" x2="17.3334" y2="5.72771" gradientUnits="userSpaceOnUse">
<stop stopColor="#00FE7E"/>
<stop offset="1" stopColor="#00C4FE"/>
</linearGradient>
</defs>
</svg>
