<svg width="101" height="100" viewBox="0 0 101 100" fill="none" xmlns="http://www.w3.org/2000/svg">
<path d="M50.5 0C57.0661 -9.78424e-08 63.5679 1.29329 69.6342 3.80602C75.7004 6.31876 81.2124 10.0017 85.8553 14.6447C90.4983 19.2876 94.1812 24.7995 96.694 30.8658C99.2067 36.9321 100.5 43.4339 100.5 50C100.5 56.5661 99.2067 63.0679 96.694 69.1342C94.1812 75.2004 90.4983 80.7124 85.8553 85.3553C81.2124 89.9983 75.7004 93.6812 69.6342 96.194C63.5679 98.7067 57.0661 100 50.5 100C37.2392 100 24.5215 94.7322 15.1447 85.3553C5.76784 75.9785 0.5 63.2608 0.5 50C0.5 36.7392 5.76784 24.0215 15.1447 14.6447C24.5215 5.26784 37.2392 1.97602e-07 50.5 0ZM50.5 66.6667C48.8424 66.6667 47.2527 67.3251 46.0806 68.4973C44.9085 69.6693 44.25 71.2591 44.25 72.9167C44.25 74.5743 44.9085 76.164 46.0806 77.3361C47.2527 78.5082 48.8424 79.1667 50.5 79.1667C52.1576 79.1667 53.7473 78.5082 54.9194 77.3361C56.0915 76.164 56.75 74.5743 56.75 72.9167C56.75 71.2591 56.0915 69.6693 54.9194 68.4973C53.7473 67.3251 52.1576 66.6667 50.5 66.6667ZM50.5 20.8333C49.5248 20.833 48.5804 21.1748 47.8312 21.7991C47.082 22.4234 46.5755 23.2907 46.4 24.25L46.3333 25V54.1667L46.4 54.9167C46.5739 55.8773 47.0797 56.7465 47.8291 57.3723C48.5784 57.9981 49.5237 58.341 50.5 58.341C51.4763 58.341 52.4216 57.9981 53.1709 57.3723C53.9203 56.7465 54.426 55.8773 54.6 54.9167L54.6667 54.1667V25L54.6 24.25C54.4245 23.2907 53.918 22.4234 53.1688 21.7991C52.4196 21.1748 51.4752 20.833 50.5 20.8333Z" fill="url(#paint0_linear_922_11988)"/>
<defs>
<linearGradient id="paint0_linear_922_11988" x1="0.5" y1="30.3672" x2="100.5" y2="30.3672" gradientUnits="userSpaceOnUse">
<stop stopColor="#00FE7E"/>
<stop offset="1" stopColor="#00C4FE"/>
</linearGradient>
</defs>
</svg>
