<svg width="33" height="32" viewBox="0 0 33 32" fill="none" xmlns="http://www.w3.org/2000/svg">
<g clip-path="url(#clip0_1468_41943)">
<path d="M22.3348 10.6811C24.2204 13.4706 25.1516 16.617 24.8035 20.2393C24.802 20.2546 24.7941 20.2687 24.7815 20.2779C23.3537 21.3329 21.9702 21.9731 20.6062 22.3977C20.5956 22.401 20.5842 22.4008 20.5737 22.3972C20.5632 22.3936 20.554 22.3868 20.5475 22.3778C20.2324 21.9366 19.9461 21.4715 19.6952 20.9831C19.6808 20.9543 19.694 20.9196 19.7236 20.9083C20.1784 20.7359 20.6108 20.5293 21.0267 20.2846C21.0595 20.2653 21.0616 20.2181 21.0313 20.1954C20.943 20.1295 20.8556 20.0602 20.7719 19.9909C20.7562 19.9781 20.7352 19.9755 20.7174 19.9841C18.0171 21.2388 15.0591 21.2388 12.3268 19.9841C12.3091 19.9762 12.288 19.9789 12.2728 19.9915C12.1893 20.0608 12.1016 20.1295 12.0142 20.1954C11.9839 20.2181 11.9864 20.2653 12.0194 20.2846C12.4353 20.5247 12.8678 20.7359 13.3219 20.9091C13.3513 20.9205 13.3653 20.9543 13.3507 20.9831C13.1053 21.4721 12.8189 21.9372 12.4979 22.3784C12.484 22.3963 12.461 22.4045 12.4393 22.3977C11.0817 21.9731 9.6983 21.3329 8.27041 20.2779C8.25851 20.2687 8.24996 20.254 8.2487 20.2387C7.95778 17.1054 8.55069 13.933 10.7151 10.6805C10.7203 10.6719 10.7282 10.6652 10.7374 10.6612C11.8024 10.1694 12.9433 9.80758 14.1358 9.60095C14.1575 9.59759 14.1792 9.60767 14.1905 9.62699C14.3378 9.88947 14.5062 10.2261 14.6202 10.5012C15.8771 10.308 17.1537 10.308 18.437 10.5012C18.5509 10.232 18.7135 9.88947 18.8602 9.62699C18.8655 9.61741 18.8736 9.60973 18.8834 9.60505C18.8932 9.60038 18.9042 9.59894 18.9149 9.60095C20.108 9.80821 21.249 10.17 22.3131 10.6612C22.3225 10.6652 22.3302 10.6719 22.3348 10.6811ZM15.2592 16.6384C15.2723 15.7122 14.6012 14.9457 13.7587 14.9457C12.9231 14.9457 12.2584 15.7055 12.2584 16.6384C12.2584 17.5712 12.9362 18.3309 13.7587 18.3309C14.5945 18.3309 15.2592 17.5712 15.2592 16.6384ZM20.8067 16.6384C20.8199 15.7122 20.1487 14.9457 19.3064 14.9457C18.4706 14.9457 17.8059 15.7055 17.8059 16.6384C17.8059 17.5712 18.4837 18.3309 19.3064 18.3309C20.1487 18.3309 20.8067 17.5712 20.8067 16.6384Z" fill="#B6B6B6"/>
</g>
<defs>
<clipPath id="clip0_1468_41943">
<rect x="0.5" width="32" height="32" rx="16" fill="white"/>
</clipPath>
</defs>
</svg>
