<svg width="33" height="32" viewBox="0 0 33 32" fill="none" xmlns="http://www.w3.org/2000/svg">
<g clip-path="url(#clip0_1468_41948)">
<path fillRule="evenodd" clipRule="evenodd" d="M16.4923 7.33929C11.5186 7.33929 7.49023 11.3481 7.49023 16.2976C7.49023 20.2616 10.0671 23.6097 13.6454 24.7967C14.0955 24.8751 14.2643 24.6064 14.2643 24.3712C14.2643 24.1584 14.253 23.453 14.253 22.7027C11.9913 23.117 11.4061 22.154 11.2261 21.6501C11.1248 21.3926 10.686 20.5975 10.3034 20.3848C9.9883 20.2168 9.5382 19.8025 10.2921 19.7913C11.001 19.7801 11.5074 20.4408 11.6762 20.7095C12.4864 22.0644 13.7804 21.6837 14.298 21.4486C14.3768 20.8663 14.6131 20.4744 14.8719 20.2504C12.8689 20.0264 10.776 19.2538 10.776 15.8273C10.776 14.853 11.1248 14.0468 11.6987 13.4197C11.6087 13.1958 11.2936 12.2775 11.7887 11.0458C11.7887 11.0458 12.5426 10.8106 14.2643 11.964C14.9844 11.7624 15.7496 11.6617 16.5148 11.6617C17.2799 11.6617 18.0451 11.7624 18.7653 11.964C20.4869 10.7994 21.2408 11.0458 21.2408 11.0458C21.736 12.2775 21.4209 13.1958 21.3309 13.4197C21.9047 14.0468 22.2536 14.8418 22.2536 15.8273C22.2536 19.265 20.1493 20.0264 18.1464 20.2504C18.4727 20.5303 18.754 21.0678 18.754 21.9077C18.754 23.1058 18.7428 24.0689 18.7428 24.3712C18.7428 24.6064 18.9116 24.8863 19.3617 24.7967C22.9175 23.6097 25.4943 20.2504 25.4943 16.2976C25.4943 11.3481 21.4659 7.33929 16.4923 7.33929Z" fill="#B6B6B6"/>
</g>
<defs>
<clipPath id="clip0_1468_41948">
<rect x="0.5" width="32" height="32" rx="16" fill="white"/>
</clipPath>
</defs>
</svg>
