<svg width="33" height="32" viewBox="0 0 33 32" fill="none" xmlns="http://www.w3.org/2000/svg">
<g clip-path="url(#clip0_1468_41966)">
<path d="M8.41118 23.135H11.3758V15.9352L7.14062 12.7588V21.8644C7.14062 22.5675 7.71026 23.135 8.41118 23.135Z" fill="#B6B6B6"/>
<path d="M21.541 23.135H24.5056C25.2087 23.135 25.7762 22.5654 25.7762 21.8644V12.7588L21.541 15.9352" fill="#B6B6B6"/>
<path d="M21.541 10.4295V15.9353L25.7762 12.7589V11.0648C25.7762 9.49355 23.9826 8.59781 22.7269 9.54014" fill="#B6B6B6"/>
<path d="M11.375 15.9352V10.4294L16.4572 14.2411L21.5394 10.4294V15.9352L16.4572 19.7469" fill="#B6B6B6"/>
<path d="M7.14062 11.0648V12.7589L11.3758 15.9353V10.4295L10.19 9.54014C8.93211 8.59781 7.14062 9.49355 7.14062 11.0648Z" fill="#B6B6B6"/>
</g>
<defs>
<clipPath id="clip0_1468_41966">
<rect x="0.5" width="32" height="32" rx="16" fill="white"/>
</clipPath>
</defs>
</svg>
