<svg width="33" height="32" viewBox="0 0 33 32" fill="none" xmlns="http://www.w3.org/2000/svg">
<g clip-path="url(#clip0_1468_41954)">
<path d="M17.6526 16.4276C17.6526 19.1674 15.3944 21.392 12.5968 21.392C9.79927 21.392 7.54102 19.1674 7.54102 16.4276C7.54102 13.6879 9.79927 11.4632 12.5968 11.4632C15.3944 11.4632 17.6526 13.6879 17.6526 16.4276ZM23.1915 16.4276C23.1915 19.003 22.0568 21.0962 20.6636 21.0962C19.2705 21.0962 18.1357 19.003 18.1357 16.4276C18.1357 13.8523 19.2705 11.7591 20.6636 11.7591C22.0568 11.7591 23.1915 13.8413 23.1915 16.4276ZM25.461 16.4276C25.461 18.74 25.0678 20.614 24.5734 20.614C24.0791 20.614 23.6859 18.74 23.6859 16.4276C23.6859 14.1153 24.0791 12.2413 24.5734 12.2413C25.0678 12.2413 25.461 14.1153 25.461 16.4276Z" fill="#B6B6B6"/>
</g>
<defs>
<clipPath id="clip0_1468_41954">
<rect x="0.5" width="32" height="32" rx="16" fill="white"/>
</clipPath>
</defs>
</svg>
