<svg width="33" height="32" viewBox="0 0 33 32" fill="none" xmlns="http://www.w3.org/2000/svg">
<g clip-path="url(#clip0_1868_34906)">
<path d="M8.60442 14.8885C8.60442 14.8885 16.6421 11.5128 19.4297 10.3242C20.4984 9.84876 24.1223 8.32727 24.1223 8.32727C24.1223 8.32727 25.7949 7.66168 25.6555 9.27818C25.609 9.94384 25.2373 12.2735 24.8657 14.7934C24.3081 18.3593 23.7041 22.258 23.7041 22.258C23.7041 22.258 23.6112 23.3516 22.8214 23.5417C22.0316 23.7319 20.7306 22.8761 20.4984 22.6859C20.3125 22.5433 17.0138 20.4037 15.8058 19.3577C15.4806 19.0725 15.1089 18.502 15.8523 17.8363C17.5249 16.2673 19.5227 14.318 20.7306 13.0818C21.2882 12.5113 21.8457 11.18 19.5227 12.7965C16.224 15.1263 12.9717 17.3133 12.9717 17.3133C12.9717 17.3133 12.2283 17.7888 10.8345 17.3608C9.44067 16.933 7.81454 16.3624 7.81454 16.3624C7.81454 16.3624 6.69955 15.6492 8.60442 14.8885Z" fill="#B6B6B6"/>
</g>
<defs>
<clipPath id="clip0_1868_34906">
<rect x="0.5" width="32" height="32" rx="16" fill="white"/>
</clipPath>
</defs>
</svg>
