<svg width="33" height="32" viewBox="0 0 33 32" fill="none" xmlns="http://www.w3.org/2000/svg">
<g clip-path="url(#clip0_1468_41929)">
<path d="M24.5935 10.8851C24.0651 11.1125 23.5096 11.2708 22.9408 11.3562C23.2067 11.3106 23.598 10.8319 23.7538 10.6382C23.9905 10.3459 24.1708 10.0122 24.2857 9.65414C24.2857 9.62755 24.3123 9.58955 24.2857 9.57056C24.2723 9.56324 24.2573 9.55941 24.242 9.55941C24.2268 9.55941 24.2117 9.56324 24.1983 9.57056C23.5806 9.90506 22.9232 10.1604 22.2417 10.3304C22.2179 10.3377 22.1927 10.3383 22.1686 10.3323C22.1445 10.3263 22.1225 10.3138 22.1049 10.2962C22.0519 10.2331 21.9948 10.1734 21.934 10.1177C21.656 9.86859 21.3406 9.66475 20.9993 9.51357C20.5387 9.32458 20.0411 9.24274 19.5442 9.27421C19.062 9.30466 18.5913 9.43399 18.1613 9.65414C17.7378 9.88625 17.3656 10.2016 17.0671 10.5812C16.753 10.9719 16.5263 11.4253 16.4022 11.9109C16.2998 12.3729 16.2882 12.8503 16.368 13.3167C16.368 13.3964 16.368 13.4078 16.2996 13.3964C13.5907 12.9975 11.3681 12.0363 9.55205 9.97328C9.47227 9.8821 9.43047 9.8821 9.36589 9.97328C8.57563 11.1739 8.95936 13.0735 9.94718 14.0119C10.0802 14.1373 10.2169 14.2589 10.3613 14.3729C9.90839 14.3407 9.46655 14.218 9.06194 14.0119C8.98596 13.9625 8.94416 13.9891 8.94036 14.0803C8.92959 14.2067 8.92959 14.3338 8.94036 14.4603C9.01964 15.0661 9.25839 15.64 9.63222 16.1233C10.006 16.6066 10.5015 16.9819 11.068 17.2109C11.2061 17.2701 11.3499 17.3147 11.4973 17.3439C11.078 17.4265 10.648 17.4393 10.2245 17.3819C10.1333 17.3629 10.0991 17.4123 10.1333 17.4997C10.6918 19.0194 11.9038 19.4829 12.7928 19.7413C12.9144 19.7603 13.036 19.7603 13.1728 19.7907C13.1728 19.7907 13.1728 19.7907 13.15 19.8135C12.8878 20.2922 11.8278 20.6151 11.3415 20.7823C10.4539 21.1011 9.50749 21.223 8.56803 21.1394C8.41986 21.1166 8.38567 21.1204 8.34767 21.1394C8.30968 21.1584 8.34767 21.2002 8.38947 21.2382C8.57943 21.3636 8.7694 21.4738 8.96696 21.5801C9.55511 21.9009 10.1769 22.1558 10.821 22.34C14.1568 23.2594 17.9105 22.5831 20.4142 20.0946C22.3823 18.1418 23.0737 15.4481 23.0737 12.7506C23.0737 12.648 23.1991 12.5872 23.2713 12.534C23.7692 12.1461 24.2082 11.6879 24.5745 11.1739C24.6379 11.0972 24.6704 10.9997 24.6656 10.9003C24.6656 10.8433 24.6656 10.8547 24.5935 10.8851Z" fill="#B6B6B6"/>
</g>
<defs>
<clipPath id="clip0_1468_41929">
<rect x="0.5" width="32" height="32" rx="16" fill="white"/>
</clipPath>
</defs>
</svg>
