<svg width="28" height="20" viewBox="0 0 28 20" fill="none" xmlns="http://www.w3.org/2000/svg">
<path d="M27.4004 3.59555C27.2419 3.03034 26.9333 2.51862 26.5073 2.1148C26.0692 1.69856 25.5323 1.40082 24.9472 1.24967C22.7576 0.67253 13.985 0.67253 13.985 0.67253C10.3279 0.63092 6.67158 0.813929 3.03684 1.22052C2.45175 1.38284 1.91585 1.68723 1.4768 2.10664C1.0454 2.52172 0.732932 3.03356 0.5697 3.59438C0.177585 5.70677 -0.0129312 7.85164 0.0007196 10.0001C-0.0132717 12.1466 0.176777 14.2907 0.5697 16.4058C0.729434 16.9643 1.04074 17.4738 1.47331 17.8853C1.90587 18.2969 2.44454 18.5942 3.03684 18.7516C5.25563 19.3276 13.985 19.3276 13.985 19.3276C17.6469 19.3693 21.3078 19.1863 24.9472 18.7796C25.5323 18.6285 26.0692 18.3307 26.5073 17.9145C26.9331 17.5108 27.2414 16.999 27.3992 16.4337C27.8016 14.3222 27.9972 12.1764 27.9834 10.0269C28.0136 7.86827 27.8182 5.71239 27.4004 3.59438V3.59555ZM11.1961 13.9923V6.00905L18.4949 10.0012L11.1961 13.9923Z" fill="#A8AEBA"/>
</svg>
