<svg width="590" height="210" viewBox="0 0 590 210" fill="none" xmlns="http://www.w3.org/2000/svg">
<g clip-path="url(#clip0_2863_5093)">
<rect x="170" width="250" height="200" fill="white"/>
<path fill-rule="evenodd" clip-rule="evenodd" d="M233 134H324C324.515 134 325.017 133.944 325.5 133.839C325.983 133.944 326.485 134 327 134H379C382.866 134 386 130.866 386 127C386 123.134 382.866 120 379 120H373C369.134 120 366 116.866 366 113C366 109.134 369.134 106 373 106H392C395.866 106 399 102.866 399 99C399 95.134 395.866 92 392 92H370C373.866 92 377 88.866 377 85C377 81.134 373.866 78 370 78H306C309.866 78 313 74.866 313 71C313 67.134 309.866 64 306 64H249C245.134 64 242 67.134 242 71C242 74.866 245.134 78 249 78H209C205.134 78 202 81.134 202 85C202 88.866 205.134 92 209 92H234C237.866 92 241 95.134 241 99C241 102.866 237.866 106 234 106H194C190.134 106 187 109.134 187 113C187 116.866 190.134 120 194 120H233C229.134 120 226 123.134 226 127C226 130.866 229.134 134 233 134ZM396 134C399.866 134 403 130.866 403 127C403 123.134 399.866 120 396 120C392.134 120 389 123.134 389 127C389 130.866 392.134 134 396 134Z" fill="url(#paint0_linear_2863_5093)"/>
<path d="M260.5 141.737H327.521C332.492 141.737 336.521 137.707 336.521 132.737V115.5V97V93.1842V86C336.521 81.0294 332.492 77 327.521 77H260.342C256.539 77 253.146 74.609 251.867 71.027L251.5 70V132.737C251.5 137.707 255.529 141.737 260.5 141.737Z" fill="white"/>
<mask id="path-4-inside-1_2863_5093" fill="white">
<path fill-rule="evenodd" clip-rule="evenodd" d="M251.272 68.771C251.864 68.661 252.45 68.9891 252.667 69.5513L252.948 70.2821C254.099 73.2751 256.974 75.25 260.181 75.25H327.521C333.182 75.25 337.771 79.8391 337.771 85.5V93.1842V96C337.771 96.6904 337.212 97.25 336.521 97.25C335.831 97.25 335.271 96.6904 335.271 96V93.1842V85.5C335.271 81.2198 331.802 77.75 327.521 77.75H260.181C257.314 77.75 254.647 76.5565 252.75 74.5603V128.737C252.75 133.017 256.22 136.487 260.5 136.487H327.521C331.802 136.487 335.271 133.017 335.271 128.737V116C335.271 115.31 335.831 114.75 336.521 114.75C337.212 114.75 337.771 115.31 337.771 116V128.737C337.771 134.398 333.182 138.987 327.521 138.987H260.5C254.839 138.987 250.25 134.398 250.25 128.737V70C250.25 69.3977 250.68 68.881 251.272 68.771Z"/>
</mask>
<path fill-rule="evenodd" clip-rule="evenodd" d="M251.272 68.771C251.864 68.661 252.45 68.9891 252.667 69.5513L252.948 70.2821C254.099 73.2751 256.974 75.25 260.181 75.25H327.521C333.182 75.25 337.771 79.8391 337.771 85.5V93.1842V96C337.771 96.6904 337.212 97.25 336.521 97.25C335.831 97.25 335.271 96.6904 335.271 96V93.1842V85.5C335.271 81.2198 331.802 77.75 327.521 77.75H260.181C257.314 77.75 254.647 76.5565 252.75 74.5603V128.737C252.75 133.017 256.22 136.487 260.5 136.487H327.521C331.802 136.487 335.271 133.017 335.271 128.737V116C335.271 115.31 335.831 114.75 336.521 114.75C337.212 114.75 337.771 115.31 337.771 116V128.737C337.771 134.398 333.182 138.987 327.521 138.987H260.5C254.839 138.987 250.25 134.398 250.25 128.737V70C250.25 69.3977 250.68 68.881 251.272 68.771Z" fill="white"/>
<path d="M252.667 69.5513L250.333 70.4487L250.333 70.4487L252.667 69.5513ZM251.272 68.771L250.815 66.313L250.815 66.313L251.272 68.771ZM252.948 70.2821L255.281 69.3846V69.3846L252.948 70.2821ZM252.75 74.5603L254.562 72.8379L250.25 68.3015V74.5603H252.75ZM255 68.6538C254.351 66.9672 252.592 65.9831 250.815 66.313L251.728 71.229C251.136 71.339 250.55 71.0109 250.333 70.4487L255 68.6538ZM255.281 69.3846L255 68.6538L250.333 70.4487L250.614 71.1795L255.281 69.3846ZM260.181 72.75C258.009 72.75 256.061 71.4121 255.281 69.3846L250.614 71.1795C252.137 75.138 255.94 77.75 260.181 77.75V72.75ZM327.521 72.75H260.181V77.75H327.521V72.75ZM340.271 85.5C340.271 78.4584 334.563 72.75 327.521 72.75V77.75C331.802 77.75 335.271 81.2198 335.271 85.5H340.271ZM340.271 93.1842V85.5H335.271V93.1842H340.271ZM340.271 96V93.1842H335.271V96H340.271ZM336.521 99.75C338.592 99.75 340.271 98.0711 340.271 96H335.271C335.271 95.3096 335.831 94.75 336.521 94.75V99.75ZM332.771 96C332.771 98.0711 334.45 99.75 336.521 99.75V94.75C337.212 94.75 337.771 95.3096 337.771 96H332.771ZM332.771 93.1842V96H337.771V93.1842H332.771ZM332.771 85.5V93.1842H337.771V85.5H332.771ZM327.521 80.25C330.421 80.25 332.771 82.6005 332.771 85.5H337.771C337.771 79.8391 333.182 75.25 327.521 75.25V80.25ZM260.181 80.25H327.521V75.25H260.181V80.25ZM250.938 76.2827C253.297 78.7644 256.614 80.25 260.181 80.25V75.25C258.014 75.25 255.998 74.3485 254.562 72.8379L250.938 76.2827ZM255.25 128.737V74.5603H250.25V128.737H255.25ZM260.5 133.987C257.6 133.987 255.25 131.636 255.25 128.737H250.25C250.25 134.398 254.839 138.987 260.5 138.987V133.987ZM327.521 133.987H260.5V138.987H327.521V133.987ZM332.771 128.737C332.771 131.636 330.421 133.987 327.521 133.987V138.987C333.182 138.987 337.771 134.398 337.771 128.737H332.771ZM332.771 116V128.737H337.771V116H332.771ZM336.521 112.25C334.45 112.25 332.771 113.929 332.771 116H337.771C337.771 116.69 337.212 117.25 336.521 117.25V112.25ZM340.271 116C340.271 113.929 338.592 112.25 336.521 112.25V117.25C335.831 117.25 335.271 116.69 335.271 116H340.271ZM340.271 128.737V116H335.271V128.737H340.271ZM327.521 141.487C334.563 141.487 340.271 135.778 340.271 128.737H335.271C335.271 133.017 331.802 136.487 327.521 136.487V141.487ZM260.5 141.487H327.521V136.487H260.5V141.487ZM247.75 128.737C247.75 135.778 253.458 141.487 260.5 141.487V136.487C256.22 136.487 252.75 133.017 252.75 128.737H247.75ZM247.75 70V128.737H252.75V70H247.75ZM250.815 66.313C249.039 66.6429 247.75 68.193 247.75 70H252.75C252.75 70.6023 252.32 71.119 251.728 71.229L250.815 66.313Z" fill="#0DB774" mask="url(#path-4-inside-1_2863_5093)"/>
<path d="M251.5 70.75C251.5 67.5744 254.074 65 257.25 65H318C322.971 65 327 69.0294 327 74V76.5H257.25C254.074 76.5 251.5 73.9256 251.5 70.75Z" fill="#F3FFFD" stroke="#0DB774" stroke-width="2.5"/>
<path fill-rule="evenodd" clip-rule="evenodd" d="M277.955 82H261C258.791 82 257 83.7909 257 86V129C257 131.209 258.791 133 261 133H328C330.209 133 332 131.209 332 129V124.188C321.352 123.803 310.343 120.257 300.568 113.375C289.026 105.248 281.283 93.9337 277.955 82Z" fill="#F3FFFD"/>
<path d="M318 108C318 103.029 322.029 99 327 99H338C339.657 99 341 100.343 341 102V114C341 115.657 339.657 117 338 117H327C322.029 117 318 112.971 318 108Z" fill="white"/>
<path d="M319.25 108C319.25 103.72 322.72 100.25 327 100.25H338C338.966 100.25 339.75 101.034 339.75 102V114C339.75 114.966 338.966 115.75 338 115.75H327C322.72 115.75 319.25 112.28 319.25 108Z" stroke="#0DB774" stroke-width="2.5"/>
<path d="M327 111C328.657 111 330 109.657 330 108C330 106.343 328.657 105 327 105C325.343 105 324 106.343 324 108C324 109.657 325.343 111 327 111Z" stroke="url(#paint1_linear_2863_5093)" stroke-width="2.5"/>
<line x1="260.25" y1="84.75" x2="328.75" y2="84.75" stroke="url(#paint2_linear_2863_5093)" stroke-width="2.5" stroke-linecap="round" stroke-dasharray="5 5"/>
<line x1="260.25" y1="129.75" x2="328.75" y2="129.75" stroke="url(#paint3_linear_2863_5093)" stroke-width="2.5" stroke-linecap="round" stroke-dasharray="5 5"/>
<path d="M307.048 58.381L262 74.9533L317.535 75.3009L312.183 60.7541C311.421 58.6808 309.122 57.6183 307.048 58.381Z" fill="white"/>
<path fill-rule="evenodd" clip-rule="evenodd" d="M317.345 75.2998L314.999 71H274.999L264.535 74.9692L317.345 75.2998Z" fill="#F3FFFD"/>
<path d="M262 74.9533L307.048 58.381C309.122 57.6183 311.421 58.6808 312.183 60.7541L317.535 75.3009" stroke="#0DB774" stroke-width="2.5" stroke-linecap="round" stroke-linejoin="round"/>
</g>
<path d="M2.03369 192.6C2.03369 191.384 2.25769 190.248 2.70569 189.192C3.15369 188.12 3.76169 187.192 4.52969 186.408C5.31369 185.624 6.23369 185.008 7.28969 184.56C8.34569 184.112 9.48169 183.888 10.6977 183.888C11.5137 183.888 12.2977 184.008 13.0497 184.248C13.8177 184.472 14.5617 184.808 15.2817 185.256V188.352C14.5457 187.792 13.8097 187.376 13.0737 187.104C12.3377 186.832 11.5537 186.696 10.7217 186.696C9.90569 186.696 9.14569 186.848 8.44169 187.152C7.75369 187.456 7.15369 187.872 6.64169 188.4C6.12969 188.928 5.72969 189.552 5.44169 190.272C5.15369 190.992 5.00969 191.768 5.00969 192.6C5.00969 193.416 5.15369 194.184 5.44169 194.904C5.72969 195.608 6.12969 196.232 6.64169 196.776C7.15369 197.304 7.75369 197.72 8.44169 198.024C9.14569 198.328 9.90569 198.48 10.7217 198.48C11.5377 198.48 12.3217 198.344 13.0737 198.072C13.8257 197.8 14.5777 197.4 15.3297 196.872V199.968C14.5617 200.432 13.7857 200.768 13.0017 200.976C12.2177 201.184 11.4417 201.288 10.6737 201.288C9.45769 201.288 8.32169 201.072 7.26569 200.64C6.22569 200.192 5.31369 199.576 4.52969 198.792C3.76169 198.008 3.15369 197.088 2.70569 196.032C2.25769 194.976 2.03369 193.832 2.03369 192.6ZM23.6928 188.952C24.5888 188.952 25.4208 189.112 26.1888 189.432C26.9568 189.752 27.6208 190.192 28.1808 190.752C28.7408 191.296 29.1728 191.944 29.4768 192.696C29.7968 193.448 29.9568 194.256 29.9568 195.12C29.9568 195.984 29.7968 196.792 29.4768 197.544C29.1728 198.296 28.7408 198.952 28.1808 199.512C27.6208 200.056 26.9568 200.488 26.1888 200.808C25.4208 201.128 24.5888 201.288 23.6928 201.288C22.7968 201.288 21.9648 201.128 21.1968 200.808C20.4288 200.488 19.7648 200.056 19.2048 199.512C18.6448 198.952 18.2048 198.296 17.8848 197.544C17.5808 196.792 17.4288 195.984 17.4288 195.12C17.4288 194.256 17.5808 193.448 17.8848 192.696C18.2048 191.944 18.6448 191.296 19.2048 190.752C19.7648 190.192 20.4288 189.752 21.1968 189.432C21.9648 189.112 22.7968 188.952 23.6928 188.952ZM23.6928 191.496C23.1968 191.496 22.7328 191.592 22.3008 191.784C21.8848 191.976 21.5168 192.232 21.1968 192.552C20.8928 192.872 20.6448 193.256 20.4528 193.704C20.2768 194.152 20.1888 194.624 20.1888 195.12C20.1888 195.632 20.2768 196.112 20.4528 196.56C20.6448 196.992 20.8928 197.368 21.1968 197.688C21.5168 198.008 21.8848 198.264 22.3008 198.456C22.7328 198.648 23.1968 198.744 23.6928 198.744C24.1888 198.744 24.6448 198.648 25.0608 198.456C25.4928 198.264 25.8608 198.008 26.1648 197.688C26.4848 197.368 26.7328 196.992 26.9088 196.56C27.1008 196.112 27.1968 195.632 27.1968 195.12C27.1968 194.624 27.1008 194.152 26.9088 193.704C26.7328 193.256 26.4848 192.872 26.1648 192.552C25.8608 192.232 25.4928 191.976 25.0608 191.784C24.6448 191.592 24.1888 191.496 23.6928 191.496ZM35.4183 201H32.6343V189.24H35.4183V190.8C35.7863 190.24 36.2663 189.792 36.8583 189.456C37.4663 189.12 38.1863 188.952 39.0183 188.952C40.4583 188.952 41.5783 189.4 42.3783 190.296C43.1783 191.176 43.5782 192.384 43.5782 193.92V201H40.7943V194.448C40.7943 193.536 40.5703 192.824 40.1223 192.312C39.6743 191.784 39.0263 191.52 38.1783 191.52C37.3463 191.52 36.6743 191.816 36.1623 192.408C35.6663 193 35.4183 193.8 35.4183 194.808V201ZM49.6683 201H46.8843V189.24H49.6683V190.8C50.0363 190.24 50.5163 189.792 51.1083 189.456C51.7163 189.12 52.4363 188.952 53.2683 188.952C54.7083 188.952 55.8283 189.4 56.6283 190.296C57.4283 191.176 57.8282 192.384 57.8282 193.92V201H55.0443V194.448C55.0443 193.536 54.8203 192.824 54.3723 192.312C53.9243 191.784 53.2763 191.52 52.4283 191.52C51.5963 191.52 50.9243 191.816 50.4123 192.408C49.9163 193 49.6683 193.8 49.6683 194.808V201ZM71.7903 198.24C71.2943 199.168 70.5983 199.912 69.7023 200.472C68.8063 201.016 67.7343 201.288 66.4863 201.288C65.5903 201.288 64.7663 201.136 64.0143 200.832C63.2623 200.528 62.6143 200.104 62.0703 199.56C61.5423 199.016 61.1263 198.368 60.8223 197.616C60.5183 196.864 60.3663 196.032 60.3663 195.12C60.3663 194.24 60.5183 193.424 60.8223 192.672C61.1263 191.92 61.5423 191.272 62.0703 190.728C62.6143 190.168 63.2463 189.736 63.9663 189.432C64.7023 189.112 65.4943 188.952 66.3423 188.952C67.2063 188.952 67.9903 189.112 68.6943 189.432C69.4143 189.736 70.0303 190.168 70.5423 190.728C71.0703 191.272 71.4783 191.92 71.7663 192.672C72.0543 193.424 72.1983 194.24 72.1983 195.12C72.1983 195.344 72.1903 195.624 72.1743 195.96H63.1263C63.1583 196.392 63.2703 196.792 63.4623 197.16C63.6543 197.512 63.9023 197.824 64.2063 198.096C64.5103 198.352 64.8623 198.56 65.2623 198.72C65.6623 198.864 66.0783 198.936 66.5103 198.936C67.2783 198.936 67.8863 198.768 68.3343 198.432C68.7823 198.096 69.1743 197.672 69.5103 197.16L71.7903 198.24ZM69.4383 193.944C69.3903 193.56 69.2783 193.2 69.1023 192.864C68.9263 192.528 68.7023 192.24 68.4303 192C68.1583 191.76 67.8383 191.576 67.4703 191.448C67.1023 191.304 66.7103 191.232 66.2943 191.232C65.8783 191.232 65.4863 191.312 65.1183 191.472C64.7663 191.632 64.4463 191.84 64.1583 192.096C63.8863 192.336 63.6623 192.624 63.4863 192.96C63.3103 193.28 63.1983 193.608 63.1503 193.944H69.4383ZM74.1241 195.12C74.1241 194.24 74.2761 193.424 74.5801 192.672C74.8841 191.92 75.3081 191.272 75.8521 190.728C76.4121 190.168 77.0681 189.736 77.8201 189.432C78.5881 189.112 79.4281 188.952 80.3401 188.952C81.5081 188.952 82.5561 189.232 83.4841 189.792V192.552C82.5561 191.848 81.5881 191.496 80.5801 191.496C80.0521 191.496 79.5641 191.592 79.1161 191.784C78.6841 191.96 78.3001 192.216 77.9641 192.552C77.6441 192.872 77.3881 193.256 77.1961 193.704C77.0201 194.136 76.9321 194.608 76.9321 195.12C76.9321 195.632 77.0201 196.112 77.1961 196.56C77.3881 196.992 77.6441 197.376 77.9641 197.712C78.2841 198.032 78.6681 198.288 79.1161 198.48C79.5641 198.656 80.0521 198.744 80.5801 198.744C81.1401 198.744 81.6681 198.64 82.1641 198.432C82.6601 198.224 83.1161 197.976 83.5321 197.688V200.448C82.5401 201.008 81.4681 201.288 80.3161 201.288C79.4041 201.288 78.5641 201.136 77.7961 200.832C77.0441 200.528 76.3961 200.104 75.8521 199.56C75.3081 199 74.8841 198.344 74.5801 197.592C74.2761 196.84 74.1241 196.016 74.1241 195.12ZM89.7108 185.76V189.24H92.8308V191.592H89.7108V196.872C89.7108 197.528 89.8548 198.008 90.1428 198.312C90.4468 198.6 90.9108 198.744 91.5348 198.744C91.7588 198.744 91.9828 198.72 92.2068 198.672C92.4468 198.608 92.6548 198.512 92.8308 198.384V200.856C92.6068 200.984 92.3188 201.088 91.9668 201.168C91.6148 201.248 91.1988 201.288 90.7188 201.288C89.5348 201.288 88.6068 200.944 87.9348 200.256C87.2788 199.568 86.9508 198.608 86.9508 197.376V191.592H85.1988V189.24H86.9508V185.76H89.7108ZM111.753 201L108.993 193.056L106.209 201H103.977L99.7049 189.24H102.561L105.249 197.208L108.009 189.24H110.049L112.809 197.208L115.497 189.24H118.281L114.009 201H111.753ZM131.861 189.24V201H129.125V199.296C128.693 199.904 128.125 200.392 127.421 200.76C126.717 201.112 125.957 201.288 125.141 201.288C124.325 201.288 123.565 201.128 122.861 200.808C122.173 200.488 121.573 200.056 121.061 199.512C120.549 198.952 120.141 198.296 119.837 197.544C119.549 196.792 119.405 195.984 119.405 195.12C119.405 194.256 119.549 193.448 119.837 192.696C120.141 191.944 120.549 191.296 121.061 190.752C121.573 190.192 122.173 189.752 122.861 189.432C123.565 189.112 124.325 188.952 125.141 188.952C125.957 188.952 126.717 189.12 127.421 189.456C128.125 189.776 128.693 190.24 129.125 190.848V189.24H131.861ZM122.189 195.12C122.189 195.632 122.277 196.112 122.453 196.56C122.645 196.992 122.893 197.376 123.197 197.712C123.517 198.032 123.893 198.288 124.325 198.48C124.757 198.672 125.221 198.768 125.717 198.768C126.213 198.768 126.677 198.672 127.109 198.48C127.541 198.288 127.909 198.032 128.213 197.712C128.533 197.376 128.781 196.992 128.957 196.56C129.149 196.112 129.245 195.632 129.245 195.12C129.245 194.608 129.149 194.136 128.957 193.704C128.781 193.256 128.533 192.872 128.213 192.552C127.909 192.216 127.541 191.952 127.109 191.76C126.677 191.568 126.213 191.472 125.717 191.472C125.221 191.472 124.757 191.568 124.325 191.76C123.893 191.952 123.517 192.216 123.197 192.552C122.893 192.872 122.645 193.256 122.453 193.704C122.277 194.136 122.189 194.608 122.189 195.12ZM138.121 184.2V201H135.337V184.2H138.121ZM144.356 184.2V201H141.572V184.2H144.356ZM158.462 198.24C157.966 199.168 157.27 199.912 156.374 200.472C155.478 201.016 154.406 201.288 153.158 201.288C152.262 201.288 151.438 201.136 150.686 200.832C149.934 200.528 149.286 200.104 148.742 199.56C148.214 199.016 147.798 198.368 147.494 197.616C147.19 196.864 147.038 196.032 147.038 195.12C147.038 194.24 147.19 193.424 147.494 192.672C147.798 191.92 148.214 191.272 148.742 190.728C149.286 190.168 149.918 189.736 150.638 189.432C151.374 189.112 152.166 188.952 153.014 188.952C153.878 188.952 154.662 189.112 155.366 189.432C156.086 189.736 156.702 190.168 157.214 190.728C157.742 191.272 158.15 191.92 158.438 192.672C158.726 193.424 158.87 194.24 158.87 195.12C158.87 195.344 158.862 195.624 158.846 195.96H149.798C149.83 196.392 149.942 196.792 150.134 197.16C150.326 197.512 150.574 197.824 150.878 198.096C151.182 198.352 151.534 198.56 151.934 198.72C152.334 198.864 152.75 198.936 153.182 198.936C153.95 198.936 154.558 198.768 155.006 198.432C155.454 198.096 155.846 197.672 156.182 197.16L158.462 198.24ZM156.11 193.944C156.062 193.56 155.95 193.2 155.774 192.864C155.598 192.528 155.374 192.24 155.102 192C154.83 191.76 154.51 191.576 154.142 191.448C153.774 191.304 153.382 191.232 152.966 191.232C152.55 191.232 152.158 191.312 151.79 191.472C151.438 191.632 151.118 191.84 150.83 192.096C150.558 192.336 150.334 192.624 150.158 192.96C149.982 193.28 149.87 193.608 149.822 193.944H156.11ZM164.476 185.76V189.24H167.596V191.592H164.476V196.872C164.476 197.528 164.62 198.008 164.908 198.312C165.212 198.6 165.676 198.744 166.3 198.744C166.524 198.744 166.748 198.72 166.972 198.672C167.212 198.608 167.42 198.512 167.596 198.384V200.856C167.372 200.984 167.084 201.088 166.732 201.168C166.38 201.248 165.964 201.288 165.484 201.288C164.3 201.288 163.372 200.944 162.7 200.256C162.044 199.568 161.716 198.608 161.716 197.376V191.592H159.964V189.24H161.716V185.76H164.476ZM179.055 185.76V189.24H182.175V191.592H179.055V196.872C179.055 197.528 179.199 198.008 179.487 198.312C179.791 198.6 180.255 198.744 180.879 198.744C181.103 198.744 181.327 198.72 181.551 198.672C181.791 198.608 181.999 198.512 182.175 198.384V200.856C181.951 200.984 181.663 201.088 181.311 201.168C180.959 201.248 180.543 201.288 180.062 201.288C178.879 201.288 177.951 200.944 177.279 200.256C176.623 199.568 176.295 198.608 176.295 197.376V191.592H174.543V189.24H176.295V185.76H179.055ZM190.005 188.952C190.901 188.952 191.733 189.112 192.501 189.432C193.269 189.752 193.933 190.192 194.493 190.752C195.053 191.296 195.485 191.944 195.789 192.696C196.109 193.448 196.269 194.256 196.269 195.12C196.269 195.984 196.109 196.792 195.789 197.544C195.485 198.296 195.053 198.952 194.493 199.512C193.933 200.056 193.269 200.488 192.501 200.808C191.733 201.128 190.901 201.288 190.005 201.288C189.109 201.288 188.277 201.128 187.509 200.808C186.741 200.488 186.077 200.056 185.517 199.512C184.957 198.952 184.517 198.296 184.197 197.544C183.893 196.792 183.741 195.984 183.741 195.12C183.741 194.256 183.893 193.448 184.197 192.696C184.517 191.944 184.957 191.296 185.517 190.752C186.077 190.192 186.741 189.752 187.509 189.432C188.277 189.112 189.109 188.952 190.005 188.952ZM190.005 191.496C189.509 191.496 189.045 191.592 188.613 191.784C188.197 191.976 187.829 192.232 187.509 192.552C187.205 192.872 186.957 193.256 186.765 193.704C186.589 194.152 186.501 194.624 186.501 195.12C186.501 195.632 186.589 196.112 186.765 196.56C186.957 196.992 187.205 197.368 187.509 197.688C187.829 198.008 188.197 198.264 188.613 198.456C189.045 198.648 189.509 198.744 190.005 198.744C190.501 198.744 190.957 198.648 191.373 198.456C191.805 198.264 192.173 198.008 192.477 197.688C192.797 197.368 193.045 196.992 193.221 196.56C193.413 196.112 193.509 195.632 193.509 195.12C193.509 194.624 193.413 194.152 193.221 193.704C193.045 193.256 192.797 192.872 192.477 192.552C192.173 192.232 191.805 191.976 191.373 191.784C190.957 191.592 190.501 191.496 190.005 191.496ZM203.297 189.24H206.249L209.393 197.4L212.561 189.24H215.441L210.593 201H208.145L203.297 189.24ZM217.509 201V189.24H220.293V201H217.509ZM220.605 185.808C220.605 186.272 220.437 186.672 220.101 187.008C219.781 187.344 219.373 187.512 218.877 187.512C218.413 187.512 218.013 187.344 217.677 187.008C217.341 186.672 217.173 186.272 217.173 185.808C217.173 185.328 217.341 184.92 217.677 184.584C218.013 184.248 218.413 184.08 218.877 184.08C219.373 184.08 219.781 184.256 220.101 184.608C220.437 184.944 220.605 185.344 220.605 185.808ZM234.4 198.24C233.904 199.168 233.208 199.912 232.312 200.472C231.416 201.016 230.344 201.288 229.096 201.288C228.2 201.288 227.376 201.136 226.624 200.832C225.872 200.528 225.224 200.104 224.68 199.56C224.152 199.016 223.736 198.368 223.432 197.616C223.128 196.864 222.976 196.032 222.976 195.12C222.976 194.24 223.128 193.424 223.432 192.672C223.736 191.92 224.152 191.272 224.68 190.728C225.224 190.168 225.856 189.736 226.576 189.432C227.312 189.112 228.104 188.952 228.952 188.952C229.816 188.952 230.6 189.112 231.304 189.432C232.024 189.736 232.64 190.168 233.152 190.728C233.68 191.272 234.088 191.92 234.376 192.672C234.664 193.424 234.808 194.24 234.808 195.12C234.808 195.344 234.8 195.624 234.784 195.96H225.736C225.768 196.392 225.88 196.792 226.072 197.16C226.264 197.512 226.512 197.824 226.816 198.096C227.12 198.352 227.472 198.56 227.872 198.72C228.272 198.864 228.688 198.936 229.12 198.936C229.888 198.936 230.496 198.768 230.944 198.432C231.392 198.096 231.784 197.672 232.12 197.16L234.4 198.24ZM232.048 193.944C232 193.56 231.888 193.2 231.712 192.864C231.536 192.528 231.312 192.24 231.04 192C230.768 191.76 230.448 191.576 230.08 191.448C229.712 191.304 229.32 191.232 228.904 191.232C228.488 191.232 228.096 191.312 227.728 191.472C227.376 191.632 227.056 191.84 226.768 192.096C226.496 192.336 226.272 192.624 226.096 192.96C225.92 193.28 225.808 193.608 225.76 193.944H232.048ZM248.019 201L245.259 193.056L242.475 201H240.243L235.971 189.24H238.827L241.515 197.208L244.275 189.24H246.315L249.075 197.208L251.763 189.24H254.547L250.275 201H248.019ZM264.024 195.888C264.328 196.704 264.776 197.36 265.368 197.856C265.976 198.336 266.704 198.576 267.552 198.576C268.272 198.576 268.896 198.392 269.424 198.024C269.952 197.64 270.216 197.088 270.216 196.368C270.216 195.328 269.512 194.552 268.104 194.04L266.112 193.32C264.864 192.872 263.896 192.272 263.208 191.52C262.52 190.768 262.176 189.816 262.176 188.664C262.176 187.944 262.304 187.288 262.56 186.696C262.832 186.104 263.2 185.6 263.664 185.184C264.144 184.768 264.696 184.448 265.32 184.224C265.96 184 266.648 183.888 267.384 183.888C268.6 183.904 269.688 184.24 270.648 184.896C271.608 185.536 272.32 186.44 272.784 187.608L270.312 188.856C270.056 188.216 269.688 187.68 269.208 187.248C268.728 186.8 268.128 186.576 267.408 186.576C266.736 186.576 266.184 186.752 265.752 187.104C265.32 187.456 265.104 187.92 265.104 188.496C265.104 189.008 265.28 189.432 265.632 189.768C265.984 190.088 266.504 190.384 267.192 190.656L269.256 191.448C270.568 191.96 271.544 192.6 272.184 193.368C272.84 194.12 273.168 195.056 273.168 196.176C273.168 196.976 273.016 197.696 272.712 198.336C272.408 198.96 272 199.496 271.488 199.944C270.976 200.376 270.376 200.712 269.688 200.952C269 201.176 268.272 201.288 267.504 201.288C266.096 201.288 264.856 200.928 263.784 200.208C262.712 199.472 261.944 198.432 261.479 197.088L264.024 195.888ZM281.529 188.952C282.425 188.952 283.257 189.112 284.025 189.432C284.793 189.752 285.457 190.192 286.017 190.752C286.577 191.296 287.009 191.944 287.313 192.696C287.633 193.448 287.793 194.256 287.793 195.12C287.793 195.984 287.633 196.792 287.313 197.544C287.009 198.296 286.577 198.952 286.017 199.512C285.457 200.056 284.793 200.488 284.025 200.808C283.257 201.128 282.425 201.288 281.529 201.288C280.633 201.288 279.801 201.128 279.033 200.808C278.265 200.488 277.601 200.056 277.041 199.512C276.481 198.952 276.041 198.296 275.721 197.544C275.417 196.792 275.265 195.984 275.265 195.12C275.265 194.256 275.417 193.448 275.721 192.696C276.041 191.944 276.481 191.296 277.041 190.752C277.601 190.192 278.265 189.752 279.033 189.432C279.801 189.112 280.633 188.952 281.529 188.952ZM281.529 191.496C281.033 191.496 280.569 191.592 280.137 191.784C279.721 191.976 279.353 192.232 279.033 192.552C278.729 192.872 278.481 193.256 278.289 193.704C278.113 194.152 278.025 194.624 278.025 195.12C278.025 195.632 278.113 196.112 278.289 196.56C278.481 196.992 278.729 197.368 279.033 197.688C279.353 198.008 279.721 198.264 280.137 198.456C280.569 198.648 281.033 198.744 281.529 198.744C282.025 198.744 282.481 198.648 282.897 198.456C283.329 198.264 283.697 198.008 284.001 197.688C284.321 197.368 284.569 196.992 284.745 196.56C284.937 196.112 285.033 195.632 285.033 195.12C285.033 194.624 284.937 194.152 284.745 193.704C284.569 193.256 284.321 192.872 284.001 192.552C283.697 192.232 283.329 191.976 282.897 191.784C282.481 191.592 282.025 191.496 281.529 191.496ZM298.32 189.24H301.104V201H298.32V199.44C297.952 200 297.464 200.448 296.856 200.784C296.264 201.12 295.56 201.288 294.744 201.288C293.336 201.288 292.232 200.848 291.432 199.968C290.648 199.072 290.256 197.856 290.256 196.32V189.24H293.04V195.792C293.04 196.704 293.256 197.424 293.688 197.952C294.136 198.464 294.768 198.72 295.584 198.72C296.416 198.72 297.08 198.424 297.576 197.832C298.072 197.24 298.32 196.44 298.32 195.432V189.24ZM307.34 184.2V201H304.556V184.2H307.34ZM310.791 201V184.2H313.551V190.92C313.983 190.312 314.551 189.832 315.255 189.48C315.959 189.128 316.719 188.952 317.535 188.952C318.351 188.952 319.103 189.112 319.791 189.432C320.495 189.736 321.103 190.168 321.615 190.728C322.127 191.272 322.527 191.92 322.815 192.672C323.119 193.424 323.271 194.24 323.271 195.12C323.271 195.984 323.119 196.792 322.815 197.544C322.527 198.296 322.127 198.952 321.615 199.512C321.103 200.056 320.495 200.488 319.791 200.808C319.103 201.128 318.351 201.288 317.535 201.288C316.719 201.288 315.959 201.128 315.255 200.808C314.551 200.472 313.983 200 313.551 199.392V201H310.791ZM320.487 195.12C320.487 194.608 320.391 194.136 320.199 193.704C320.023 193.256 319.775 192.872 319.455 192.552C319.151 192.216 318.783 191.952 318.351 191.76C317.919 191.568 317.455 191.472 316.959 191.472C316.463 191.472 315.999 191.568 315.567 191.76C315.135 191.952 314.759 192.216 314.439 192.552C314.135 192.872 313.887 193.256 313.695 193.704C313.519 194.136 313.431 194.608 313.431 195.12C313.431 195.632 313.519 196.112 313.695 196.56C313.887 196.992 314.135 197.376 314.439 197.712C314.759 198.032 315.135 198.288 315.567 198.48C315.999 198.672 316.463 198.768 316.959 198.768C317.455 198.768 317.919 198.672 318.351 198.48C318.783 198.288 319.151 198.032 319.455 197.712C319.775 197.376 320.023 196.992 320.199 196.56C320.391 196.112 320.487 195.632 320.487 195.12ZM331.544 188.952C332.44 188.952 333.272 189.112 334.04 189.432C334.808 189.752 335.472 190.192 336.032 190.752C336.592 191.296 337.024 191.944 337.328 192.696C337.648 193.448 337.808 194.256 337.808 195.12C337.808 195.984 337.648 196.792 337.328 197.544C337.024 198.296 336.592 198.952 336.032 199.512C335.472 200.056 334.808 200.488 334.04 200.808C333.272 201.128 332.44 201.288 331.544 201.288C330.648 201.288 329.816 201.128 329.048 200.808C328.28 200.488 327.616 200.056 327.056 199.512C326.496 198.952 326.056 198.296 325.736 197.544C325.432 196.792 325.28 195.984 325.28 195.12C325.28 194.256 325.432 193.448 325.736 192.696C326.056 191.944 326.496 191.296 327.056 190.752C327.616 190.192 328.28 189.752 329.048 189.432C329.816 189.112 330.648 188.952 331.544 188.952ZM331.544 191.496C331.048 191.496 330.584 191.592 330.152 191.784C329.736 191.976 329.368 192.232 329.048 192.552C328.744 192.872 328.496 193.256 328.304 193.704C328.128 194.152 328.04 194.624 328.04 195.12C328.04 195.632 328.128 196.112 328.304 196.56C328.496 196.992 328.744 197.368 329.048 197.688C329.368 198.008 329.736 198.264 330.152 198.456C330.584 198.648 331.048 198.744 331.544 198.744C332.04 198.744 332.496 198.648 332.912 198.456C333.344 198.264 333.712 198.008 334.016 197.688C334.336 197.368 334.584 196.992 334.76 196.56C334.952 196.112 335.048 195.632 335.048 195.12C335.048 194.624 334.952 194.152 334.76 193.704C334.584 193.256 334.336 192.872 334.016 192.552C333.712 192.232 333.344 191.976 332.912 191.784C332.496 191.592 332.04 191.496 331.544 191.496ZM348.336 189.24H351.12V201H348.336V199.44C347.968 200 347.48 200.448 346.872 200.784C346.28 201.12 345.576 201.288 344.76 201.288C343.352 201.288 342.248 200.848 341.448 199.968C340.664 199.072 340.271 197.856 340.271 196.32V189.24H343.056V195.792C343.056 196.704 343.272 197.424 343.704 197.952C344.152 198.464 344.784 198.72 345.6 198.72C346.432 198.72 347.096 198.424 347.592 197.832C348.088 197.24 348.336 196.44 348.336 195.432V189.24ZM357.356 201H354.572V189.24H357.356V190.8C357.724 190.24 358.204 189.792 358.796 189.456C359.404 189.12 360.124 188.952 360.956 188.952C362.396 188.952 363.516 189.4 364.316 190.296C365.116 191.176 365.516 192.384 365.516 193.92V201H362.732V194.448C362.732 193.536 362.508 192.824 362.06 192.312C361.612 191.784 360.964 191.52 360.116 191.52C359.284 191.52 358.612 191.816 358.1 192.408C357.604 193 357.356 193.8 357.356 194.808V201ZM377.774 201V199.32C377.342 199.928 376.774 200.408 376.07 200.76C375.366 201.112 374.606 201.288 373.79 201.288C372.974 201.288 372.214 201.136 371.51 200.832C370.822 200.512 370.222 200.08 369.71 199.536C369.198 198.976 368.79 198.32 368.486 197.568C368.198 196.816 368.054 196 368.054 195.12C368.054 194.256 368.198 193.448 368.486 192.696C368.79 191.944 369.198 191.296 369.71 190.752C370.222 190.192 370.822 189.752 371.51 189.432C372.214 189.112 372.974 188.952 373.79 188.952C374.606 188.952 375.366 189.12 376.07 189.456C376.774 189.776 377.342 190.24 377.774 190.848V184.2H380.534V201H377.774ZM370.838 195.12C370.838 195.632 370.926 196.112 371.102 196.56C371.294 196.992 371.542 197.376 371.846 197.712C372.166 198.032 372.542 198.288 372.974 198.48C373.406 198.672 373.87 198.768 374.366 198.768C374.862 198.768 375.326 198.672 375.758 198.48C376.19 198.288 376.558 198.032 376.862 197.712C377.182 197.376 377.43 196.992 377.606 196.56C377.798 196.112 377.894 195.632 377.894 195.12C377.894 194.608 377.798 194.136 377.606 193.704C377.43 193.256 377.182 192.872 376.862 192.552C376.558 192.216 376.19 191.952 375.758 191.76C375.326 191.568 374.862 191.472 374.366 191.472C373.87 191.472 373.406 191.568 372.974 191.76C372.542 191.952 372.166 192.216 371.846 192.552C371.542 192.872 371.294 193.256 371.102 193.704C370.926 194.136 370.838 194.608 370.838 195.12ZM392.992 185.76V189.24H396.112V191.592H392.992V196.872C392.992 197.528 393.136 198.008 393.424 198.312C393.728 198.6 394.192 198.744 394.816 198.744C395.04 198.744 395.264 198.72 395.488 198.672C395.728 198.608 395.936 198.512 396.112 198.384V200.856C395.888 200.984 395.6 201.088 395.248 201.168C394.896 201.248 394.48 201.288 394 201.288C392.816 201.288 391.888 200.944 391.216 200.256C390.56 199.568 390.232 198.608 390.232 197.376V191.592H388.48V189.24H390.232V185.76H392.992ZM403.943 188.952C404.839 188.952 405.671 189.112 406.439 189.432C407.207 189.752 407.871 190.192 408.431 190.752C408.991 191.296 409.423 191.944 409.727 192.696C410.047 193.448 410.207 194.256 410.207 195.12C410.207 195.984 410.047 196.792 409.727 197.544C409.423 198.296 408.991 198.952 408.431 199.512C407.871 200.056 407.207 200.488 406.439 200.808C405.671 201.128 404.839 201.288 403.943 201.288C403.047 201.288 402.215 201.128 401.447 200.808C400.679 200.488 400.015 200.056 399.455 199.512C398.895 198.952 398.455 198.296 398.135 197.544C397.831 196.792 397.679 195.984 397.679 195.12C397.679 194.256 397.831 193.448 398.135 192.696C398.455 191.944 398.895 191.296 399.455 190.752C400.015 190.192 400.679 189.752 401.447 189.432C402.215 189.112 403.047 188.952 403.943 188.952ZM403.943 191.496C403.447 191.496 402.983 191.592 402.551 191.784C402.135 191.976 401.767 192.232 401.447 192.552C401.143 192.872 400.895 193.256 400.703 193.704C400.527 194.152 400.439 194.624 400.439 195.12C400.439 195.632 400.527 196.112 400.703 196.56C400.895 196.992 401.143 197.368 401.447 197.688C401.767 198.008 402.135 198.264 402.551 198.456C402.983 198.648 403.447 198.744 403.943 198.744C404.439 198.744 404.895 198.648 405.311 198.456C405.743 198.264 406.111 198.008 406.415 197.688C406.735 197.368 406.983 196.992 407.159 196.56C407.351 196.112 407.447 195.632 407.447 195.12C407.447 194.624 407.351 194.152 407.159 193.704C406.983 193.256 406.735 192.872 406.415 192.552C406.111 192.232 405.743 191.976 405.311 191.784C404.895 191.592 404.439 191.496 403.943 191.496ZM423.468 189.24L418.356 194.352L423.852 201H420.444L416.244 195.792L415.644 196.344V201H412.884V184.2H415.644V193.68L420.06 189.24H423.468ZM435.54 198.24C435.044 199.168 434.348 199.912 433.452 200.472C432.556 201.016 431.484 201.288 430.236 201.288C429.34 201.288 428.516 201.136 427.764 200.832C427.012 200.528 426.364 200.104 425.82 199.56C425.292 199.016 424.876 198.368 424.572 197.616C424.268 196.864 424.116 196.032 424.116 195.12C424.116 194.24 424.268 193.424 424.572 192.672C424.876 191.92 425.292 191.272 425.82 190.728C426.364 190.168 426.996 189.736 427.716 189.432C428.452 189.112 429.244 188.952 430.092 188.952C430.956 188.952 431.74 189.112 432.444 189.432C433.164 189.736 433.78 190.168 434.292 190.728C434.82 191.272 435.228 191.92 435.516 192.672C435.804 193.424 435.948 194.24 435.948 195.12C435.948 195.344 435.94 195.624 435.924 195.96H426.876C426.908 196.392 427.02 196.792 427.212 197.16C427.404 197.512 427.652 197.824 427.956 198.096C428.26 198.352 428.612 198.56 429.012 198.72C429.412 198.864 429.828 198.936 430.26 198.936C431.028 198.936 431.636 198.768 432.084 198.432C432.532 198.096 432.924 197.672 433.26 197.16L435.54 198.24ZM433.188 193.944C433.14 193.56 433.028 193.2 432.852 192.864C432.676 192.528 432.452 192.24 432.18 192C431.908 191.76 431.588 191.576 431.22 191.448C430.852 191.304 430.46 191.232 430.044 191.232C429.628 191.232 429.236 191.312 428.868 191.472C428.516 191.632 428.196 191.84 427.908 192.096C427.636 192.336 427.412 192.624 427.236 192.96C427.06 193.28 426.948 193.608 426.9 193.944H433.188ZM441.309 201H438.525V189.24H441.309V190.8C441.677 190.24 442.157 189.792 442.749 189.456C443.357 189.12 444.077 188.952 444.909 188.952C446.349 188.952 447.469 189.4 448.269 190.296C449.069 191.176 449.469 192.384 449.469 193.92V201H446.685V194.448C446.685 193.536 446.461 192.824 446.013 192.312C445.565 191.784 444.917 191.52 444.069 191.52C443.237 191.52 442.565 191.816 442.053 192.408C441.557 193 441.309 193.8 441.309 194.808V201ZM458.517 201V189.24H461.301V201H458.517ZM461.613 185.808C461.613 186.272 461.445 186.672 461.109 187.008C460.789 187.344 460.381 187.512 459.885 187.512C459.421 187.512 459.021 187.344 458.685 187.008C458.349 186.672 458.181 186.272 458.181 185.808C458.181 185.328 458.349 184.92 458.685 184.584C459.021 184.248 459.421 184.08 459.885 184.08C460.381 184.08 460.789 184.256 461.109 184.608C461.445 184.944 461.613 185.344 461.613 185.808ZM467.535 201H464.751V189.24H467.535V190.8C467.903 190.24 468.383 189.792 468.975 189.456C469.583 189.12 470.303 188.952 471.135 188.952C472.575 188.952 473.695 189.4 474.495 190.296C475.295 191.176 475.695 192.384 475.695 193.92V201H472.911V194.448C472.911 193.536 472.687 192.824 472.239 192.312C471.791 191.784 471.143 191.52 470.295 191.52C469.463 191.52 468.791 191.816 468.279 192.408C467.783 193 467.535 193.8 467.535 194.808V201ZM482.22 189.24H485.388V191.592H482.22V201H479.436V191.592H477.684V189.24H479.436V188.544C479.436 187.76 479.54 187.072 479.748 186.48C479.972 185.888 480.284 185.392 480.684 184.992C481.084 184.592 481.556 184.288 482.1 184.08C482.644 183.872 483.252 183.768 483.924 183.768C484.324 183.768 484.668 183.8 484.956 183.864C485.26 183.928 485.516 184.008 485.724 184.104V186.552C485.548 186.456 485.34 186.376 485.1 186.312C484.876 186.248 484.62 186.216 484.332 186.216C483.724 186.216 483.22 186.392 482.82 186.744C482.42 187.096 482.22 187.688 482.22 188.52V189.24ZM492.49 188.952C493.386 188.952 494.218 189.112 494.986 189.432C495.754 189.752 496.418 190.192 496.978 190.752C497.538 191.296 497.97 191.944 498.274 192.696C498.594 193.448 498.754 194.256 498.754 195.12C498.754 195.984 498.594 196.792 498.274 197.544C497.97 198.296 497.538 198.952 496.978 199.512C496.418 200.056 495.754 200.488 494.986 200.808C494.218 201.128 493.386 201.288 492.49 201.288C491.594 201.288 490.762 201.128 489.994 200.808C489.226 200.488 488.562 200.056 488.002 199.512C487.442 198.952 487.002 198.296 486.682 197.544C486.378 196.792 486.226 195.984 486.226 195.12C486.226 194.256 486.378 193.448 486.682 192.696C487.002 191.944 487.442 191.296 488.002 190.752C488.562 190.192 489.226 189.752 489.994 189.432C490.762 189.112 491.594 188.952 492.49 188.952ZM492.49 191.496C491.994 191.496 491.53 191.592 491.098 191.784C490.682 191.976 490.314 192.232 489.994 192.552C489.69 192.872 489.442 193.256 489.25 193.704C489.074 194.152 488.986 194.624 488.986 195.12C488.986 195.632 489.074 196.112 489.25 196.56C489.442 196.992 489.69 197.368 489.994 197.688C490.314 198.008 490.682 198.264 491.098 198.456C491.53 198.648 491.994 198.744 492.49 198.744C492.986 198.744 493.442 198.648 493.858 198.456C494.29 198.264 494.658 198.008 494.962 197.688C495.282 197.368 495.53 196.992 495.706 196.56C495.898 196.112 495.994 195.632 495.994 195.12C495.994 194.624 495.898 194.152 495.706 193.704C495.53 193.256 495.282 192.872 494.962 192.552C494.658 192.232 494.29 191.976 493.858 191.784C493.442 191.592 492.986 191.496 492.49 191.496ZM508.199 191.904C508.071 191.84 507.831 191.808 507.479 191.808C506.455 191.808 505.647 192.176 505.055 192.912C504.479 193.632 504.191 194.6 504.191 195.816V201H501.431V189.24H504.167V191.256C504.455 190.568 504.919 190.024 505.559 189.624C506.199 189.208 506.903 189 507.671 189C507.975 189 508.151 189.024 508.199 189.072V191.904ZM513.285 201H510.501V189.24H513.285V190.8C513.605 190.24 514.045 189.792 514.605 189.456C515.165 189.12 515.845 188.952 516.645 188.952C517.493 188.952 518.221 189.144 518.829 189.528C519.437 189.912 519.901 190.448 520.221 191.136C520.381 190.848 520.581 190.576 520.821 190.32C521.077 190.064 521.365 189.832 521.685 189.624C522.005 189.416 522.365 189.256 522.765 189.144C523.181 189.016 523.637 188.952 524.133 188.952C525.493 188.952 526.541 189.392 527.277 190.272C528.029 191.136 528.405 192.304 528.405 193.776V201H525.621V194.304C525.621 193.44 525.429 192.76 525.045 192.264C524.661 191.752 524.101 191.496 523.365 191.496C522.613 191.496 522.005 191.784 521.541 192.36C521.093 192.92 520.861 193.68 520.845 194.64V201H518.061V194.4C518.061 193.488 517.869 192.776 517.485 192.264C517.101 191.752 516.541 191.496 515.805 191.496C515.037 191.496 514.421 191.792 513.957 192.384C513.509 192.96 513.285 193.752 513.285 194.76V201ZM543.4 189.24V201H540.664V199.296C540.232 199.904 539.664 200.392 538.96 200.76C538.256 201.112 537.496 201.288 536.68 201.288C535.864 201.288 535.104 201.128 534.4 200.808C533.712 200.488 533.112 200.056 532.6 199.512C532.088 198.952 531.68 198.296 531.376 197.544C531.088 196.792 530.944 195.984 530.944 195.12C530.944 194.256 531.088 193.448 531.376 192.696C531.68 191.944 532.088 191.296 532.6 190.752C533.112 190.192 533.712 189.752 534.4 189.432C535.104 189.112 535.864 188.952 536.68 188.952C537.496 188.952 538.256 189.12 538.96 189.456C539.664 189.776 540.232 190.24 540.664 190.848V189.24H543.4ZM533.728 195.12C533.728 195.632 533.816 196.112 533.992 196.56C534.184 196.992 534.432 197.376 534.736 197.712C535.056 198.032 535.432 198.288 535.864 198.48C536.296 198.672 536.76 198.768 537.256 198.768C537.752 198.768 538.216 198.672 538.648 198.48C539.08 198.288 539.448 198.032 539.752 197.712C540.072 197.376 540.32 196.992 540.496 196.56C540.688 196.112 540.784 195.632 540.784 195.12C540.784 194.608 540.688 194.136 540.496 193.704C540.32 193.256 540.072 192.872 539.752 192.552C539.448 192.216 539.08 191.952 538.648 191.76C538.216 191.568 537.752 191.472 537.256 191.472C536.76 191.472 536.296 191.568 535.864 191.76C535.432 191.952 535.056 192.216 534.736 192.552C534.432 192.872 534.184 193.256 533.992 193.704C533.816 194.136 533.728 194.608 533.728 195.12ZM550.14 185.76V189.24H553.26V191.592H550.14V196.872C550.14 197.528 550.284 198.008 550.572 198.312C550.876 198.6 551.34 198.744 551.964 198.744C552.188 198.744 552.412 198.72 552.636 198.672C552.876 198.608 553.084 198.512 553.26 198.384V200.856C553.036 200.984 552.748 201.088 552.396 201.168C552.044 201.248 551.628 201.288 551.148 201.288C549.964 201.288 549.036 200.944 548.364 200.256C547.708 199.568 547.38 198.608 547.38 197.376V191.592H545.628V189.24H547.38V185.76H550.14ZM555.876 201V189.24H558.66V201H555.876ZM558.972 185.808C558.972 186.272 558.804 186.672 558.468 187.008C558.148 187.344 557.74 187.512 557.244 187.512C556.78 187.512 556.38 187.344 556.044 187.008C555.708 186.672 555.54 186.272 555.54 185.808C555.54 185.328 555.708 184.92 556.044 184.584C556.38 184.248 556.78 184.08 557.244 184.08C557.74 184.08 558.148 184.256 558.468 184.608C558.804 184.944 558.972 185.344 558.972 185.808ZM567.607 188.952C568.503 188.952 569.335 189.112 570.103 189.432C570.871 189.752 571.535 190.192 572.095 190.752C572.655 191.296 573.087 191.944 573.391 192.696C573.711 193.448 573.871 194.256 573.871 195.12C573.871 195.984 573.711 196.792 573.391 197.544C573.087 198.296 572.655 198.952 572.095 199.512C571.535 200.056 570.871 200.488 570.103 200.808C569.335 201.128 568.503 201.288 567.607 201.288C566.711 201.288 565.879 201.128 565.111 200.808C564.343 200.488 563.679 200.056 563.119 199.512C562.559 198.952 562.119 198.296 561.799 197.544C561.495 196.792 561.343 195.984 561.343 195.12C561.343 194.256 561.495 193.448 561.799 192.696C562.119 191.944 562.559 191.296 563.119 190.752C563.679 190.192 564.343 189.752 565.111 189.432C565.879 189.112 566.711 188.952 567.607 188.952ZM567.607 191.496C567.111 191.496 566.647 191.592 566.215 191.784C565.799 191.976 565.431 192.232 565.111 192.552C564.807 192.872 564.559 193.256 564.367 193.704C564.191 194.152 564.103 194.624 564.103 195.12C564.103 195.632 564.191 196.112 564.367 196.56C564.559 196.992 564.807 197.368 565.111 197.688C565.431 198.008 565.799 198.264 566.215 198.456C566.647 198.648 567.111 198.744 567.607 198.744C568.103 198.744 568.559 198.648 568.975 198.456C569.407 198.264 569.775 198.008 570.079 197.688C570.399 197.368 570.647 196.992 570.823 196.56C571.015 196.112 571.111 195.632 571.111 195.12C571.111 194.624 571.015 194.152 570.823 193.704C570.647 193.256 570.399 192.872 570.079 192.552C569.775 192.232 569.407 191.976 568.975 191.784C568.559 191.592 568.103 191.496 567.607 191.496ZM579.332 201H576.548V189.24H579.332V190.8C579.7 190.24 580.18 189.792 580.772 189.456C581.38 189.12 582.1 188.952 582.932 188.952C584.372 188.952 585.492 189.4 586.292 190.296C587.092 191.176 587.492 192.384 587.492 193.92V201H584.708V194.448C584.708 193.536 584.484 192.824 584.036 192.312C583.588 191.784 582.94 191.52 582.092 191.52C581.26 191.52 580.588 191.816 580.076 192.408C579.58 193 579.332 193.8 579.332 194.808V201Z" fill="#898989"/>
<defs>
<linearGradient id="paint0_linear_2863_5093" x1="297.001" y1="134.014" x2="296.991" y2="63.9843" gradientUnits="userSpaceOnUse">
<stop stop-color="#F0EEFF" stop-opacity="0"/>
<stop offset="0.5001" stop-color="#E9E8FD" stop-opacity="0.5001"/>
<stop offset="1" stop-color="#DDDCF9"/>
</linearGradient>
<linearGradient id="paint1_linear_2863_5093" x1="324.001" y1="108" x2="330" y2="108" gradientUnits="userSpaceOnUse">
<stop stop-color="#00FF7C"/>
<stop offset="1" stop-color="#00C4FF"/>
</linearGradient>
<linearGradient id="paint2_linear_2863_5093" x1="259.008" y1="86.5" x2="330" y2="86.5" gradientUnits="userSpaceOnUse">
<stop stop-color="#00FF7C"/>
<stop offset="1" stop-color="#00C4FF"/>
</linearGradient>
<linearGradient id="paint3_linear_2863_5093" x1="259.008" y1="131.5" x2="330" y2="131.5" gradientUnits="userSpaceOnUse">
<stop stop-color="#00FF7C"/>
<stop offset="1" stop-color="#00C4FF"/>
</linearGradient>
<clipPath id="clip0_2863_5093">
<rect width="250" height="200" fill="white" transform="translate(170)"/>
</clipPath>
</defs>
</svg>
