<svg width="250" height="200" viewBox="0 0 250 200" fill="none" xmlns="http://www.w3.org/2000/svg">
<g clip-path="url(#clip0_2627_80690)">
<rect width="250" height="200" fill="white"/>
<path fill-rule="evenodd" clip-rule="evenodd" d="M207 65C210.866 65 214 68.134 214 72C214 75.866 210.866 79 207 79H167C170.866 79 174 82.134 174 86C174 89.866 170.866 93 167 93H189C192.866 93 196 96.134 196 100C196 103.866 192.866 107 189 107H178.826C173.952 107 170 110.134 170 114C170 116.577 172 118.911 176 121C179.866 121 183 124.134 183 128C183 131.866 179.866 135 176 135H93C89.134 135 86 131.866 86 128C86 124.134 89.134 121 93 121H54C50.134 121 47 117.866 47 114C47 110.134 50.134 107 54 107H94C97.866 107 101 103.866 101 100C101 96.134 97.866 93 94 93H69C65.134 93 62 89.866 62 86C62 82.134 65.134 79 69 79H109C105.134 79 102 75.866 102 72C102 68.134 105.134 65 109 65H207ZM207 93C210.866 93 214 96.134 214 100C214 103.866 210.866 107 207 107C203.134 107 200 103.866 200 100C200 96.134 203.134 93 207 93Z" fill="url(#paint0_linear_2627_80690)"/>
<path fill-rule="evenodd" clip-rule="evenodd" d="M86.2621 138.131H81.7422C79.533 138.131 77.7422 136.34 77.7422 134.131C77.7422 133.378 77.9547 132.641 78.3552 132.003L117.611 69.522C118.786 67.6514 121.255 67.0877 123.126 68.2629C123.635 68.5827 124.065 69.013 124.385 69.522L163.64 132.003C164.815 133.874 164.252 136.343 162.381 137.518C161.744 137.919 161.006 138.131 160.253 138.131H99.9113H86.2621ZM95.6358 138.131H90.0443Z" fill="white"/>
<path d="M95.6358 138.131H90.0443M86.2621 138.131H81.7422C79.533 138.131 77.7422 136.34 77.7422 134.131C77.7422 133.378 77.9547 132.641 78.3552 132.003L117.611 69.522C118.786 67.6514 121.255 67.0877 123.126 68.2629C123.635 68.5827 124.065 69.013 124.385 69.522L163.64 132.003C164.815 133.874 164.252 136.343 162.381 137.518C161.744 137.919 161.006 138.131 160.253 138.131H99.9113H86.2621Z" stroke="#FF4747" stroke-width="2.5" stroke-linecap="round" stroke-linejoin="round"/>
<path fill-rule="evenodd" clip-rule="evenodd" d="M152.062 120.861L159.636 133.105C159.926 133.575 159.781 134.191 159.311 134.481C159.153 134.579 158.971 134.631 158.785 134.631H83.2109C82.6587 134.631 82.2109 134.183 82.2109 133.631C82.2109 133.445 82.2627 133.263 82.3604 133.105L104.714 96.9619C115.801 111.36 132.873 120.654 152.062 120.861Z" fill="#F3FFFD"/>
<path d="M124.25 112.75V90.75C124.25 88.9551 122.795 87.5 121 87.5C119.205 87.5 117.75 88.9551 117.75 90.75V112.75C117.75 114.545 119.205 116 121 116C122.795 116 124.25 114.545 124.25 112.75Z" fill="#F3FFFD" stroke="#FF4747" stroke-width="2.5" stroke-linecap="round"/>
<path d="M121 127.5C122.795 127.5 124.25 126.045 124.25 124.25C124.25 122.455 122.795 121 121 121C119.205 121 117.75 122.455 117.75 124.25C117.75 126.045 119.205 127.5 121 127.5Z" fill="#F3FFFD" stroke="#FF4747" stroke-width="2.5" stroke-linecap="round"/>
<path d="M151.852 80.9038C153.508 80.9038 154.852 79.5607 154.852 77.9038C154.852 76.247 153.508 74.9038 151.852 74.9038C150.195 74.9038 148.852 76.247 148.852 77.9038C148.852 79.5607 150.195 80.9038 151.852 80.9038Z" stroke="url(#paint1_linear_2627_80690)" stroke-width="2"/>
<path d="M176.66 92.1729C178.317 92.1729 179.66 90.8297 179.66 89.1729C179.66 87.516 178.317 86.1729 176.66 86.1729C175.003 86.1729 173.66 87.516 173.66 89.1729C173.66 90.8297 175.003 92.1729 176.66 92.1729Z" fill="url(#paint2_linear_2627_80690)"/>
<path d="M155.203 94.0513L163.561 102.409M163.688 94.0513L155.33 102.409L163.688 94.0513Z" stroke="url(#paint3_linear_2627_80690)" stroke-width="2.5" stroke-linecap="round" stroke-linejoin="round"/>
<path d="M73.9141 100.365L79.9141 106.365M79.9141 100.365L73.9141 106.365L79.9141 100.365Z" stroke="url(#paint4_linear_2627_80690)" stroke-width="2.5" stroke-linecap="round" stroke-linejoin="round"/>
<path d="M87.5117 93.769C89.1686 93.769 90.5117 92.4259 90.5117 90.769C90.5117 89.1122 89.1686 87.769 87.5117 87.769C85.8549 87.769 84.5117 89.1122 84.5117 90.769C84.5117 92.4259 85.8549 93.769 87.5117 93.769Z" fill="url(#paint5_linear_2627_80690)"/>
</g>
<defs>
<linearGradient id="paint0_linear_2627_80690" x1="132.047" y1="135.014" x2="132.035" y2="64.9843" gradientUnits="userSpaceOnUse">
<stop stop-color="#F0EEFF" stop-opacity="0"/>
<stop offset="0.5001" stop-color="#E9E8FD" stop-opacity="0.5001"/>
<stop offset="1" stop-color="#DDDCF9"/>
</linearGradient>
<linearGradient id="paint1_linear_2627_80690" x1="148.852" y1="77.9038" x2="154.852" y2="77.9038" gradientUnits="userSpaceOnUse">
<stop stop-color="#00FF7C"/>
<stop offset="1" stop-color="#00C4FF"/>
</linearGradient>
<linearGradient id="paint2_linear_2627_80690" x1="173.661" y1="89.1728" x2="179.66" y2="89.1728" gradientUnits="userSpaceOnUse">
<stop stop-color="#00FF7C"/>
<stop offset="1" stop-color="#00C4FF"/>
</linearGradient>
<linearGradient id="paint3_linear_2627_80690" x1="155.204" y1="98.2304" x2="163.688" y2="98.2304" gradientUnits="userSpaceOnUse">
<stop stop-color="#00FF7C"/>
<stop offset="1" stop-color="#00C4FF"/>
</linearGradient>
<linearGradient id="paint4_linear_2627_80690" x1="73.9147" y1="103.365" x2="79.9141" y2="103.365" gradientUnits="userSpaceOnUse">
<stop stop-color="#00FF7C"/>
<stop offset="1" stop-color="#00C4FF"/>
</linearGradient>
<linearGradient id="paint5_linear_2627_80690" x1="84.5124" y1="90.769" x2="90.5118" y2="90.769" gradientUnits="userSpaceOnUse">
<stop stop-color="#00FF7C"/>
<stop offset="1" stop-color="#00C4FF"/>
</linearGradient>
<clipPath id="clip0_2627_80690">
<rect width="250" height="200" fill="white"/>
</clipPath>
</defs>
</svg>
