<svg width="130" height="104" viewBox="0 0 130 104" fill="none" xmlns="http://www.w3.org/2000/svg">
<rect width="130" height="104" fill="white"/>
<path fillRule="evenodd" clipRule="evenodd" d="M32.7598 69.6803H80.0798C80.3476 69.6803 80.6086 69.6514 80.8598 69.5965C81.1111 69.6514 81.3721 69.6803 81.6398 69.6803H108.68C110.69 69.6803 112.32 68.0506 112.32 66.0403C112.32 64.03 110.69 62.4003 108.68 62.4003H105.56C103.55 62.4003 101.92 60.7706 101.92 58.7603C101.92 56.75 103.55 55.1203 105.56 55.1203H115.44C117.45 55.1203 119.08 53.4906 119.08 51.4803C119.08 49.47 117.45 47.8403 115.44 47.8403H104C106.01 47.8403 107.64 46.2106 107.64 44.2003C107.64 42.19 106.01 40.5603 104 40.5603H70.7198C72.7302 40.5603 74.3598 38.9306 74.3598 36.9203C74.3598 34.91 72.7302 33.2803 70.7198 33.2803H41.0798C39.0695 33.2803 37.4398 34.91 37.4398 36.9203C37.4398 38.9306 39.0695 40.5603 41.0798 40.5603H20.2798C18.2695 40.5603 16.6398 42.19 16.6398 44.2003C16.6398 46.2106 18.2695 47.8403 20.2798 47.8403H33.2798C35.2902 47.8403 36.9198 49.47 36.9198 51.4803C36.9198 53.4906 35.2902 55.1203 33.2798 55.1203H12.4798C10.4695 55.1203 8.83984 56.75 8.83984 58.7603C8.83984 60.7706 10.4695 62.4003 12.4798 62.4003H32.7598C30.7495 62.4003 29.1198 64.03 29.1198 66.0403C29.1198 68.0506 30.7495 69.6803 32.7598 69.6803ZM117.52 69.6803C119.53 69.6803 121.16 68.0506 121.16 66.0403C121.16 64.03 119.53 62.4003 117.52 62.4003C115.51 62.4003 113.88 64.03 113.88 66.0403C113.88 68.0506 115.51 69.6803 117.52 69.6803Z" fill="url(#paint0_linear_1425_99275)"/>
<path fillRule="evenodd" clipRule="evenodd" d="M47.8384 72.7997C41.5203 72.7997 36.3984 67.7942 36.3984 61.6197C36.3984 55.4451 41.5203 50.4397 47.8384 50.4397C48.1071 50.4397 48.3736 50.4487 48.6377 50.4665C48.4542 49.4453 48.3584 48.3937 48.3584 47.3197C48.3584 37.5553 56.274 29.6396 66.0384 29.6396C73.8338 29.6396 80.4508 34.6847 82.8025 41.6878C83.3597 41.6295 83.9255 41.5997 84.4984 41.5997C93.2577 41.5997 100.358 48.584 100.358 57.1997C100.358 65.3848 93.9496 72.1379 85.7984 72.7883V72.7997H56.4225H47.8384ZM54.0763 72.7997H50.4548Z" fill="white"/>
<path d="M54.0763 72.7997H50.4548M47.8384 72.7997C41.5203 72.7997 36.3984 67.7942 36.3984 61.6197C36.3984 55.4451 41.5203 50.4397 47.8384 50.4397C48.1071 50.4397 48.3736 50.4487 48.6377 50.4665C48.4542 49.4453 48.3584 48.3937 48.3584 47.3197C48.3584 37.5553 56.274 29.6396 66.0384 29.6396C73.8338 29.6396 80.4508 34.6847 82.8025 41.6878C83.3597 41.6295 83.9255 41.5997 84.4984 41.5997C93.2577 41.5997 100.358 48.584 100.358 57.1997C100.358 65.3848 93.9496 72.1379 85.7984 72.7883V72.7997H56.4225H47.8384Z" stroke="#0DB774" strokeWidth="2.5" strokeLinecap="round"/>
<path fillRule="evenodd" clipRule="evenodd" d="M60.6389 33.4579C60.6389 50.214 75.7295 64.0211 95.1605 65.8853C92.7255 68.8796 88.965 70.9109 84.6809 71.23V71.2398H49.7869C45.5532 71.2398 38.4805 69.456 38.4805 61.6449C38.4805 53.8338 43.979 52.0501 49.7869 52.0501C50.0338 52.0501 50.2788 52.0578 50.5215 52.0731C50.3529 51.1967 50.3232 50.2933 50.2649 49.3724C49.8704 43.1515 52.5844 35.3114 60.6483 32.7598C60.6418 32.9924 60.6389 33.2249 60.6389 33.4579ZM66.101 59.6739C64.5208 59.6739 63.2399 60.9397 63.2399 62.5011C63.2399 64.0625 64.5208 65.3283 66.101 65.3283C67.6811 65.3283 68.962 64.0625 68.962 62.5011C68.962 60.9397 67.6811 59.6739 66.101 59.6739Z" fill="#F3FFFD"/>
<path d="M66.3014 65.5198C67.8809 65.5198 69.1614 64.2393 69.1614 62.6598C69.1614 61.0803 67.8809 59.7998 66.3014 59.7998C64.7219 59.7998 63.4414 61.0803 63.4414 62.6598C63.4414 64.2393 64.7219 65.5198 66.3014 65.5198Z" stroke="#0DB774" strokeWidth="2.5"/>
<path d="M58.2383 56.6801L61.8783 53.8237L58.2383 51.1045" stroke="#0DB774" strokeWidth="2.5" strokeLinecap="round" strokeLinejoin="round"/>
<path d="M74.3594 56.6801L70.7194 53.8237L74.3594 51.1045" stroke="#0DB774" strokeWidth="2.5" strokeLinecap="round" strokeLinejoin="round"/>
<path d="M71.2415 34.8398C74.6261 35.7356 77.2986 38.3825 78.2305 41.7523" stroke="url(#paint1_linear_1425_99275)" strokeWidth="2.5" strokeLinecap="round"/>
<path d="M82.1616 25.9999C83.0231 25.9999 83.7216 25.3014 83.7216 24.4399C83.7216 23.5783 83.0231 22.8799 82.1616 22.8799C81.3 22.8799 80.6016 23.5783 80.6016 24.4399C80.6016 25.3014 81.3 25.9999 82.1616 25.9999Z" stroke="url(#paint2_linear_1425_99275)" strokeWidth="2"/>
<path d="M98.2787 34.3202C99.1403 34.3202 99.8387 33.6218 99.8387 32.7602C99.8387 31.8986 99.1403 31.2002 98.2787 31.2002C97.4172 31.2002 96.7188 31.8986 96.7188 32.7602C96.7188 33.6218 97.4172 34.3202 98.2787 34.3202Z" fill="url(#paint3_linear_1425_99275)"/>
<path d="M86.1953 30.0342L90.5416 34.3805M90.6077 30.0342L86.2614 34.3805L90.6077 30.0342Z" stroke="url(#paint4_linear_1425_99275)" strokeWidth="2.5" strokeLinecap="round" strokeLinejoin="round"/>
<path d="M37.1289 39.3096L40.2489 42.4296M40.2489 39.3096L37.1289 42.4296L40.2489 39.3096Z" stroke="url(#paint5_linear_1425_99275)" strokeWidth="2.5" strokeLinecap="round" strokeLinejoin="round"/>
<path d="M44.2006 35.8798C45.0622 35.8798 45.7606 35.1813 45.7606 34.3198C45.7606 33.4582 45.0622 32.7598 44.2006 32.7598C43.3391 32.7598 42.6406 33.4582 42.6406 34.3198C42.6406 35.1813 43.3391 35.8798 44.2006 35.8798Z" fill="url(#paint6_linear_1425_99275)"/>
<defs>
<linearGradient id="paint0_linear_1425_99275" x1="66.0403" y1="69.6874" x2="66.0354" y2="33.2721" gradientUnits="userSpaceOnUse">
<stop stopColor="#F0EEFF" stopOpacity="0"/>
<stop offset="0.5001" stopColor="#E9E8FD" stopOpacity="0.5001"/>
<stop offset="1" stopColor="#DDDCF9"/>
</linearGradient>
<linearGradient id="paint1_linear_1425_99275" x1="78.2297" y1="38.2961" x2="71.2415" y2="38.2961" gradientUnits="userSpaceOnUse">
<stop stopColor="#00FF7C"/>
<stop offset="1" stopColor="#00C4FF"/>
</linearGradient>
<linearGradient id="paint2_linear_1425_99275" x1="80.6019" y1="24.4399" x2="83.7216" y2="24.4399" gradientUnits="userSpaceOnUse">
<stop stopColor="#00FF7C"/>
<stop offset="1" stopColor="#00C4FF"/>
</linearGradient>
<linearGradient id="paint3_linear_1425_99275" x1="96.7191" y1="32.7602" x2="99.8388" y2="32.7602" gradientUnits="userSpaceOnUse">
<stop stopColor="#00FF7C"/>
<stop offset="1" stopColor="#00C4FF"/>
</linearGradient>
<linearGradient id="paint4_linear_1425_99275" x1="86.1958" y1="32.2073" x2="90.6077" y2="32.2073" gradientUnits="userSpaceOnUse">
<stop stopColor="#00FF7C"/>
<stop offset="1" stopColor="#00C4FF"/>
</linearGradient>
<linearGradient id="paint5_linear_1425_99275" x1="37.1293" y1="40.8696" x2="40.2489" y2="40.8696" gradientUnits="userSpaceOnUse">
<stop stopColor="#00FF7C"/>
<stop offset="1" stopColor="#00C4FF"/>
</linearGradient>
<linearGradient id="paint6_linear_1425_99275" x1="42.641" y1="34.3198" x2="45.7606" y2="34.3198" gradientUnits="userSpaceOnUse">
<stop stopColor="#00FF7C"/>
<stop offset="1" stopColor="#00C4FF"/>
</linearGradient>
</defs>
</svg>
