<svg width="25" height="24" viewBox="0 0 25 24" fill="none" xmlns="http://www.w3.org/2000/svg">
<path d="M5.19133 17.2933C4.80081 17.6838 4.80081 18.317 5.19133 18.7075C5.58185 19.098 6.21502 19.098 6.60554 18.7075L5.19133 17.2933ZM8.89844 15.0004L9.60554 14.2933C9.21502 13.9028 8.58185 13.9028 8.19133 14.2933L8.89844 15.0004ZM11.2984 17.4004L10.5913 18.1075C10.9819 18.498 11.615 18.498 12.0055 18.1075L11.2984 17.4004ZM16.6984 12.0004L17.4055 11.2933C17.015 10.9028 16.3819 10.9028 15.9913 11.2933L16.6984 12.0004ZM20.1913 16.9075C20.5819 17.298 21.215 17.298 21.6055 16.9075C21.9961 16.517 21.9961 15.8838 21.6055 15.4933L20.1913 16.9075ZM6.60554 18.7075L9.60554 15.7075L8.19133 14.2933L5.19133 17.2933L6.60554 18.7075ZM8.19133 15.7075L10.5913 18.1075L12.0055 16.6933L9.60554 14.2933L8.19133 15.7075ZM12.0055 18.1075L17.4055 12.7075L15.9913 11.2933L10.5913 16.6933L12.0055 18.1075ZM15.9913 12.7075L20.1913 16.9075L21.6055 15.4933L17.4055 11.2933L15.9913 12.7075ZM12.4984 20.6004C7.74879 20.6004 3.89844 16.75 3.89844 12.0004H1.89844C1.89844 17.8546 6.64422 22.6004 12.4984 22.6004V20.6004ZM21.0984 12.0004C21.0984 16.75 17.2481 20.6004 12.4984 20.6004V22.6004C18.3527 22.6004 23.0984 17.8546 23.0984 12.0004H21.0984ZM12.4984 3.40039C17.2481 3.40039 21.0984 7.25074 21.0984 12.0004H23.0984C23.0984 6.14617 18.3527 1.40039 12.4984 1.40039V3.40039ZM12.4984 1.40039C6.64422 1.40039 1.89844 6.14617 1.89844 12.0004H3.89844C3.89844 7.25074 7.74879 3.40039 12.4984 3.40039V1.40039ZM10.2984 9.00039C10.2984 9.44222 9.94026 9.80039 9.49844 9.80039V11.8004C11.0448 11.8004 12.2984 10.5468 12.2984 9.00039H10.2984ZM9.49844 9.80039C9.05661 9.80039 8.69844 9.44222 8.69844 9.00039H6.69844C6.69844 10.5468 7.95204 11.8004 9.49844 11.8004V9.80039ZM8.69844 9.00039C8.69844 8.55856 9.05661 8.20039 9.49844 8.20039V6.20039C7.95204 6.20039 6.69844 7.45399 6.69844 9.00039H8.69844ZM9.49844 8.20039C9.94026 8.20039 10.2984 8.55856 10.2984 9.00039H12.2984C12.2984 7.45399 11.0448 6.20039 9.49844 6.20039V8.20039Z" fill="#1C1C1C"/>
</svg>
