<svg width="63" height="24" viewBox="0 0 63 24" fill="none" xmlns="http://www.w3.org/2000/svg">
                  <rect width="63" height="24" rx="12" fill="#555555" />
                  <path
                    d="M10.148 16H9.08V7.6H11.54C11.932 7.6 12.292 7.656 12.62 7.768C12.956 7.872 13.244 8.028 13.484 8.236C13.724 8.436 13.908 8.688 14.036 8.992C14.172 9.296 14.24 9.64 14.24 10.024C14.24 10.352 14.188 10.648 14.084 10.912C13.98 11.176 13.836 11.408 13.652 11.608C13.468 11.808 13.248 11.976 12.992 12.112C12.736 12.24 12.456 12.332 12.152 12.388L14.792 16H13.532L10.964 12.436H10.148V16ZM10.148 11.488H11.528C12.008 11.488 12.4 11.36 12.704 11.104C13.008 10.848 13.16 10.488 13.16 10.024C13.16 9.552 13.008 9.196 12.704 8.956C12.4 8.708 12.008 8.584 11.528 8.584H10.148V11.488ZM18.2074 16.132C17.7754 16.132 17.3754 16.056 17.0074 15.904C16.6474 15.752 16.3354 15.544 16.0714 15.28C15.8074 15.008 15.5994 14.688 15.4474 14.32C15.3034 13.944 15.2314 13.532 15.2314 13.084C15.2314 12.652 15.3034 12.252 15.4474 11.884C15.5994 11.508 15.8034 11.184 16.0594 10.912C16.3234 10.64 16.6314 10.428 16.9834 10.276C17.3354 10.116 17.7194 10.036 18.1354 10.036C18.5434 10.036 18.9194 10.116 19.2634 10.276C19.6154 10.428 19.9154 10.64 20.1634 10.912C20.4194 11.184 20.6154 11.504 20.7514 11.872C20.8954 12.232 20.9674 12.62 20.9674 13.036C20.9674 13.1 20.9634 13.156 20.9554 13.204C20.9554 13.244 20.9554 13.28 20.9554 13.312V13.408H16.2634C16.2794 13.664 16.3434 13.904 16.4554 14.128C16.5674 14.344 16.7114 14.532 16.8874 14.692C17.0634 14.852 17.2634 14.98 17.4874 15.076C17.7194 15.164 17.9634 15.208 18.2194 15.208C18.6594 15.208 19.0034 15.116 19.2514 14.932C19.5074 14.74 19.7274 14.5 19.9114 14.212L20.7514 14.644C20.5114 15.084 20.1754 15.444 19.7434 15.724C19.3114 15.996 18.7994 16.132 18.2074 16.132ZM19.9234 12.556C19.8994 12.324 19.8354 12.112 19.7314 11.92C19.6274 11.72 19.4954 11.548 19.3354 11.404C19.1754 11.26 18.9914 11.148 18.7834 11.068C18.5754 10.98 18.3514 10.936 18.1114 10.936C17.8714 10.936 17.6474 10.984 17.4394 11.08C17.2314 11.176 17.0434 11.3 16.8754 11.452C16.7154 11.604 16.5834 11.776 16.4794 11.968C16.3754 12.16 16.3114 12.356 16.2874 12.556H19.9234ZM23.9879 16L21.5519 10.168H22.6559L24.4199 14.584L26.1839 10.168H27.2639L24.8279 16H23.9879ZM30.8888 10.036C31.3288 10.036 31.7328 10.116 32.1008 10.276C32.4768 10.436 32.8008 10.656 33.0728 10.936C33.3448 11.208 33.5568 11.528 33.7088 11.896C33.8608 12.264 33.9368 12.66 33.9368 13.084C33.9368 13.508 33.8608 13.904 33.7088 14.272C33.5568 14.64 33.3448 14.964 33.0728 15.244C32.8008 15.516 32.4768 15.732 32.1008 15.892C31.7328 16.052 31.3288 16.132 30.8888 16.132C30.4488 16.132 30.0408 16.052 29.6648 15.892C29.2968 15.732 28.9768 15.516 28.7048 15.244C28.4328 14.964 28.2208 14.64 28.0688 14.272C27.9168 13.904 27.8408 13.508 27.8408 13.084C27.8408 12.66 27.9168 12.264 28.0688 11.896C28.2208 11.528 28.4328 11.208 28.7048 10.936C28.9768 10.656 29.2968 10.436 29.6648 10.276C30.0408 10.116 30.4488 10.036 30.8888 10.036ZM30.8888 10.984C30.6008 10.984 30.3328 11.04 30.0848 11.152C29.8448 11.256 29.6328 11.404 29.4488 11.596C29.2728 11.788 29.1328 12.012 29.0288 12.268C28.9328 12.524 28.8848 12.796 28.8848 13.084C28.8848 13.372 28.9328 13.644 29.0288 13.9C29.1328 14.156 29.2728 14.38 29.4488 14.572C29.6328 14.764 29.8448 14.916 30.0848 15.028C30.3328 15.132 30.6008 15.184 30.8888 15.184C31.1768 15.184 31.4408 15.132 31.6808 15.028C31.9288 14.916 32.1408 14.764 32.3168 14.572C32.5008 14.38 32.6408 14.156 32.7368 13.9C32.8408 13.644 32.8928 13.372 32.8928 13.084C32.8928 12.796 32.8408 12.524 32.7368 12.268C32.6408 12.012 32.5008 11.788 32.3168 11.596C32.1408 11.404 31.9288 11.256 31.6808 11.152C31.4408 11.04 31.1768 10.984 30.8888 10.984ZM36.4527 12.484L38.9007 10.168H40.2207L37.5687 12.652L40.4487 16H39.1407L36.8487 13.288L36.4527 13.66V16H35.4327V7.6H36.4527V12.484ZM43.6605 16.132C43.2285 16.132 42.8285 16.056 42.4605 15.904C42.1005 15.752 41.7885 15.544 41.5245 15.28C41.2605 15.008 41.0525 14.688 40.9005 14.32C40.7565 13.944 40.6845 13.532 40.6845 13.084C40.6845 12.652 40.7565 12.252 40.9005 11.884C41.0525 11.508 41.2565 11.184 41.5125 10.912C41.7765 10.64 42.0845 10.428 42.4365 10.276C42.7885 10.116 43.1725 10.036 43.5885 10.036C43.9965 10.036 44.3725 10.116 44.7165 10.276C45.0685 10.428 45.3685 10.64 45.6165 10.912C45.8725 11.184 46.0685 11.504 46.2045 11.872C46.3485 12.232 46.4205 12.62 46.4205 13.036C46.4205 13.1 46.4165 13.156 46.4085 13.204C46.4085 13.244 46.4085 13.28 46.4085 13.312V13.408H41.7165C41.7325 13.664 41.7965 13.904 41.9085 14.128C42.0205 14.344 42.1645 14.532 42.3405 14.692C42.5165 14.852 42.7165 14.98 42.9405 15.076C43.1725 15.164 43.4165 15.208 43.6725 15.208C44.1125 15.208 44.4565 15.116 44.7045 14.932C44.9605 14.74 45.1805 14.5 45.3645 14.212L46.2045 14.644C45.9645 15.084 45.6285 15.444 45.1965 15.724C44.7645 15.996 44.2525 16.132 43.6605 16.132ZM45.3765 12.556C45.3525 12.324 45.2885 12.112 45.1845 11.92C45.0805 11.72 44.9485 11.548 44.7885 11.404C44.6285 11.26 44.4445 11.148 44.2365 11.068C44.0285 10.98 43.8045 10.936 43.5645 10.936C43.3245 10.936 43.1005 10.984 42.8925 11.08C42.6845 11.176 42.4965 11.3 42.3285 11.452C42.1685 11.604 42.0365 11.776 41.9325 11.968C41.8285 12.16 41.7645 12.356 41.7405 12.556H45.3765ZM53.5168 7.6V16H52.4968V15.076C52.2888 15.396 52.0008 15.652 51.6328 15.844C51.2648 16.036 50.8648 16.132 50.4328 16.132C50.0168 16.132 49.6288 16.056 49.2688 15.904C48.9168 15.744 48.6088 15.528 48.3448 15.256C48.0808 14.984 47.8728 14.664 47.7208 14.296C47.5768 13.92 47.5048 13.516 47.5048 13.084C47.5048 12.652 47.5768 12.252 47.7208 11.884C47.8728 11.516 48.0808 11.196 48.3448 10.924C48.6088 10.644 48.9168 10.428 49.2688 10.276C49.6288 10.116 50.0168 10.036 50.4328 10.036C50.8648 10.036 51.2608 10.124 51.6208 10.3C51.9888 10.476 52.2808 10.724 52.4968 11.044V7.6H53.5168ZM52.5568 13.084C52.5568 12.788 52.5048 12.512 52.4008 12.256C52.3048 12 52.1648 11.78 51.9808 11.596C51.8048 11.404 51.5928 11.256 51.3448 11.152C51.1048 11.04 50.8408 10.984 50.5528 10.984C50.2648 10.984 49.9968 11.04 49.7488 11.152C49.5088 11.256 49.2968 11.404 49.1128 11.596C48.9368 11.78 48.7968 12 48.6928 12.256C48.5968 12.512 48.5488 12.788 48.5488 13.084C48.5488 13.38 48.5968 13.656 48.6928 13.912C48.7968 14.168 48.9368 14.392 49.1128 14.584C49.2968 14.768 49.5088 14.916 49.7488 15.028C49.9968 15.132 50.2648 15.184 50.5528 15.184C50.8408 15.184 51.1048 15.132 51.3448 15.028C51.5928 14.916 51.8048 14.768 51.9808 14.584C52.1648 14.392 52.3048 14.168 52.4008 13.912C52.5048 13.656 52.5568 13.38 52.5568 13.084Z"
                    fill="white"
                  />
                </svg>