<svg width="24" height="24" viewBox="0 0 24 24" fill="none" xmlns="http://www.w3.org/2000/svg">
<path d="M5.99844 21.6004L16.1984 12.0004L20.9984 16.8004M5.99844 21.6004H17.9984C19.9867 21.6004 21.5984 19.9886 21.5984 18.0004V12.0004M5.99844 21.6004C4.01021 21.6004 2.39844 19.9886 2.39844 18.0004V6.00039C2.39844 4.01217 4.01021 2.40039 5.99844 2.40039H13.7984M16.7984 4.84297L19.2527 2.40039M19.2527 2.40039L21.5984 4.73255M19.2527 2.40039V8.40039M9.59844 7.80039C9.59844 8.7945 8.79255 9.60039 7.79844 9.60039C6.80432 9.60039 5.99844 8.7945 5.99844 7.80039C5.99844 6.80628 6.80432 6.00039 7.79844 6.00039C8.79255 6.00039 9.59844 6.80628 9.59844 7.80039Z" stroke="#1C1C1C" strokeWidth="2" strokeLinecap="round" strokeLinejoin="round"/>
</svg>
