<svg width="24" height="24" viewBox="0 0 24 24" fill="none" xmlns="http://www.w3.org/2000/svg">
<rect width="24" height="24" rx="8" fill="#8247E5"/>
<path d="M16.0738 9.30459C15.7786 9.13061 15.3948 9.13061 15.0701 9.30459L12.7675 10.6385L11.2029 11.5084L8.90037 12.8422C8.60516 13.0162 8.2214 13.0162 7.89668 12.8422L6.06642 11.7983C5.77122 11.6243 5.56458 11.3054 5.56458 10.9574V8.89863C5.56458 8.55066 5.7417 8.2317 6.06642 8.05771L7.86715 7.04281C8.16236 6.86883 8.54612 6.86883 8.87084 7.04281L10.6716 8.05771C10.9668 8.2317 11.1734 8.55066 11.1734 8.89863V10.2325L12.738 9.33359V7.99972C12.738 7.65175 12.5609 7.33278 12.2362 7.1588L8.90037 5.24499C8.60516 5.07101 8.2214 5.07101 7.89668 5.24499L4.50184 7.1588C4.17712 7.33278 4 7.65175 4 7.99972V11.8564C4 12.2043 4.17712 12.5233 4.50184 12.6973L7.89668 14.6111C8.19187 14.7851 8.57564 14.7851 8.90037 14.6111L11.2029 13.3062L12.7675 12.4073L15.0701 11.1024C15.3653 10.9284 15.7491 10.9284 16.0738 11.1024L17.8745 12.1173C18.1697 12.2913 18.3764 12.6103 18.3764 12.9582V15.017C18.3764 15.365 18.1993 15.684 17.8745 15.8579L16.0738 16.9019C15.7786 17.0758 15.3948 17.0758 15.0701 16.9019L13.2694 15.887C12.9742 15.713 12.7675 15.394 12.7675 15.046V13.7122L11.2029 14.6111V15.9449C11.2029 16.2929 11.3801 16.6119 11.7048 16.7859L15.0996 18.6997C15.3948 18.8736 15.7786 18.8736 16.1033 18.6997L19.4982 16.7859C19.7933 16.6119 20 16.2929 20 15.9449V12.0883C20 11.7403 19.8228 11.4214 19.4982 11.2474L16.0738 9.30459Z" fill="white"/>
</svg>
