<svg width="20" height="20" viewBox="0 0 20 20" fill="none" xmlns="http://www.w3.org/2000/svg">
<rect width="20" height="20" rx="8" fill="#F3BA2F"/>
<path d="M11.3897 14.9569V16.6379L9.92423 17.5L8.50182 16.6379V14.9569L9.92423 15.819L11.3897 14.9569ZM3.54492 9.13793L4.96734 10V12.8879L7.42423 14.3534V16.0345L3.54492 13.75V9.13793ZM16.3035 9.13793V13.75L12.3811 16.0345V14.3534L14.838 12.8879V10L16.3035 9.13793ZM12.3811 6.85345L13.8466 7.71552V9.39655L11.3897 10.8621V13.7931L9.96733 14.6552L8.54492 13.7931V10.8621L6.00182 9.39655V7.71552L7.46733 6.85345L9.92423 8.31896L12.3811 6.85345ZM6.00182 10.6034L7.42423 11.4655V13.1465L6.00182 12.2845V10.6034ZM13.8466 10.6034V12.2845L12.4242 13.1465V11.4655L13.8466 10.6034ZM4.96734 5.38793L6.43285 6.25L4.96734 7.11207V8.7931L3.54492 7.93103V6.25L4.96734 5.38793ZM14.8811 5.38793L16.3466 6.25V7.93103L14.8811 8.7931V7.11207L13.4587 6.25L14.8811 5.38793ZM9.92423 5.38793L11.3897 6.25L9.92423 7.11207L8.50182 6.25L9.92423 5.38793ZM9.92423 2.5L13.8466 4.78448L12.4242 5.64655L9.96733 4.18103L7.46733 5.64655L6.04492 4.78448L9.92423 2.5Z" fill="white"/>
</svg>
