<svg width="20" height="20" viewBox="0 0 20 20" fill="none" xmlns="http://www.w3.org/2000/svg">
<rect width="20" height="20" rx="8" fill="#0033AD"/>
<path d="M6.90053 10.0273C6.88594 10.2814 6.97284 10.531 7.14213 10.7211C7.31142 10.9112 7.54926 11.0263 7.80339 11.0412H7.85576C8.04292 11.041 8.22593 10.986 8.38219 10.8829C8.53845 10.7799 8.66113 10.6334 8.73509 10.4615C8.80904 10.2896 8.83104 10.0997 8.79836 9.91546C8.76568 9.73117 8.67975 9.56049 8.55119 9.42447C8.42262 9.28846 8.25704 9.19306 8.07489 9.15006C7.89274 9.10706 7.70198 9.11834 7.52616 9.1825C7.35034 9.24667 7.19715 9.36091 7.08551 9.51112C6.97387 9.66134 6.90865 9.84096 6.89791 10.0278L6.90053 10.0273Z" fill="white"/>
<path d="M3.3268 9.78429C3.2657 9.78087 3.20496 9.79564 3.15225 9.82673C3.09955 9.85782 3.05724 9.90384 3.03068 9.95897C3.00411 10.0141 2.99449 10.0759 3.00302 10.1365C3.01155 10.1971 3.03786 10.2538 3.07861 10.2994C3.11936 10.3451 3.17273 10.3776 3.23197 10.3929C3.29121 10.4083 3.35367 10.4057 3.41145 10.3855C3.46923 10.3654 3.51974 10.3286 3.55659 10.2797C3.59345 10.2309 3.61499 10.1722 3.6185 10.1111C3.62091 10.0704 3.61526 10.0297 3.60189 9.99129C3.58851 9.95285 3.56767 9.91743 3.54057 9.88706C3.51346 9.85669 3.48062 9.83198 3.44394 9.81435C3.40725 9.79671 3.36745 9.78649 3.3268 9.78429Z" fill="white"/>
<path d="M6.83978 4.46507C6.8942 4.43712 6.93913 4.3937 6.96893 4.34028C6.99872 4.28685 7.01205 4.2258 7.00722 4.16482C7.0024 4.10384 6.97964 4.04564 6.94181 3.99757C6.90399 3.94949 6.85278 3.91368 6.79465 3.89464C6.73651 3.8756 6.67405 3.87419 6.61511 3.89057C6.55617 3.90696 6.5034 3.94042 6.46343 3.98673C6.42347 4.03304 6.3981 4.09014 6.39052 4.15085C6.38294 4.21155 6.39348 4.27313 6.42082 4.32786C6.4392 4.36448 6.46465 4.39711 6.4957 4.42386C6.52675 4.45061 6.56279 4.47094 6.60173 4.4837C6.64068 4.49645 6.68176 4.50137 6.72262 4.49817C6.76348 4.49498 6.8033 4.48372 6.83978 4.46507Z" fill="white"/>
<path d="M7.81229 6.16081C7.89681 6.11818 7.96678 6.05145 8.01337 5.96905C8.05997 5.88666 8.08108 5.7923 8.07406 5.6979C8.06703 5.60351 8.03217 5.51332 7.97389 5.43873C7.91561 5.36414 7.83653 5.30851 7.74664 5.27886C7.65674 5.24921 7.56008 5.24689 7.46886 5.27217C7.37765 5.29745 7.29597 5.34921 7.23417 5.4209C7.17237 5.4926 7.13321 5.58101 7.12164 5.67495C7.11007 5.7689 7.12662 5.86416 7.16919 5.94871C7.19747 6.00488 7.23655 6.05492 7.28418 6.09598C7.33181 6.13705 7.38707 6.16832 7.44679 6.18802C7.50652 6.20771 7.56954 6.21545 7.63225 6.21078C7.69497 6.20611 7.75615 6.18913 7.81229 6.16081Z" fill="white"/>
<path d="M4.53969 7.32709C4.60488 7.36995 4.68132 7.39252 4.75933 7.39194C4.83735 7.39135 4.91344 7.36763 4.97797 7.32379C5.0425 7.27995 5.09258 7.21795 5.12187 7.14564C5.15116 7.07332 5.15834 6.99395 5.1425 6.91756C5.12667 6.84116 5.08853 6.77118 5.03291 6.71647C4.97729 6.66176 4.90669 6.62478 4.83005 6.6102C4.7534 6.59562 4.67416 6.60411 4.60234 6.63458C4.53052 6.66505 4.46935 6.71614 4.42657 6.78139C4.36928 6.86878 4.34902 6.97533 4.37023 7.07764C4.39144 7.17996 4.45239 7.26967 4.53969 7.32709Z" fill="white"/>
<path d="M5.12257 9.6099C5.02807 9.60456 4.93411 9.62737 4.85257 9.67542C4.77103 9.72348 4.70557 9.79463 4.66445 9.87989C4.62334 9.96514 4.60843 10.0607 4.6216 10.1544C4.63477 10.2481 4.67543 10.3358 4.73844 10.4065C4.80145 10.4771 4.88399 10.5275 4.97562 10.5512C5.06724 10.5749 5.16385 10.5709 5.25322 10.5398C5.34259 10.5086 5.42071 10.4516 5.47772 10.3761C5.53472 10.3005 5.56805 10.2098 5.57348 10.1153C5.58063 9.98847 5.53715 9.86403 5.45261 9.76927C5.36806 9.67451 5.24935 9.61719 5.12257 9.6099Z" fill="white"/>
<path d="M4.59206 12.828C4.52247 12.8632 4.46486 12.9182 4.42653 12.9861C4.38819 13.054 4.37085 13.1318 4.3767 13.2095C4.38255 13.2873 4.41131 13.3616 4.45937 13.423C4.50742 13.4844 4.57261 13.5302 4.64668 13.5546C4.72075 13.5789 4.80039 13.5808 4.87552 13.5599C4.95065 13.5391 5.01791 13.4964 5.06878 13.4373C5.11966 13.3782 5.15188 13.3053 5.16136 13.2279C5.17084 13.1505 5.15716 13.0721 5.12205 13.0024C5.09872 12.9562 5.0665 12.9149 5.02723 12.8811C4.98796 12.8473 4.94242 12.8216 4.8932 12.8054C4.84398 12.7892 4.79205 12.7829 4.74038 12.7867C4.68871 12.7906 4.63831 12.8047 4.59206 12.828Z" fill="white"/>
<path d="M6.45277 8.62063C6.54598 8.68171 6.65521 8.71379 6.76665 8.7128C6.87809 8.71181 6.98673 8.6778 7.07884 8.61507C7.17095 8.55233 7.24239 8.4637 7.28413 8.36037C7.32587 8.25703 7.33603 8.14365 7.31333 8.03454C7.29063 7.92543 7.23609 7.82551 7.1566 7.7474C7.07711 7.66928 6.97625 7.6165 6.86676 7.59571C6.75727 7.57492 6.64408 7.58706 6.54149 7.6306C6.43891 7.67414 6.35153 7.74712 6.29042 7.84031C6.24977 7.90218 6.22171 7.97147 6.20787 8.04419C6.19403 8.11692 6.19466 8.19166 6.20974 8.26414C6.22482 8.33662 6.25405 8.40542 6.29575 8.46659C6.33745 8.52776 6.39081 8.5801 6.45277 8.62063Z" fill="white"/>
<path d="M12.3559 6.1231C12.4353 6.17487 12.5282 6.20194 12.623 6.20091C12.7177 6.19987 12.81 6.17077 12.8882 6.11727C12.9664 6.06378 13.027 5.9883 13.0624 5.90038C13.0977 5.81245 13.1061 5.71603 13.0867 5.62329C13.0672 5.53056 13.0207 5.44568 12.953 5.37939C12.8853 5.31309 12.7994 5.26835 12.7063 5.25083C12.6132 5.23331 12.517 5.24379 12.4298 5.28094C12.3427 5.31809 12.2685 5.38026 12.2166 5.45957C12.1821 5.51226 12.1583 5.57123 12.1466 5.63313C12.1349 5.69502 12.1356 5.75861 12.1485 5.82025C12.1615 5.88189 12.1865 5.94037 12.222 5.99234C12.2576 6.04431 12.3031 6.08875 12.3559 6.1231Z" fill="white"/>
<path d="M13.3384 4.4326C13.3897 4.46622 13.4498 4.48387 13.5111 4.48332C13.5725 4.48277 13.6323 4.46404 13.6829 4.4295C13.7336 4.39496 13.7729 4.34616 13.7959 4.28927C13.8188 4.23239 13.8244 4.16998 13.8118 4.10994C13.7993 4.0499 13.7692 3.99493 13.7254 3.95198C13.6817 3.90902 13.6261 3.88003 13.5658 3.86865C13.5056 3.85728 13.4433 3.86404 13.3868 3.88807C13.3304 3.91211 13.2824 3.95234 13.2488 4.00369C13.2039 4.07245 13.1881 4.15625 13.2049 4.23667C13.2216 4.31709 13.2697 4.38756 13.3384 4.4326Z" fill="white"/>
<path d="M12.4313 9.115C12.3056 9.10778 12.1798 9.12538 12.0609 9.16681C11.942 9.20823 11.8325 9.27267 11.7385 9.35643C11.5487 9.52561 11.4339 9.76324 11.4193 10.0171C11.4047 10.2709 11.4915 10.5201 11.6607 10.7099C11.8299 10.8997 12.0675 11.0145 12.3214 11.0291C12.3397 11.0291 12.3585 11.0291 12.3769 11.0291C12.5618 11.029 12.7427 10.9755 12.8978 10.8748C13.053 10.7742 13.1757 10.6309 13.2512 10.4621C13.3267 10.2933 13.3518 10.1063 13.3234 9.92359C13.295 9.74087 13.2144 9.57027 13.0912 9.43236C13.0078 9.33831 12.9065 9.2618 12.7932 9.20731C12.6799 9.15283 12.5569 9.12144 12.4313 9.115Z" fill="white"/>
<path d="M8.12704 8.55412C8.2066 8.71306 8.32895 8.84664 8.48032 8.93981C8.63169 9.03299 8.80607 9.08205 8.98381 9.08148C9.14769 9.08152 9.30883 9.03956 9.45188 8.9596C9.59492 8.87965 9.71509 8.76437 9.80091 8.62476C9.88673 8.48516 9.93534 8.32589 9.9421 8.16216C9.94887 7.99843 9.91355 7.83569 9.83954 7.68949C9.75942 7.53126 9.63684 7.39847 9.48552 7.30598C9.3342 7.21348 9.16011 7.16494 8.98276 7.16579C8.8194 7.16607 8.65881 7.20808 8.51623 7.28784C8.37366 7.3676 8.25383 7.48247 8.16811 7.62154C8.08239 7.76062 8.03362 7.91928 8.02643 8.08249C8.01924 8.24571 8.05387 8.40805 8.12704 8.55412Z" fill="white"/>
<path d="M15.6421 7.32604C15.7117 7.29091 15.7694 7.23594 15.8078 7.16807C15.8461 7.10019 15.8635 7.02247 15.8577 6.94471C15.8519 6.86696 15.8232 6.79267 15.7752 6.73122C15.7272 6.66978 15.6621 6.62394 15.5881 6.5995C15.514 6.57507 15.4344 6.57313 15.3593 6.59393C15.2841 6.61473 15.2168 6.65735 15.1659 6.71638C15.115 6.77541 15.0827 6.84822 15.0731 6.9256C15.0635 7.00298 15.0771 7.08146 15.1122 7.15112C15.1593 7.24455 15.2416 7.31546 15.3409 7.34825C15.4403 7.38105 15.5487 7.37306 15.6421 7.32604Z" fill="white"/>
<path d="M13.2116 7.63136C13.1121 7.68149 13.0297 7.76001 12.9748 7.857C12.9198 7.95398 12.8949 8.06507 12.9032 8.17621C12.9114 8.28736 12.9524 8.39357 13.021 8.48142C13.0895 8.56926 13.1826 8.6348 13.2885 8.66973C13.3943 8.70467 13.5081 8.70744 13.6155 8.67769C13.7229 8.64794 13.8191 8.58701 13.8919 8.5026C13.9647 8.41819 14.0108 8.3141 14.0244 8.20348C14.038 8.09287 14.0185 7.9807 13.9684 7.88116C13.9352 7.81502 13.8892 7.75609 13.8332 7.70772C13.7771 7.65936 13.7121 7.62253 13.6418 7.59933C13.5715 7.57612 13.4974 7.56701 13.4235 7.57251C13.3497 7.578 13.2777 7.598 13.2116 7.63136Z" fill="white"/>
<path d="M10.081 4.28805C10.1588 4.29249 10.2363 4.27373 10.3035 4.23414C10.3707 4.19455 10.4247 4.13592 10.4586 4.06566C10.4925 3.99539 10.5048 3.91666 10.4939 3.83941C10.483 3.76217 10.4495 3.68988 10.3975 3.63169C10.3456 3.5735 10.2775 3.53204 10.202 3.51253C10.1265 3.49302 10.0469 3.49635 9.97322 3.5221C9.89958 3.54785 9.83524 3.59486 9.78832 3.65719C9.74141 3.71951 9.71404 3.79435 9.70966 3.87224C9.7038 3.97661 9.73962 4.07903 9.80924 4.157C9.87887 4.23497 9.9766 4.28211 10.081 4.28805Z" fill="white"/>
<path d="M10.0768 6.76987C10.188 6.77611 10.2986 6.74923 10.3946 6.69262C10.4906 6.63602 10.5676 6.55224 10.616 6.45187C10.6643 6.3515 10.6818 6.23904 10.6663 6.12871C10.6508 6.01838 10.6029 5.91513 10.5287 5.83201C10.4545 5.74889 10.3573 5.68963 10.2495 5.66172C10.1416 5.63381 10.0279 5.6385 9.9227 5.6752C9.8175 5.7119 9.72554 5.77897 9.65844 5.86792C9.59135 5.95687 9.55213 6.06371 9.54574 6.17495C9.53731 6.32425 9.58851 6.47079 9.68809 6.58235C9.78767 6.69391 9.92748 6.76136 10.0768 6.76987Z" fill="white"/>
<path d="M7.0236 12.5222C7.12313 12.472 7.20554 12.3934 7.26041 12.2964C7.31528 12.1994 7.34015 12.0883 7.33186 11.9771C7.32358 11.866 7.28252 11.7598 7.21388 11.672C7.14523 11.5842 7.05209 11.5187 6.94623 11.4838C6.84036 11.4489 6.72653 11.4462 6.61914 11.4761C6.51174 11.5059 6.4156 11.5669 6.34288 11.6514C6.27016 11.7358 6.22412 11.84 6.21059 11.9506C6.19706 12.0612 6.21664 12.1734 6.26686 12.2729C6.33417 12.4063 6.45171 12.5075 6.59362 12.5542C6.73552 12.601 6.89019 12.5895 7.0236 12.5222Z" fill="white"/>
<path d="M10.4407 7.59208C10.3239 7.77043 10.2698 7.98267 10.2871 8.1952C10.3045 8.40773 10.3922 8.60842 10.5364 8.76549C10.6806 8.92257 10.8731 9.02706 11.0833 9.06244C11.2936 9.09782 11.5097 9.06206 11.6974 8.96081C11.885 8.85957 12.0336 8.69864 12.1195 8.50347C12.2054 8.30831 12.2238 8.09007 12.1717 7.88329C12.1196 7.67652 12.0001 7.49301 11.832 7.36182C11.6639 7.23063 11.4568 7.15925 11.2436 7.15898C11.0843 7.15887 10.9276 7.1984 10.7874 7.27401C10.6472 7.34962 10.5281 7.45893 10.4407 7.59208Z" fill="white"/>
<path d="M12.1072 11.6C12.0304 11.4477 11.9144 11.3187 11.7711 11.2262C11.6278 11.1338 11.4624 11.0812 11.2921 11.074C11.1217 11.0667 10.9525 11.1051 10.8019 11.1851C10.6513 11.2651 10.5247 11.3838 10.4353 11.529C10.3459 11.6742 10.2969 11.8407 10.2933 12.0112C10.2897 12.1817 10.3316 12.35 10.4148 12.4989C10.4979 12.6478 10.6193 12.7717 10.7664 12.8581C10.9135 12.9444 11.0809 12.9899 11.2514 12.9899C11.4014 12.9888 11.5492 12.953 11.683 12.8851C11.9093 12.7706 12.081 12.571 12.1605 12.3301C12.24 12.0893 12.2208 11.8267 12.1072 11.6Z" fill="white"/>
<path d="M13.782 11.5329C13.6888 11.4718 13.5796 11.4396 13.4681 11.4405C13.3567 11.4414 13.248 11.4753 13.1558 11.538C13.0637 11.6007 12.9922 11.6893 12.9504 11.7926C12.9086 11.8959 12.8983 12.0093 12.921 12.1184C12.9436 12.2275 12.9981 12.3275 13.0775 12.4057C13.157 12.4838 13.2578 12.5367 13.3673 12.5575C13.4768 12.5784 13.59 12.5663 13.6926 12.5228C13.7952 12.4793 13.8826 12.4064 13.9438 12.3132C14.0255 12.1882 14.0544 12.0359 14.0241 11.8897C13.9937 11.7434 13.9067 11.6151 13.782 11.5329Z" fill="white"/>
<path d="M15.617 10.0933C15.6223 9.99877 15.5995 9.90481 15.5515 9.82327C15.5034 9.74173 15.4323 9.67627 15.347 9.63516C15.2618 9.59404 15.1662 9.57913 15.0725 9.5923C14.9788 9.60547 14.8911 9.64613 14.8204 9.70914C14.7498 9.77215 14.6994 9.85469 14.6757 9.94632C14.652 10.0379 14.656 10.1345 14.6871 10.2239C14.7183 10.3133 14.7753 10.3914 14.8508 10.4484C14.9264 10.5054 15.0171 10.5387 15.1116 10.5442C15.2384 10.5513 15.3629 10.5079 15.4576 10.4233C15.5524 10.3388 15.6097 10.2201 15.617 10.0933Z" fill="white"/>
<path d="M16.943 9.75234C16.8818 9.74882 16.8209 9.76353 16.768 9.79461C16.7152 9.82569 16.6727 9.87175 16.646 9.92696C16.6194 9.98217 16.6097 10.044 16.6181 10.1048C16.6266 10.1655 16.6529 10.2224 16.6937 10.2681C16.7345 10.3139 16.788 10.3466 16.8473 10.362C16.9067 10.3774 16.9693 10.3748 17.0272 10.3546C17.0851 10.3345 17.1357 10.2976 17.1727 10.2486C17.2096 10.1997 17.2312 10.1409 17.2347 10.0797C17.2393 9.9976 17.2112 9.91708 17.1565 9.85573C17.1018 9.79438 17.025 9.7572 16.943 9.75234Z" fill="white"/>
<path d="M15.6945 12.8265C15.6293 12.7837 15.5528 12.7613 15.4749 12.762C15.3969 12.7627 15.3209 12.7865 15.2564 12.8304C15.192 12.8743 15.142 12.9364 15.1128 13.0087C15.0836 13.081 15.0765 13.1603 15.0924 13.2367C15.1082 13.313 15.1464 13.3829 15.202 13.4376C15.2576 13.4923 15.3282 13.5292 15.4048 13.5438C15.4814 13.5583 15.5606 13.5498 15.6324 13.5194C15.7042 13.4889 15.7654 13.4379 15.8082 13.3727C15.8366 13.3294 15.8562 13.2809 15.8659 13.23C15.8755 13.1791 15.8751 13.1267 15.8645 13.076C15.854 13.0253 15.8335 12.9771 15.8043 12.9343C15.7752 12.8915 15.7379 12.8549 15.6945 12.8265Z" fill="white"/>
<path d="M6.89634 15.721C6.84508 15.6873 6.785 15.6696 6.72369 15.6701C6.66238 15.6706 6.6026 15.6893 6.5519 15.7238C6.5012 15.7583 6.46187 15.807 6.43887 15.8639C6.41587 15.9207 6.41023 15.9831 6.42268 16.0431C6.43513 16.1031 6.46509 16.1581 6.50879 16.2011C6.55249 16.2441 6.60796 16.2732 6.66819 16.2847C6.72841 16.2962 6.79069 16.2896 6.84715 16.2656C6.90361 16.2417 6.95171 16.2016 6.98537 16.1504C7.00773 16.1163 7.02317 16.0782 7.0308 16.0382C7.03843 15.9982 7.0381 15.9571 7.02983 15.9172C7.02156 15.8773 7.00552 15.8395 6.98261 15.8058C6.95971 15.7721 6.93039 15.7433 6.89634 15.721Z" fill="white"/>
<path d="M13.3944 15.6885C13.3397 15.7161 13.2943 15.7593 13.2641 15.8127C13.2339 15.8661 13.2202 15.9272 13.2248 15.9883C13.2293 16.0495 13.2519 16.1079 13.2897 16.1562C13.3274 16.2046 13.3787 16.2406 13.4369 16.2598C13.4952 16.279 13.5578 16.2805 13.6169 16.2641C13.676 16.2477 13.7289 16.2141 13.7689 16.1677C13.8089 16.1212 13.8342 16.0639 13.8417 16.003C13.8491 15.9422 13.8384 15.8804 13.8108 15.8257C13.7925 15.7893 13.7672 15.7569 13.7364 15.7303C13.7055 15.7037 13.6697 15.6834 13.6311 15.6707C13.5924 15.6579 13.5516 15.6529 13.511 15.656C13.4704 15.6591 13.4308 15.6701 13.3944 15.6885Z" fill="white"/>
<path d="M9.79345 12.5599C9.91034 12.3815 9.96439 12.1693 9.94705 11.9567C9.92971 11.7442 9.84198 11.5435 9.69773 11.3864C9.55348 11.2293 9.36097 11.1248 9.15066 11.0895C8.94035 11.0542 8.72426 11.09 8.5366 11.1913C8.34894 11.2926 8.20043 11.4536 8.11457 11.6488C8.02872 11.844 8.01043 12.0623 8.0626 12.2691C8.11476 12.4758 8.23441 12.6593 8.40259 12.7904C8.57077 12.9216 8.77789 12.9928 8.99114 12.993C9.1504 12.9935 9.30726 12.9542 9.44741 12.8785C9.58755 12.8029 9.70652 12.6933 9.79345 12.5599Z" fill="white"/>
<path d="M7.87828 14.031C7.79907 13.9792 7.70628 13.952 7.61164 13.9529C7.51699 13.9538 7.42474 13.9828 7.34654 14.0361C7.26835 14.0894 7.20772 14.1647 7.17232 14.2525C7.13691 14.3403 7.12833 14.4366 7.14765 14.5292C7.16698 14.6219 7.21333 14.7068 7.28087 14.7731C7.3484 14.8394 7.43408 14.8842 7.52708 14.9018C7.62007 14.9195 7.7162 14.9091 7.80332 14.8721C7.89045 14.8351 7.96464 14.7731 8.01654 14.694C8.08605 14.5877 8.11053 14.4582 8.08461 14.3339C8.05868 14.2096 7.98447 14.1006 7.87828 14.031Z" fill="white"/>
<path d="M10.1129 15.8655C10.0351 15.8611 9.95763 15.8798 9.89043 15.9194C9.82323 15.959 9.76927 16.0176 9.73537 16.0878C9.70147 16.158 9.68916 16.2367 9.69999 16.314C9.71082 16.3912 9.7443 16.4635 9.79621 16.5217C9.84811 16.5799 9.91611 16.6214 9.9916 16.6409C10.0671 16.6605 10.1467 16.6572 10.2203 16.6316C10.294 16.6059 10.3583 16.559 10.4053 16.4967C10.4523 16.4345 10.4797 16.3597 10.4842 16.2818C10.4872 16.2301 10.4799 16.1783 10.4629 16.1294C10.4458 16.0805 10.4193 16.0354 10.3848 15.9967C10.3503 15.9581 10.3086 15.9266 10.2619 15.9041C10.2153 15.8815 10.1646 15.8684 10.1129 15.8655Z" fill="white"/>
<path d="M10.1171 13.3842C10.0058 13.3774 9.89492 13.4039 9.79861 13.4601C9.7023 13.5164 9.62486 13.6 9.5761 13.7003C9.52734 13.8007 9.50946 13.9132 9.52471 14.0237C9.53996 14.1342 9.58766 14.2377 9.66177 14.3211C9.73588 14.4044 9.83307 14.4639 9.94102 14.492C10.049 14.5201 10.1628 14.5155 10.2682 14.4788C10.3735 14.4422 10.4656 14.3751 10.5328 14.286C10.6 14.197 10.6392 14.09 10.6455 13.9786C10.6541 13.8297 10.6033 13.6836 10.5042 13.5721C10.4052 13.4607 10.2659 13.3931 10.1171 13.3842Z" fill="white"/>
<path d="M12.4219 13.9927C12.3373 14.0356 12.2674 14.1027 12.221 14.1853C12.1745 14.268 12.1536 14.3626 12.161 14.4571C12.1683 14.5517 12.2035 14.6419 12.2622 14.7164C12.3208 14.7909 12.4003 14.8464 12.4904 14.8757C12.5806 14.9051 12.6774 14.907 12.7687 14.8813C12.86 14.8556 12.9416 14.8033 13.0031 14.7312C13.0647 14.6591 13.1035 14.5704 13.1146 14.4762C13.1257 14.382 13.1086 14.2867 13.0655 14.2022C13.0371 14.1462 12.9978 14.0963 12.9501 14.0554C12.9023 14.0145 12.8469 13.9835 12.7872 13.964C12.7274 13.9445 12.6643 13.9371 12.6017 13.942C12.539 13.9469 12.4779 13.9642 12.4219 13.9927Z" fill="white"/>
</svg>
