<svg width="20" height="20" viewBox="0 0 20 20" fill="none" xmlns="http://www.w3.org/2000/svg">
<rect width="20" height="20" rx="8" fill="#2E3148"/>
<path d="M9.98354 14.959C12.7769 14.959 15.0413 12.731 15.0413 9.98257C15.0413 7.23414 12.7769 5.0061 9.98354 5.0061C7.19022 5.0061 4.92578 7.23414 4.92578 9.98257C4.92578 12.731 7.19022 14.959 9.98354 14.959Z" fill="#1B1E36"/>
<path d="M10.0007 2.5C9.05982 2.5 8.29688 5.85785 8.29688 10C8.29688 14.1421 9.05982 17.5 10.0007 17.5C10.9416 17.5 11.7046 14.1421 11.7046 10C11.7046 5.85785 10.9416 2.5 10.0007 2.5ZM10.1184 17.0767C10.0108 17.2179 9.90316 17.112 9.90316 17.112C9.46985 16.618 9.25319 15.7002 9.25319 15.7002C8.49526 13.3003 8.67566 8.14735 8.67566 8.14735C9.03186 4.05645 9.67981 3.09006 9.90031 2.87551C9.92282 2.85361 9.95247 2.84023 9.98402 2.83772C10.0156 2.83521 10.047 2.84373 10.0728 2.86179C10.3928 3.08485 10.6611 4.01769 10.6611 4.01769C11.4535 6.91179 11.3817 9.62943 11.3817 9.62943C11.4535 11.9941 10.9846 14.6412 10.9846 14.6412C10.6238 16.6529 10.1184 17.0767 10.1184 17.0767Z" fill="#6F7390"/>
<path d="M16.6126 6.26762C16.1441 5.46432 12.8045 6.4843 9.15117 8.54552C5.49781 10.6068 2.92077 12.929 3.38888 13.732C3.857 14.535 7.19691 13.5153 10.8503 11.4541C14.5036 9.39288 17.0807 7.07058 16.6126 6.26762ZM3.82109 13.6218C3.64173 13.5996 3.68225 13.4545 3.68225 13.4545C3.90226 12.839 4.60237 12.1974 4.60237 12.1974C6.34171 10.3561 10.9745 7.94586 10.9745 7.94586C14.7577 6.21397 15.9329 6.28704 16.231 6.36779C16.2616 6.3762 16.2882 6.39498 16.306 6.42083C16.3239 6.44667 16.3319 6.47791 16.3286 6.509C16.2928 6.89322 15.6022 7.5862 15.6022 7.5862C13.4466 9.70348 11.015 10.9949 11.015 10.9949C8.96603 12.2333 6.39917 13.1499 6.39917 13.1499C4.44603 13.8424 3.82116 13.6218 3.82116 13.6218H3.82109Z" fill="#6F7390"/>
<path d="M16.5957 13.759C17.0678 12.9578 14.4972 10.6249 10.8567 8.54816C7.21621 6.47143 3.87709 5.43884 3.40542 6.24138C2.93375 7.04393 5.50387 9.37547 9.14647 11.4522C12.7891 13.5289 16.124 14.5616 16.5957 13.759ZM3.71824 6.55096C3.6485 6.38828 3.79571 6.3491 3.79571 6.3491C4.44743 6.228 5.36287 6.50396 5.36287 6.50396C7.85336 7.06197 12.2943 9.79901 12.2943 9.79901C15.7134 12.1531 16.2378 13.1901 16.3164 13.4844C16.3244 13.5146 16.3213 13.5466 16.3076 13.5747C16.294 13.6029 16.2707 13.6254 16.2418 13.6383C15.8853 13.7989 14.9303 13.5596 14.9303 13.5596C11.9872 12.7831 9.63334 11.3605 9.63334 11.3605C7.51844 10.2381 5.42716 8.51118 5.42716 8.51118C3.83811 7.19473 3.71872 6.55274 3.71872 6.55274L3.71824 6.55096Z" fill="#6F7390"/>
<path d="M9.9827 10.8648C10.478 10.8648 10.8795 10.4697 10.8795 9.98244C10.8795 9.49514 10.478 9.1001 9.9827 9.1001C9.48743 9.1001 9.08594 9.49514 9.08594 9.98244C9.08594 10.4697 9.48743 10.8648 9.9827 10.8648Z" fill="#B7B9C8"/>
<path d="M13.6608 7.12351C13.948 7.12351 14.1809 6.88649 14.1809 6.5941C14.1809 6.30172 13.948 6.0647 13.6608 6.0647C13.3735 6.0647 13.1406 6.30172 13.1406 6.5941C13.1406 6.88649 13.3735 7.12351 13.6608 7.12351Z" fill="#B7B9C8"/>
<path d="M5.1217 8.92381C5.40896 8.92381 5.64183 8.68678 5.64183 8.3944C5.64183 8.10201 5.40896 7.86499 5.1217 7.86499C4.83443 7.86499 4.60156 8.10201 4.60156 8.3944C4.60156 8.68678 4.83443 8.92381 5.1217 8.92381Z" fill="#B7B9C8"/>
<path d="M8.92444 15.4179C9.21171 15.4179 9.44459 15.1809 9.44459 14.8885C9.44459 14.5961 9.21171 14.3591 8.92444 14.3591C8.63717 14.3591 8.4043 14.5961 8.4043 14.8885C8.4043 15.1809 8.63717 15.4179 8.92444 15.4179Z" fill="#B7B9C8"/>
</svg>
