<svg width="20" height="20" viewBox="0 0 20 20" fill="none" xmlns="http://www.w3.org/2000/svg">
<rect width="20" height="20" rx="8" fill="#00EF8B"/>
<path d="M14.5102 7.80469H11.5293V10.7856H14.5102V7.80469Z" fill="white"/>
<path d="M8.55053 11.9023C8.55053 12.5203 8.04959 13.0212 7.43165 13.0212C6.8137 13.0212 6.31276 12.5203 6.31276 11.9023C6.31276 11.2844 6.8137 10.7835 7.43165 10.7835H8.55053V7.80469H7.43165C5.16857 7.80469 3.33398 9.63927 3.33398 11.9023C3.33398 14.1654 5.16857 16 7.43165 16C9.69472 16 11.5293 14.1654 11.5293 11.9023V10.7835H8.55053V11.9023Z" fill="white"/>
<path d="M12.6484 6.31414H16.0009V3.33325H12.6484C10.3863 3.33558 8.55311 5.1688 8.55078 7.43091V7.80458H11.5296V7.43091C11.5307 6.81379 12.0313 6.31414 12.6484 6.31414Z" fill="white"/>
<path d="M8.55078 10.7835H11.5296V7.80469H8.55078V10.7835Z" fill="#16FF99"/>
</svg>
