<svg width="24" height="24" viewBox="0 0 24 24" fill="none" xmlns="http://www.w3.org/2000/svg">
<rect width="24" height="24" rx="8" fill="white"/>
<path d="M12.3587 3.7002C10.7529 3.7065 9.21475 4.34718 8.0793 5.48262C6.94386 6.61807 6.30318 8.15624 6.29688 9.76199C6.29701 10.4311 6.40488 11.0958 6.61634 11.7307C6.69248 11.9387 6.84542 12.1097 7.04372 12.2085C7.24201 12.3072 7.47061 12.3263 7.68254 12.2618C7.88735 12.1834 8.0546 12.0299 8.1503 11.8326C8.24599 11.6353 8.26293 11.4089 8.19767 11.1996C8.01809 10.705 7.93802 10.1798 7.96207 9.65417C7.98764 8.80665 8.25907 7.98485 8.7433 7.28883C9.22754 6.5928 9.90369 6.05257 10.6894 5.73392C11.4752 5.41527 12.3366 5.33195 13.1689 5.49409C14.0011 5.65623 14.7683 6.05685 15.377 6.64716C15.9856 7.23747 16.4095 7.99202 16.5971 8.81892C16.7846 9.64582 16.7277 10.5094 16.4332 11.3045C16.1388 12.0997 15.6195 12.792 14.9386 13.2974C14.2577 13.8027 13.4446 14.0991 12.5983 14.1506C12.5983 14.1506 11.7477 14.2025 11.3244 14.2544C11.1685 14.277 11.0139 14.3076 10.8612 14.3463C10.856 14.3516 10.8498 14.3558 10.8429 14.3587C10.8361 14.3616 10.8287 14.3631 10.8213 14.3631C10.8138 14.3631 10.8065 14.3616 10.7996 14.3587C10.7927 14.3558 10.7865 14.3516 10.7813 14.3463C10.7739 14.3365 10.7698 14.3246 10.7698 14.3123C10.7698 14.3001 10.7739 14.2881 10.7813 14.2784L10.9131 13.5596L11.7118 9.96565C11.7578 9.75012 11.7164 9.52513 11.5966 9.34015C11.4768 9.15518 11.2884 9.02538 11.0728 8.97931C10.8573 8.93324 10.6323 8.97467 10.4473 9.09449C10.2624 9.21431 10.1326 9.40271 10.0865 9.61823C10.0865 9.61823 8.1857 18.4154 8.1857 18.4953C8.15953 18.5981 8.15412 18.7051 8.16976 18.81C8.18541 18.915 8.22181 19.0157 8.27683 19.1064C8.33185 19.1971 8.40439 19.276 8.49021 19.3383C8.57604 19.4007 8.67343 19.4453 8.7767 19.4696H8.82063C8.92398 19.4964 9.03164 19.5021 9.13725 19.4865C9.24285 19.4709 9.34425 19.4342 9.43546 19.3788C9.52667 19.3233 9.60583 19.2501 9.66827 19.1635C9.73071 19.0769 9.77515 18.9787 9.79898 18.8746C9.79746 18.8614 9.79746 18.848 9.79898 18.8347C9.82294 18.7309 10.0625 17.5609 10.0625 17.5609C10.1512 17.1296 10.3698 16.7358 10.6889 16.4324C11.008 16.129 11.4123 15.9305 11.8475 15.8637C12.0312 15.8358 12.8019 15.7839 12.8019 15.7839C14.3352 15.631 15.7526 14.8995 16.7656 13.7384C17.7786 12.5773 18.3111 11.0737 18.2546 9.53388C18.1981 7.99401 17.5569 6.53354 16.4616 5.44975C15.3662 4.36597 13.8991 3.74033 12.3587 3.7002V3.7002Z" fill="#1E1E1E"/>
<path d="M12.725 17.676C12.5938 17.6487 12.4585 17.6477 12.327 17.6732C12.1954 17.6987 12.0703 17.7501 11.9588 17.8245C11.8473 17.8988 11.7517 17.9946 11.6776 18.1062C11.6034 18.2178 11.5523 18.343 11.527 18.4746C11.4988 18.6039 11.4964 18.7375 11.5199 18.8677C11.5434 18.9979 11.5923 19.1222 11.6639 19.2335C11.7355 19.3447 11.8283 19.4408 11.9371 19.5162C12.0458 19.5915 12.1684 19.6447 12.2977 19.6726H12.3257C12.4531 19.7034 12.5854 19.7085 12.7149 19.6878C12.8444 19.667 12.9685 19.6207 13.0799 19.5516C13.1913 19.4825 13.288 19.392 13.3641 19.2853C13.4403 19.1785 13.4945 19.0577 13.5237 18.9299V18.874C13.5692 18.61 13.5118 18.3386 13.3632 18.1157C13.2146 17.8929 12.9862 17.7355 12.725 17.676Z" fill="#E6007A"/>
</svg>
