<svg width="274" height="116" viewBox="0 0 274 116" fill="none" xmlns="http://www.w3.org/2000/svg">
<path fill-rule="evenodd" clip-rule="evenodd" d="M262.48 0.599976C268.82 0.599976 273.96 5.73975 273.96 12.08C273.96 18.4202 268.82 23.56 262.48 23.56H196.88C203.22 23.56 208.36 28.6997 208.36 35.04C208.36 41.3802 203.22 46.52 196.88 46.52H232.96C239.3 46.52 244.44 51.6597 244.44 58C244.44 64.3402 239.3 69.48 232.96 69.48H216.275C208.281 69.48 201.8 74.6197 201.8 80.96C201.8 85.1868 205.08 89.0135 211.64 92.44C217.98 92.44 223.12 97.5797 223.12 103.92C223.12 110.26 217.98 115.4 211.64 115.4H75.5201C69.1798 115.4 64.0401 110.26 64.0401 103.92C64.0401 97.5797 69.1798 92.44 75.5201 92.44H11.5601C5.21985 92.44 0.0800781 87.3002 0.0800781 80.96C0.0800781 74.6197 5.21985 69.48 11.5601 69.48H77.1601C83.5003 69.48 88.6401 64.3402 88.6401 58C88.6401 51.6597 83.5003 46.52 77.1601 46.52H36.1601C29.8198 46.52 24.6801 41.3802 24.6801 35.04C24.6801 28.6997 29.8198 23.56 36.1601 23.56H101.76C95.4198 23.56 90.2801 18.4202 90.2801 12.08C90.2801 5.73975 95.4198 0.599976 101.76 0.599976H262.48ZM262.48 46.52C268.82 46.52 273.96 51.6597 273.96 58C273.96 64.3402 268.82 69.48 262.48 69.48C256.14 69.48 251 64.3402 251 58C251 51.6597 256.14 46.52 262.48 46.52Z" fill="url(#paint0_linear_3032_13960)"/>
<defs>
<linearGradient id="paint0_linear_3032_13960" x1="139.557" y1="115.422" x2="139.537" y2="0.574259" gradientUnits="userSpaceOnUse">
<stop stop-color="#F0EEFF" stop-opacity="0"/>
<stop offset="0.5001" stop-color="#E9E8FD" stop-opacity="0.5001"/>
<stop offset="1" stop-color="#DDDCF9"/>
</linearGradient>
</defs>
</svg>
