<svg width="156" height="228" viewBox="0 0 156 228" fill="none" xmlns="http://www.w3.org/2000/svg">
<g id="Frame 1000003906">
<g id="stop">
<path id="Rectangle" d="M142.423 53.0706L5.18744 65.0772C3.38284 65.235 2.04791 66.826 2.20579 68.6306L10.9249 168.29C11.0827 170.094 12.6736 171.429 14.4782 171.272L151.714 159.265C153.519 159.107 154.854 157.516 154.696 155.712L145.977 56.0522C145.819 54.2476 144.228 52.9127 142.423 53.0706Z" fill="white" stroke="#0DB774" stroke-width="2.5"/>
<path id="Rectangle-4" fill-rule="evenodd" clip-rule="evenodd" d="M115.442 155.037L22.0031 163.205C20.1985 163.363 18.6076 162.028 18.4497 160.223L11.582 81.7676C37.7429 115.669 73.8073 141.536 115.442 155.037Z" fill="#F3FFFD"/>
<path id="Oval-3" fill-rule="evenodd" clip-rule="evenodd" d="M68.9285 79.6966C86.4261 75.0082 104.412 85.3921 109.1 102.89C113.789 120.387 103.405 138.373 85.907 143.061C68.4093 147.75 50.4238 137.366 45.7354 119.868C41.0469 102.371 51.4308 84.3851 68.9285 79.6966ZM94.1613 93.4829L71.1724 133.304C75.0924 134.369 79.3379 134.444 83.5445 133.316C96.2303 129.917 103.759 116.878 100.359 104.192C99.2322 99.9849 97.0446 96.345 94.1613 93.4829ZM71.2351 87.3771C58.5492 90.7762 51.0209 103.816 54.4201 116.502C55.5435 120.694 57.72 124.324 60.5888 127.181L83.5701 87.3798C79.6604 86.3239 75.4284 86.2535 71.2351 87.3771Z" fill="#F3FFFD"/>
<path id="Shape" fill-rule="evenodd" clip-rule="evenodd" d="M95.8001 93.9061L72.0153 135.099C76.0712 136.202 80.4641 136.279 84.8168 135.113C97.9401 131.596 105.728 118.107 102.212 104.984C101.046 100.632 98.7826 96.8669 95.8001 93.9061ZM72.0829 87.5893C58.9596 91.1057 51.1717 104.595 54.6881 117.718C55.8047 121.885 57.9269 125.514 60.7236 128.415L84.366 87.4684C80.4555 86.496 76.2508 86.4726 72.0829 87.5893Z" stroke="#0DB774" stroke-width="2.5"/>
<path id="Shape_2" d="M95.4314 79.5168C97.5563 80.6509 99.5672 81.9958 101.43 83.532M105.58 87.5535C109.123 91.5868 111.817 96.4761 113.301 102.013C118.458 121.26 107.036 141.044 87.7885 146.202C68.541 151.359 48.757 139.937 43.5997 120.689C38.4423 101.442 49.8646 81.6578 69.1121 76.5004C76.027 74.6476 83.0112 74.9347 89.3615 76.9558" stroke="#0DB774" stroke-width="2.5" stroke-linecap="round"/>
<path id="Oval-4" fill-rule="evenodd" clip-rule="evenodd" d="M80.0854 8.57507C81.1223 10.0439 81.7314 11.8364 81.7314 13.7711C81.7314 18.7527 77.693 22.7911 72.7114 22.7911C67.7298 22.7911 63.6914 18.7527 63.6914 13.7711C63.6914 11.8364 64.3005 10.0439 65.3374 8.57507C65.3331 8.66712 65.3314 8.75889 65.3314 8.85106C65.3314 12.9269 68.6355 16.2311 72.7114 16.2311C76.7873 16.2311 80.0914 12.9269 80.0914 8.85106L80.0854 8.57507Z" fill="#F3FFFD"/>
<path id="Shape_3" d="M16.4477 55.1664L22.3812 49.8679M26.7032 46.0084L65.3543 11.4931M84.4391 16.1244L131.887 45.0668" stroke="url(#paint0_linear_3873_12863)" stroke-width="2.5" stroke-linecap="round" stroke-linejoin="round"/>
<path id="Oval" d="M72.7101 16.2311C76.7859 16.2311 80.0901 12.9269 80.0901 8.85107C80.0901 4.77521 76.7859 1.47107 72.7101 1.47107C68.6342 1.47107 65.3301 4.77521 65.3301 8.85107C65.3301 12.9269 68.6342 16.2311 72.7101 16.2311Z" stroke="#0DB774" stroke-width="2.5"/>
</g>
<g id="404">
<path d="M27.6914 213.83L45.4231 188.682H53.2295V212.938H58.5824V218.514H53.2295V226.934H46.8171V218.514H27.6914V213.83ZM46.8171 212.938V196.21L34.996 212.938H46.8171Z" fill="#0DB774"/>
<path d="M94.1952 207.752C94.1952 210.354 93.8607 212.864 93.1915 215.28C92.5224 217.659 91.5187 219.759 90.1805 221.581C88.8794 223.402 87.2252 224.871 85.2179 225.986C83.2477 227.064 80.9429 227.603 78.3036 227.603C75.6643 227.603 73.341 227.064 71.3336 225.986C69.3634 224.871 67.7092 223.402 66.371 221.581C65.0699 219.759 64.0848 217.659 63.4157 215.28C62.7466 212.864 62.412 210.354 62.412 207.752C62.412 205.15 62.7466 202.659 63.4157 200.28C64.0848 197.901 65.0699 195.801 66.371 193.979C67.7092 192.158 69.3634 190.708 71.3336 189.63C73.341 188.515 75.6643 187.957 78.3036 187.957C80.9429 187.957 83.2477 188.515 85.2179 189.63C87.2252 190.708 88.8794 192.158 90.1805 193.979C91.5187 195.801 92.5224 197.901 93.1915 200.28C93.8607 202.659 94.1952 205.15 94.1952 207.752ZM87.5598 207.752C87.5598 206.042 87.3739 204.369 87.0022 202.734C86.6305 201.098 86.0729 199.648 85.3294 198.385C84.5859 197.083 83.6194 196.061 82.4299 195.318C81.2775 194.537 79.9021 194.147 78.3036 194.147C76.7052 194.147 75.3112 194.537 74.1216 195.318C72.9693 196.061 72.0213 197.083 71.2779 198.385C70.5344 199.648 69.9768 201.098 69.6051 202.734C69.2333 204.369 69.0475 206.042 69.0475 207.752C69.0475 209.499 69.2333 211.191 69.6051 212.826C69.9768 214.462 70.5344 215.93 71.2779 217.231C72.0213 218.495 72.9693 219.518 74.1216 220.298C75.3112 221.042 76.7052 221.413 78.3036 221.413C79.9021 221.413 81.2775 221.042 82.4299 220.298C83.6194 219.518 84.5859 218.495 85.3294 217.231C86.0729 215.93 86.6305 214.462 87.0022 212.826C87.3739 211.191 87.5598 209.499 87.5598 207.752Z" fill="#0DB774"/>
<path d="M98.3171 213.83L116.049 188.682H123.855V212.938H129.208V218.514H123.855V226.934H117.443V218.514H98.3171V213.83ZM117.443 212.938V196.21L105.622 212.938H117.443Z" fill="#0DB774"/>
</g>
</g>
<defs>
<linearGradient id="paint0_linear_3873_12863" x1="14.7505" y1="35.6176" x2="130.177" y2="25.5191" gradientUnits="userSpaceOnUse">
<stop stop-color="#00FF7C"/>
<stop offset="1" stop-color="#00C4FF"/>
</linearGradient>
</defs>
</svg>
