<svg width="160" height="42" viewBox="0 0 160 42" fill="none" xmlns="http://www.w3.org/2000/svg">
<g clipPath="url(#clip0_1119_38212)">
<path d="M41.9844 28.2038V11.7853H58.5808V28.2038H41.9844ZM55.2652 24.9227V15.0654H45.301V24.9227H55.2652Z" fill="white"/>
<path d="M70.6172 28.2038H87.2136V24.9227H73.9328V15.0654H87.2136V11.7853H70.6172V28.2038Z" fill="white"/>
<path d="M94.8672 15.0654H101.515V28.2038H104.831V15.0654H111.464V11.7853H94.8672V15.0654Z" fill="white"/>
<path d="M135.727 28.2038L129.095 11.7853H125.763L119.131 28.2038H122.925L127.437 16.7059L130.641 24.9227H127.437V28.2038H135.727Z" fill="white"/>
<path d="M146.711 28.2038V16.9265L156.675 28.2038H159.991V11.7853H156.675V23.4401L146.711 11.7853H143.395V28.2038H146.711Z" fill="white"/>
<path d="M15.4411 37.3193C14.9469 37.3193 14.5009 37.461 14.1183 37.6978L4.75973 32.3511C4.75973 32.3036 4.75973 32.257 4.75973 32.2095C4.75973 31.2946 4.21753 30.49 3.43697 30.1115V11.9584C4.21855 11.5637 4.75973 10.7753 4.75973 9.84522C4.75973 9.79765 4.75973 9.75009 4.75973 9.70353L9.73364 6.86474L21.7224 13.7092V27.1472L17.8482 24.9237C17.8482 24.8762 17.8482 24.8286 17.8482 24.782C17.8482 23.4886 16.7955 22.4321 15.4728 22.4321C14.1654 22.4321 13.0973 23.4886 13.0973 24.782C13.0973 26.0754 14.1654 27.132 15.4728 27.132C15.9669 27.132 16.4129 26.9903 16.7955 26.7373L22.2001 29.8281C22.3597 29.9384 22.5664 30.0174 22.7904 30.0174C23.3807 30.0174 23.8584 29.5437 23.8584 28.9608V13.0939V12.4948L23.3163 12.1952L10.2748 4.73539L9.74899 4.43582L9.20679 4.73539L3.69068 7.88994C3.32444 7.63794 2.87738 7.49524 2.38326 7.49524C1.07584 7.49524 0.0078125 8.55182 0.0078125 9.84522C0.0078125 10.7753 0.550011 11.5647 1.33057 11.9584V30.1115C0.548988 30.49 0.0078125 31.2946 0.0078125 32.2095C0.0078125 33.518 1.07584 34.5594 2.38326 34.5594C2.86203 34.5594 3.32341 34.4177 3.69068 34.1647L13.0646 39.5276C13.0646 39.5751 13.0646 39.6227 13.0646 39.6693C13.0646 40.9627 14.1173 42.0192 15.44 42.0192C16.7475 42.0192 17.8155 40.9627 17.8155 39.6693C17.8165 38.3607 16.7485 37.3193 15.4411 37.3193Z" fill="url(#paint0_linear_1119_38212)"/>
<path d="M29.5514 30.1115V11.9584C30.333 11.5637 30.8742 10.7753 30.8742 9.84521C30.8742 8.55182 29.8061 7.49524 28.4824 7.49524C28.0036 7.49524 27.5575 7.63692 27.1749 7.88994L17.8164 2.54329C17.8164 2.49572 17.8164 2.44815 17.8164 2.4016C17.8164 1.09302 16.7483 0.0354309 15.4409 0.0354309C14.1182 0.0354309 13.0655 1.09201 13.0655 2.4016C13.0655 3.695 14.1182 4.75157 15.4409 4.75157C15.9197 4.75157 16.3657 4.60989 16.7483 4.35688L26.1222 9.70353C26.1059 9.75109 26.1059 9.79866 26.1059 9.84521C26.1059 10.7753 26.6481 11.5647 27.4286 11.9584V30.1115C26.6471 30.49 26.1059 31.2946 26.1059 32.2095C26.1059 32.257 26.1059 32.3036 26.1222 32.3511L21.132 35.2061L9.14322 28.3616V14.9237L13.1606 17.2109C13.1442 17.2585 13.1442 17.306 13.1442 17.3526C13.1442 18.6612 14.2123 19.7026 15.5197 19.7026C16.8425 19.7026 17.9115 18.6612 17.9115 17.3526C17.9115 16.0592 16.8435 15.0026 15.5197 15.0026C15.0409 15.0026 14.5949 15.1443 14.2123 15.3973L8.61637 12.1952C8.45678 12.1163 8.26547 12.0535 8.07417 12.0535C7.50026 12.0535 7.02148 12.5271 7.02148 13.0949V28.9608V29.5599L7.54732 29.8595L20.6041 37.3193L21.1299 37.6189L21.6558 37.3193L27.1719 34.1647C27.5545 34.4167 28.0005 34.5594 28.4793 34.5594C29.802 34.5594 30.8711 33.518 30.8711 32.2095C30.8742 31.2946 30.332 30.49 29.5514 30.1115Z" fill="url(#paint1_linear_1119_38212)"/>
</g>
<defs>
<linearGradient id="paint0_linear_1119_38212" x1="0.00851838" y1="23.2274" x2="23.8587" y2="23.2274" gradientUnits="userSpaceOnUse">
<stop stopColor="#00FF7C"/>
<stop offset="1" stopColor="#00C4FF"/>
</linearGradient>
<linearGradient id="paint1_linear_1119_38212" x1="7.02416" y1="18.8271" x2="30.8743" y2="18.8271" gradientUnits="userSpaceOnUse">
<stop stopColor="#00FF7C"/>
<stop offset="1" stopColor="#00C4FF"/>
</linearGradient>
<clipPath id="clip0_1119_38212">
<rect width="160" height="42" fill="white"/>
</clipPath>
</defs>
</svg>
